<?xml version="1.0" encoding="utf-8"?>
<!-- Generator: Adobe Illustrator 18.0.0, SVG Export Plug-In . SVG Version: 6.00 Build 0)  -->
<!DOCTYPE svg PUBLIC "-//W3C//DTD SVG 1.1//EN" "http://www.w3.org/Graphics/SVG/1.1/DTD/svg11.dtd">
<svg version="1.1" id="Layer_1" xmlns="http://www.w3.org/2000/svg" xmlns:xlink="http://www.w3.org/1999/xlink" x="0px" y="0px"
	 viewBox="0 0 852.4 221.4" enable-background="new 0 0 852.4 221.4" xml:space="preserve">
<g>
	<path fill="none" d="M186.4,162.7c-0.5,0-0.9,0-1.4,0c0.3,0,0.7,0,1.1,0C186.2,162.7,186.3,162.7,186.4,162.7z"/>
	<path fill="none" d="M149,112.3c-20.7-5.7-39.6,13.3-34,34c2.6,9.5,10.1,17,19.6,19.6c20.7,5.7,39.6-13.3,34-34
		C166,122.5,158.5,114.9,149,112.3z"/>
	<path fill="#FFFFFF" d="M55,93.4H11.9c-2.3,0-4.3-0.7-6.1-2C4,90,3.1,87.9,3.1,85.2c0-2.9,0.9-5.1,2.7-6.5c1.8-1.4,3.8-2.1,6.1-2.1
		h60.9c2.3,0,4.3,0.7,6.2,2.1c1.9,1.4,2.8,3.6,2.8,6.5c0,2.6-0.3,3-2.3,5.9l0,0l-51.7,77h46.9c2.3,0,4.3,0.7,6.1,2.1
		c1.8,1.4,2.7,3.6,2.7,6.5c0,2.7-0.9,4.7-2.7,6.1c-1.8,1.4-3.8,2-6.1,2H9.8c-2.4,0-4.5-0.7-6.3-2c-1.8-1.4-2.7-3.4-2.7-6.1
		c0-2.7,1.1-4.6,2.5-6.4L55,93.4z"/>
	<path fill="#00CFFF" d="M496.1,75.2c3.5,0,6.1,0.8,7.8,2.5c1.7,1.6,2.6,3.9,2.6,6.7c0,2.6-0.9,4.7-2.6,6.3
		c-1.7,1.6-4.3,2.5-7.8,2.5h-23.5v84.1c0,2-0.9,3.9-2.8,5.5c-1.9,1.6-4.3,2.5-7.5,2.5c-3.4,0-6-0.8-7.9-2.5
		c-1.9-1.6-2.9-3.5-2.9-5.5V93.1h-21.2c-3.1,0-5.6-0.8-7.5-2.5c-1.9-1.6-2.8-3.7-2.8-6.3c0-2.8,0.9-5,2.8-6.7
		c1.9-1.6,4.3-2.5,7.5-2.5H496.1z"/>
	<path fill="#00CFFF" d="M522.2,74.8c0-2,1-3.8,3-5.5c2-1.6,4.6-2.4,7.8-2.4c3.1,0,5.6,0.8,7.5,2.4c1.9,1.6,2.8,3.4,2.8,5.5v4
		c0,2-0.9,3.8-2.8,5.5c-1.9,1.6-4.3,2.4-7.5,2.4c-3.2,0-5.8-0.8-7.8-2.4c-2-1.6-3-3.4-3-5.5V74.8z M522.2,105.1c0-2,1-3.9,3-5.5
		c2-1.6,4.6-2.5,7.8-2.5c3.1,0,5.6,0.8,7.5,2.5c1.9,1.6,2.8,3.5,2.8,5.5v72.1c0,2-0.9,3.9-2.8,5.5c-1.9,1.6-4.3,2.5-7.5,2.5
		c-3.2,0-5.8-0.8-7.8-2.5c-2-1.6-3-3.5-3-5.5V105.1z"/>
	<path fill="#00CFFF" d="M612.8,178.1c-0.6,1.9-2,3.6-4.1,5s-4.7,2.1-7.5,2.1c-3,0-5.5-0.7-7.6-2.1c-2.1-1.4-3.4-3.1-4-5L560.6,108
		c-0.6-1.9-0.2-3.9,1.1-6c1.3-2.1,3.6-3.5,6.8-4.3c3-0.7,5.7-0.4,8,0.7c2.3,1.1,3.8,2.7,4.4,4.6l18.6,52.8c0.6,1.6,2.8,1.6,3.3,0
		l18.5-52.8c0.7-1.9,2.2-3.4,4.6-4.6c2.3-1.1,4.9-1.4,7.8-0.7c3.2,0.8,5.5,2.2,6.9,4.3c1.4,2.1,1.8,4.1,1.2,6L612.8,178.1z"/>
	<path fill="#00CFFF" d="M659.3,74.8c0-2,1-3.8,3-5.5c2-1.6,4.6-2.4,7.8-2.4c3.1,0,5.6,0.8,7.5,2.4c1.9,1.6,2.8,3.4,2.8,5.5v4
		c0,2-0.9,3.8-2.8,5.5c-1.9,1.6-4.3,2.4-7.5,2.4c-3.2,0-5.8-0.8-7.8-2.4c-2-1.6-3-3.4-3-5.5V74.8z M659.3,105.1c0-2,1-3.9,3-5.5
		c2-1.6,4.6-2.5,7.8-2.5c3.1,0,5.6,0.8,7.5,2.5c1.9,1.6,2.8,3.5,2.8,5.5v72.1c0,2-0.9,3.9-2.8,5.5c-1.9,1.6-4.3,2.5-7.5,2.5
		c-3.2,0-5.8-0.8-7.8-2.5c-2-1.6-3-3.5-3-5.5V105.1z"/>
	<path fill="#00CFFF" d="M710.3,98.9V81.4c0-2,1-3.9,2.9-5.5c1.9-1.6,4.5-2.5,7.9-2.5c3.1,0,5.6,0.8,7.5,2.5
		c1.9,1.6,2.8,3.5,2.8,5.5v17.4h13.3c2,0,3.8,0.7,5.4,2.1c1.6,1.4,2.3,3.2,2.3,5.5c0,2.5-0.8,4.4-2.3,5.8c-1.6,1.4-3.4,2.1-5.4,2.1
		h-13.3v41c0,4.7,0.7,8,2,9.6c1.3,1.7,3.2,2.5,5.7,2.5c2.4,0,4.4-0.2,6.1-0.6c1.7-0.4,3.6-0.6,5.7-0.6c2.8,0,4.8,0.7,6,2.1
		c1.3,1.4,1.9,3.4,1.9,5.8c0,2.1-0.6,3.9-1.8,5.2c-1.2,1.4-2.8,2.5-4.8,3.3c-2,0.8-4.3,1.4-6.8,1.8c-2.6,0.3-5.3,0.5-8.2,0.5
		c-9.3,0-16.2-2.3-20.5-6.9c-4.3-4.6-6.5-12.4-6.5-23.6v-40.3h-7.2c-2,0-3.8-0.7-5.4-2.1c-1.6-1.4-2.3-3.4-2.3-5.8
		c0-2.3,0.8-4.1,2.3-5.5c1.6-1.4,3.4-2.1,5.4-2.1H710.3z"/>
	<path fill="#00CFFF" d="M832.5,99.4c2-1.6,4.6-2.4,7.8-2.4c3.1,0,5.6,0.8,7.5,2.5c1.9,1.6,2.9,3.5,2.9,5.5v84.4
		c-0.1,5.4-1.2,10.1-3.1,14.1c-2,4-4.7,7.3-8.1,9.8c-3.4,2.5-7.4,4.4-12,5.7c-4.6,1.2-9.5,1.9-14.6,1.9c-5.9,0-10.5-0.2-14-0.7
		c-3.5-0.5-6-1-7.7-1.5c-4-2.4-5.9-5.2-5.9-8.6c0-2.5,0.8-4.5,2.5-5.9c1.7-1.5,4.2-2.2,7.5-2.2c1.3,0,3.5,0.2,6.6,0.7
		c3.1,0.4,6.8,0.7,11,0.7c5.6,0,9.8-1.2,12.7-3.6c2.8-2.4,4.2-5.8,4.2-10.2V177c0-0.3-0.2-0.6-0.5-0.7l0,0c-0.3-0.1-0.6,0-0.8,0.2
		c-2.6,2.8-5.5,4.8-8.8,6.2c-3.4,1.5-7.7,2.2-12.8,2.2c-6.6,0-12-0.9-16.3-2.6c-4.3-1.7-7.7-4.2-10.2-7.4c-2.5-3.2-4.3-6.9-5.3-11.3
		c-1-4.3-1.5-9.1-1.5-14.3V105c0-2,1-3.9,3.1-5.5c2-1.6,4.6-2.5,7.7-2.5c3.1,0,5.6,0.8,7.5,2.5c1.9,1.6,2.9,3.5,2.9,5.5v45.2
		c0,5.3,1.3,9.4,3.8,12.2c2.5,2.8,6.9,4.2,13.1,4.2c4.3,0,8.1-1,11.4-3c1.2-0.7,2.3-1.6,3.3-2.7c2.3-2.6,3.5-6,3.5-9.4v-47.2
		C829.6,102.6,830.5,101,832.5,99.4z"/>
	<path fill="#FFFFFF" d="M129.3,137.1c0-0.1,0-0.3,0-0.4c0.1-1.1-0.2,0.8,0.1-0.4c0.1-0.6,0.2-1.2,0.4-1.8c0.1-0.4,0.2-0.7,0.3-1
		c0.1-0.2,0.6-1.6,0.3-0.8c0.9-2,1.7-3.2,3-4.5c1.5-1.4,3.6-2.5,5.8-3.1c4.5-1.2,2.6-8.3-1.9-7c-8.6,2.4-15,10.1-15.3,19.1
		C121.9,141.8,129.2,141.8,129.3,137.1L129.3,137.1z"/>
	<path fill="#FFFFFF" d="M219.2,137c0-0.1,0-0.3,0-0.4c0.1-1.1-0.2,0.8,0.1-0.4c0.1-0.6,0.3-1.2,0.4-1.8c0.1-0.3,0.2-0.7,0.3-1
		c0.1-0.2,0.6-1.5,0.3-0.8c0.9-2,1.8-3.1,3.1-4.4c1.5-1.4,3.6-2.4,5.9-3c4.6-1.1,2.8-8.2-1.8-7.1c-8.7,2.2-15.2,9.7-15.7,18.7
		C211.6,141.6,218.9,141.7,219.2,137L219.2,137z"/>
	<path fill="none" d="M186.4,162.8c-0.5,0-0.9,0-1.4,0c0.3,0,0.7,0,1.1,0C186.2,162.8,186.3,162.8,186.4,162.8z"/>
	<path fill="none" d="M148.8,112.3c-20.7-5.7-39.8,13.4-34.1,34.1c2.6,9.5,10.2,17.1,19.7,19.7c20.7,5.7,39.8-13.4,34.1-34.1
		C165.9,122.4,158.3,114.9,148.8,112.3z"/>
	<path fill="#FFFFFF" d="M274.6,139.2c0-24.1-17.8-43.9-40.5-45.9c0,0-0.4,0-1.1-0.1c-0.3,0-0.6,0-0.8,0c-1.2-0.1-2.9-0.1-4.9-0.2
		l-4-0.1c-0.6,0-1.2,0-1.8,0l-11,0c-3.1,0-6.3,0.4-9.3,1.3c-4.1,1.2-8.6,3.4-12.5,7.5c-1.5,1.6-4.1,1.6-5.6,0
		c-2.5-2.6-6.8-6-13.1-7.7c-2.6-0.7-5.4-1.1-8.1-1.1l-8.9,0c-2.9-0.1-5.7-0.1-8,0h0v0c-2.2,0.1-4.1,0.1-5.4,0.2c-0.3,0-0.6,0-0.8,0
		c-0.7,0-1.1,0.1-1.1,0.1c-22.7,2.1-40.5,21.8-40.5,45.9c0,0,0,0.1,0,0.1c0,0,0,0.1,0,0.1c0,25.5,19.9,46.1,44.5,46.1
		c10.8,0,20.8-4,28.5-10.7c2.1-2,6-6.5,7.4-8.2c0,0,0,0,0,0c0.2-0.2,0.4-0.5,0.6-0.7c0,0,0,0,0,0l0,0c0.3-0.3,0.6-0.6,0.9-0.8
		c1.6-1.3,3.5-2,5.9-2.2c0.4,0,0.9-0.1,1.4,0c2.7,0.1,4.8,0.8,6.4,2.2c0.5,0.4,0.9,0.8,1.2,1.3c1.3,1.5,5.5,6.4,7.7,8.6
		c7.7,6.6,17.6,10.6,28.4,10.6c24.6,0,44.5-20.6,44.5-46.1C274.6,139.3,274.6,139.3,274.6,139.2
		C274.6,139.2,274.6,139.2,274.6,139.2z M134.4,166c-9.5-2.6-17.1-10.2-19.7-19.7c-5.7-20.7,13.4-39.8,34.1-34.1
		c9.5,2.6,17.1,10.2,19.7,19.7C174.2,152.7,155.1,171.7,134.4,166z M223.2,166.7c-9.5-2.6-17.1-10.2-19.7-19.7
		c-5.7-20.7,13.4-39.8,34.1-34.1c9.5,2.6,17.1,10.2,19.7,19.7C263,153.3,243.9,172.4,223.2,166.7z"/>
	<path fill="#FFFFFF" d="M419.1,134.9v42.6c0,4.1-4.1,7.9-10.8,7.9c-5.9,0-10-3.9-10-7.9v-43.3c0-12.3-4.5-18.1-16.1-18.1
		c-10.6,0-15.6,5.7-15.6,18.1v42.4c0,1-0.1,2.1-0.4,3.1l0,0l-0.3,0.7c-0.3,0.5-0.2,0.6-0.7,1.1c-1.6,2.2-4.7,3.8-8.5,3.9h-0.9
		c-5.4,0-9.6-3.2-10.3-6.5c0,0-0.1-0.6-0.1-0.8v-44c0-12.3-5-18.1-15.6-18.1c-11.8,0-16.1,5.7-16.1,18.1v43.3
		c0,4.1-4.1,7.9-10.2,7.9c-6.5,0-10.8-3.9-10.8-7.9v-42.6c0-21.3,7.5-37.2,35.3-37.2c11.1,0,19,3.4,24.4,8.9c1.9,1.9,5,1.9,6.9,0
		c5.4-5.5,13.2-8.9,24.7-8.9C411.8,97.7,419.1,113.6,419.1,134.9z"/>
	<path fill="#00CFFF" d="M265.4,75.7c-3.5-11.1-10.7-21.2-23.1-28.9c0,0-0.1,0-0.1-0.1c-0.6-0.3-2.2-1-1.6,0.5c0,0,0,0,0,0.1
		c4.1,9-7,13.1-9.9,0.8C226.8,34.9,234,21,220.5,9.5c-2.9-2.7-5.4-4.6-7.4-6.6c-0.1-0.1-0.3-0.2-0.4-0.4c0,0,0,0-0.1-0.1
		c-0.1-0.1-0.2-0.2-0.3-0.3c-1.8-1.8-2.8-0.3-3.3,1.1h0c0,0-0.2,0.5-0.3,1.1c-0.1,0.6,0,3.8-3.6,7.7c-2.4,2.2-6,3.9-10.8,4.9
		c-17.1,3.1-22,7.4-29.6,18.8c-0.7,1-1.3,2.1-1.9,3.2c-0.9,1.6-2.7,3.9-4.9,2.4c-2.3-1.5-1.4-3.8-1.6-7.4c0-0.5-0.2-0.9-0.4-1.3
		c-0.5-0.7-1.5-1.3-3.5,0.3c0,0,0,0-0.1,0.1c-0.2,0.1-0.3,0.3-0.5,0.4c0,0,0,0,0,0c-0.4,0.4-0.7,0.6-1,0.8c-0.1,0.1-0.3,0.2-0.4,0.3
		c-1.2,0.9-2.8,1.8-4.7,2.7c-3.5,1.7-6.4,3.7-8.8,5.7c-0.4,0.4-4.7,4.5-5.9,8.4c-1,3.1-2.5,5.5-4.3,6.4c-0.5,0.3-1.2,0.5-1.8,0.5
		c-2,0-3.5-1.7-3.5-3.8c0-0.1,0-0.1,0-0.2l0,0c0.1-1.1,0.4-2.3,0.8-3.5l0,0c0,0,1.4-4.2-2.4-1.6c-0.5,0.4-1,0.8-1.5,1.2
		c-8.3,7.9-11.7,20.6-12.2,32.8c0,0.8,0,1.6,0,2.4c0.2,2.8,1,3.9,1.9,4.2c0.5,0.1,1.1-0.1,1.4-0.5c1.6-1.8,3.6-3.6,5.7-5.3
		c5.9-4.6,18.8-12.2,38.3-12.2c0.3,0,0.5,0,0.8,0l1.5,0l0,0v0l7.1,0.1c1.5,0,2.9,0.1,4.4,0.4c6.3,1.1,10.9,3.9,14,6.5
		c2.9,2.5,7.1,2.6,10,0.2c5-4.2,10.7-5.7,14.8-6.2c1.2-0.2,2.5-0.2,3.7-0.2l11.2,0.2c0.6,0,1.2,0,1.7,0l3.8,0.1
		c2,0.1,3.6,0.2,4.8,0.3c0.3,0,0.5,0,0.8,0.1c0.7,0.1,1.1,0.1,1.1,0.1c4.9,0.5,14.7,2.5,18.9,4.6c2.2,1.3,4.1,2.5,5.5,3.3
		c0.4,0.3,0.8,0.5,1.2,0.8c1.4,1.1,2.6,2.2,3.9,3.4c0.9,0.8,2.3,0.5,2.8-0.5c0.3-0.6,0.6-1.6,0.7-2.9
		C266.3,79.9,266,77.8,265.4,75.7z"/>
</g>
</svg>
