<?xml version="1.0" encoding="utf-8"?>
<!-- Generator: Adobe Illustrator 18.1.1, SVG Export Plug-In . SVG Version: 6.00 Build 0)  -->
<svg version="1.1" id="Шар_1" xmlns="http://www.w3.org/2000/svg" xmlns:xlink="http://www.w3.org/1999/xlink" x="0px" y="0px"
	 viewBox="135.9 141 26.5 19" enable-background="new 135.9 141 26.5 19" xml:space="preserve">
<path fill="#43C0EF" d="M152.9,151.9c0.8-0.8,1.2-1.9,1.2-3.1c0-2.6-2.1-4.7-4.7-4.7c-2.6,0-4.7,2.1-4.7,4.7c0,2.6,2.1,4.7,4.7,4.7
	c0.9,0,1.8-0.3,2.5-0.7c2.6,0.9,4.3,3.3,4.5,6h-14c0.2-1.8,1-3.5,2.4-4.8c0.2-0.2,0.3-0.6,0.1-0.8s-0.6-0.3-0.8-0.1
	c-1.8,1.6-2.8,3.8-2.8,6.2c0,0.4,0.2,0.6,0.6,0.6h15.3c0.4,0,0.6-0.2,0.6-0.6C157.6,156.1,155.7,153.2,152.9,151.9z M145.8,148.8
	c0-1.9,1.6-3.5,3.5-3.5c1.9,0,3.5,1.6,3.5,3.5c0,1.9-1.6,3.5-3.5,3.5C147.4,152.3,145.8,150.7,145.8,148.8z"/>
<path fill="#43C0EF" d="M157.8,148.9c0.8-0.8,1.2-1.9,1.2-3.1c0-2.6-2.1-4.7-4.7-4.7c-2.3,0-4.2,1.6-4.6,3.8c0.4,0,0.8,0.1,1.1,0.3
	c0.3-1.6,1.7-2.9,3.5-2.9c1.9,0,3.5,1.6,3.5,3.5c0,1.9-1.6,3.5-3.5,3.5c-0.4,0-0.8-0.1-1.2-0.2c0.1,0.4,0,0.8-0.1,1.2
	c0.4,0.1,0.8,0.2,1.3,0.2c0.9,0,1.8-0.3,2.5-0.7c2.5,0.9,4.3,3.3,4.5,6h-5.5c0.2,0.4,0.4,0.8,0.4,1.2h5.7c0.4,0,0.6-0.2,0.6-0.6
	C162.6,153.1,160.7,150.2,157.8,148.9z"/>
<g id="Livello_110">
	<g id="XMLID_6_">
		<g id="XMLID_7_">
			<path fill="#43C0EF" d="M138.9,148.7L138.9,148.7c-0.1,0-0.2-0.1-0.2-0.1l-2-2.9c-0.4-0.5-0.7-1.2-0.7-1.8c0-1.6,1.2-2.8,2.8-2.8
				s2.9,1.2,2.9,2.8c0,0.5-0.1,0.9-0.4,1.4c0,0,0,0,0,0.1c-0.1,0.2-0.1,0.2-0.2,0.4l-2.1,2.9C139,148.5,139,148.7,138.9,148.7z
				 M138.9,148.1l1.9-2.7c0.1-0.1,0.2-0.2,0.2-0.2l0,0l0,0c0.2-0.4,0.4-0.8,0.4-1.2c-0.1-1.4-1.2-2.4-2.5-2.4s-2.5,1-2.5,2.3
				c0,0.6,0.2,1.1,0.6,1.5l0.7,0.9 M137.7,146.4l1.2,1.6 M138.8,145.4c-0.8,0-1.5-0.6-1.5-1.5s0.6-1.5,1.5-1.5l0,0
				c0.8,0,1.5,0.6,1.5,1.5S139.6,145.4,138.8,145.4z M138.8,142.7c-0.6,0-1.1,0.5-1.1,1.2s0.5,1.1,1.1,1.1s1.1-0.5,1.1-1.1
				S139.5,142.7,138.8,142.7z"/>
			<path fill="#43C0EF" d="M138.9,148.7c-0.1,0-0.2-0.1-0.2-0.1l0,0l0,0l-2-2.9c-0.5-0.6-0.7-1.2-0.7-1.8c0-1.6,1.3-2.9,2.9-2.9
				c1.7,0,3,1.3,3,2.9c0,0.5-0.1,1-0.4,1.4v0l0,0c-0.1,0.2-0.1,0.3-0.3,0.4l-2.2,3L138.9,148.7C139,148.7,138.9,148.7,138.9,148.7z
				 M138.8,148.5C138.8,148.5,138.9,148.6,138.8,148.5c0.1,0,0.1,0,0.2,0c0,0,0,0,0,0l2.1-2.9c0.1-0.1,0.2-0.2,0.2-0.3v-0.1l0,0
				c0.3-0.4,0.3-0.8,0.3-1.3c0-1.5-1.2-2.7-2.8-2.7c-1.5,0-2.7,1.2-2.7,2.7c0,0.5,0.3,1.1,0.7,1.7L138.8,148.5z M139,148.1l-0.1-0.1
				l0,0l-1.2-1.6l-0.7-0.9c-0.4-0.4-0.6-0.9-0.6-1.6c0-1.3,1.1-2.4,2.6-2.4c1.3,0,2.5,1.1,2.6,2.5c0,0.4-0.1,0.9-0.4,1.2
				c0,0.1-0.1,0.1-0.2,0.3L139,148.1z M137.8,146.3l1.1,1.6l1.9-2.6c0.1-0.1,0.1-0.2,0.2-0.2v0l0,0c0.2-0.3,0.3-0.7,0.3-1.1
				c-0.1-1.3-1.1-2.3-2.4-2.3c-1.3,0-2.4,1-2.4,2.3c0,0.6,0.2,1.1,0.6,1.5l0,0L137.8,146.3L137.8,146.3L137.8,146.3z M138.8,145.5
				c-0.9,0-1.6-0.7-1.6-1.6c0-0.9,0.7-1.6,1.6-1.6c0.9,0,1.6,0.7,1.6,1.6C140.5,144.9,139.6,145.5,138.8,145.5z M138.8,142.5
				c-0.8,0-1.4,0.6-1.4,1.4c0,0.8,0.6,1.4,1.4,1.4c0.7,0,1.5-0.5,1.5-1.4C140.3,143.1,139.7,142.5,138.8,142.5z M138.8,145.1
				c-0.6,0-1.2-0.4-1.2-1.2c0-0.7,0.5-1.3,1.1-1.3c0.8,0,1.2,0.7,1.2,1.3C140,144.6,139.5,145.1,138.8,145.1z M138.8,142.8
				c-0.6,0-1,0.5-1,1.1c0,0.7,0.5,1,1,1c0.5,0,1-0.5,1-1C139.8,143.4,139.5,142.8,138.8,142.8z"/>
		</g>
	</g>
</g>
</svg>
