<?xml version="1.0" encoding="utf-8"?>
<!-- Generator: Adobe Illustrator 18.1.1, SVG Export Plug-In . SVG Version: 6.00 Build 0)  -->
<svg version="1.1" id="Шар_1" xmlns:sketch="http://www.bohemiancoding.com/sketch/ns"
	 xmlns="http://www.w3.org/2000/svg" xmlns:xlink="http://www.w3.org/1999/xlink" x="0px" y="0px" viewBox="28.1 22.1 30 30"
	 enable-background="new 28.1 22.1 30 30" xml:space="preserve">
<title></title>
<desc></desc>
<rect x="28.1" y="22.1" fill="#00C9F8" width="30" height="30"/>
<path fill="#FFFFFF" d="M50.5,34l-0.7,0.7l-4.2-4.2l0.7-0.7c0.8-0.8,2-0.8,2.8,0l1.4,1.4C51.3,31.9,51.3,33.2,50.5,34z M40.6,42.4
	c-0.2,0.2-0.2,0.5,0,0.7c0.2,0.2,0.5,0.2,0.7,0l7.8-7.8l-0.7-0.7L40.6,42.4z M37.1,38.9c-0.2,0.2-0.2,0.5,0,0.7
	c0.2,0.2,0.5,0.2,0.7,0l7.8-7.8l-0.7-0.7L37.1,38.9z M46.3,32.5l-7.8,7.8c-0.4,0.4-0.4,1,0,1.4c0.4,0.4,1,0.4,1.4,0l7.8-7.8
	L46.3,32.5z M39.9,43.9c-0.2-0.2-0.4-0.5-0.4-0.9c-0.1,0-0.2,0-0.3,0c-0.5,0-1-0.2-1.4-0.6c-0.4-0.4-0.6-0.9-0.6-1.4
	c0-0.1,0-0.2,0-0.3c-0.3,0-0.6-0.2-0.9-0.4c0,0,0-0.1-0.1-0.1l-1.2,4.9L39.9,43.9C40,43.9,40,43.9,39.9,43.9z"/>
</svg>
