<?xml version="1.0" encoding="iso-8859-1"?>
<!-- Generator: Adobe Illustrator 18.1.1, SVG Export Plug-In . SVG Version: 6.00 Build 0)  -->
<svg xmlns="http://www.w3.org/2000/svg" xmlns:xlink="http://www.w3.org/1999/xlink" version="1.1" id="Capa_1" x="0px" y="0px" viewBox="0 0 26 26" style="enable-background:new 0 0 26 26;" xml:space="preserve" width="512px" height="512px">
<g>
	<g>
		<g>
			<path d="M15,12.014v11.663l-3.258-1.304C11.359,22.221,11,21.674,11,21.431v-9.417H15 M15,10.014h-4     c-1.104,0-2,0.896-2,2v9.417c0,1.104,0.896,2.358,2,2.8l4,1.601c0.262,0.104,0.513,0.154,0.742,0.154     c0.737,0,1.258-0.513,1.258-1.354V12.014C17,10.91,16.104,10.014,15,10.014L15,10.014z" fill="#FFFFFF"/>
		</g>
	</g>
	<g>
		<path d="M23.31,2.014l-7.2,8H9.891l-7.2-8H23.31 M24,0.014H2c-1.104,0-2,0.896-2,2l9,10h8l9-10    C26,0.91,25.104,0.014,24,0.014L24,0.014z" fill="#FFFFFF"/>
	</g>
</g>
<g>
</g>
<g>
</g>
<g>
</g>
<g>
</g>
<g>
</g>
<g>
</g>
<g>
</g>
<g>
</g>
<g>
</g>
<g>
</g>
<g>
</g>
<g>
</g>
<g>
</g>
<g>
</g>
<g>
</g>
</svg>
