<?xml version="1.0" encoding="utf-8"?>
<!-- Generator: Adobe Illustrator 18.1.1, SVG Export Plug-In . SVG Version: 6.00 Build 0)  -->
<svg version="1.1" id="Шар_1" xmlns="http://www.w3.org/2000/svg" xmlns:xlink="http://www.w3.org/1999/xlink" x="0px" y="0px"
	 viewBox="136.3 220.9 34.9 34.2" enable-background="new 136.3 220.9 34.9 34.2" xml:space="preserve">
<g id="Stick">
	<g>
		<path fill="#808080" d="M152.7,222v27.8c0,2.9,2.3,5.3,5.1,5.3c2.8,0,5.1-2.4,5.1-5.3c0-0.6-0.5-1.1-1-1.1s-1,0.5-1,1.1
			c0,1.8-1.4,3.2-3.1,3.2c-1.7,0-3.1-1.4-3.1-3.2V222c0-0.6-0.5-1.1-1-1.1C153.2,220.9,152.7,221.4,152.7,222z"/>
	</g>
</g>
<g id="Umbrella">
	<g>
		<g>
			<path fill="#00CFFF" d="M165,238.9c2.8,0,4.8,0.3,5.1,2c-1.2-9.2-7.3-15.2-16.3-15.2c-9,0-16.3,7.3-16.3,16.3
				c0-1.7,2.3-3.1,5.1-3.1c2.8,0,5.1,1.4,5.1,3.1c0-1.7,2.7-3.1,6.1-3.1c3.4,0,6.1,1.4,6.1,3.1C159.9,240.2,162.2,238.9,165,238.9z"
				/>
			<path fill="#414042" d="M171.2,243.1c0,0-1.2-3-6.2-3c-3.8,0-5.1,3.5-5.1,3.5s-1.5-3.3-6-3.3c-4.3,0-6.2,3.3-6.2,3.3
				s-0.9-3.5-5.1-3.5c-4.1,0-6.2,3-6.2,3c0-9.6,7.8-18.6,17.5-18.6C163.4,224.5,171.2,233.4,171.2,243.1z M142.6,237.7
				c2.2,0,4,0.7,5.2,1.8c1.3-1.1,3.5-1.8,6-1.8s4.8,0.7,6,1.8c1.1-1.1,3-1.8,5.2-1.8c1.3,0,2.5,0.3,3.5,0.7
				c-1.6-6.7-7.6-11.7-14.8-11.7c-7.2,0-13.2,5-14.8,11.7C140,238,141.2,237.7,142.6,237.7z"/>
		</g>
	</g>
</g>
<g id="Umbrella_1_">
	<g>
		<g>
			<path fill="#2980BA" d="M153.8,238.1c3.4,0,6.1,1,6.1,2.7c0-9-2.7-15.2-6.1-15.2c-3.4,0-6.1,6.2-6.1,15.2
				C147.7,239.1,150.4,238.1,153.8,238.1z"/>
			<path fill="#414042" d="M161.3,241l-2.5,0.2c0-0.6-1.7-1.6-5-1.6c-3.3,0-5,1-5,1.6h-2.3c0-9.6,3-16.4,7.3-16.4
				C158,224.8,161.3,231.4,161.3,241z M153.9,238.7c2,0,3.8,0.4,5,0.9c-0.5-7.5-3.1-12.5-5.2-12.5c-2.1,0-4.3,4.2-5,12.1
				C150,238.7,152,238.7,153.9,238.7z"/>
		</g>
	</g>
</g>
</svg>
