<?xml version="1.0" encoding="utf-8"?>
<!-- Generator: Adobe Illustrator 18.1.1, SVG Export Plug-In . SVG Version: 6.00 Build 0)  -->
<svg version="1.1" id="Шар_1" xmlns="http://www.w3.org/2000/svg" xmlns:xlink="http://www.w3.org/1999/xlink" x="0px" y="0px"
	 viewBox="-1.3 -1.6 62 64" enable-background="new -1.3 -1.6 62 64" xml:space="preserve">
<path fill="#43C0EF" d="M1.5,28.9c-1.5-4.8,3.8-13.4,6-13.9v4.3c0,0,0.3,0.3,0.3,0C9,17.9,15.8,9,19.4,8.8c1,0-0.5,4.3,0,4.3l0,0
	c2,0,5.5-10.1,13.4-8.6c2.8,0.5,5.3-4.5,5-6c0,0,8.3,1.8,7.6,17.9c0,1,3,4.3,3.5-1c0.5-4,10.8,9.6,8.8,13.4c0,0.3-4.3-3.3-12.3-4.3
	c-8.8-1-15.6,4.3-15.6,4.3s-7.6-5.3-14.6-4.5C6.3,25.2,1.5,28.9,1.5,28.9z"/>
<g>
	<g>
		<path fill="#FFFFFF" d="M29.7,36.5c-4.3-5.8-10.8-6.8-15.4-6.6C5.8,30.2-1.3,37-1.3,46.6c0,8.6,7.1,15.9,15.6,15.9
			c6,0,11.6-4.8,14.1-8.3h3.8 M14.3,56.4c-5.8,0-10.3-4-10.3-9.8s4.8-10.3,10.3-10.3s9.6,4.3,9.6,10.1S20.1,56.4,14.3,56.4z"/>
	</g>
</g>
<g>
	<path fill="#FFFFFF" d="M7,47.6c-0.8,0-1.3-0.5-1.3-1.3c0-6.3,6-8.6,8.1-8.6c0.8,0,1.3,0.5,1.3,1.3c0,0.8-0.5,1.3-1.3,1.3
		s-5.5,1-5.5,6C8.3,46.8,7.8,47.6,7,47.6z"/>
</g>
<g>
	<path fill="#FFFFFF" d="M40,47.1c-0.8,0-1.3-0.5-1.3-1.3c0-6.3,6-8.6,8.1-8.6c0.8,0,1.3,0.5,1.3,1.3c0,0.8-0.5,1.3-1.3,1.3
		c-0.8,0-5.5,1-5.5,6C41.3,46.6,40.5,47.1,40,47.1z"/>
</g>
<g>
	<g>
		<path fill="#FFFFFF" d="M27.2,54.1H31c2.3,3.5,7.8,8.3,14.1,8.3c8.6,0,15.6-7.3,15.6-15.9c0-9.6-7.1-16.4-15.6-16.6
			c-4.5-0.3-9.8,0-15.4,6.6 M35.2,46.1c0-5.8,3.8-10.1,9.6-10.1s10.3,4.8,10.3,10.3s-4.8,9.8-10.3,9.8S35.2,51.9,35.2,46.1z"/>
	</g>
</g>
</svg>
