<?xml version="1.0" encoding="iso-8859-1"?>
<!-- Generator: Adobe Illustrator 16.0.0, SVG Export Plug-In . SVG Version: 6.00 Build 0)  -->
<!DOCTYPE svg PUBLIC "-//W3C//DTD SVG 1.1//EN" "http://www.w3.org/Graphics/SVG/1.1/DTD/svg11.dtd">
<svg xmlns="http://www.w3.org/2000/svg" xmlns:xlink="http://www.w3.org/1999/xlink" version="1.1" id="Capa_1" x="0px" y="0px" width="512px" height="512px" viewBox="0 0 59 59" style="enable-background:new 0 0 59 59;" xml:space="preserve">
<g>
	<g>
		<g>
			<path d="M29.5,17c-4.688,0-8.5-3.813-8.5-8.5S24.813,0,29.5,0C34.188,0,38,3.813,38,8.5S34.188,17,29.5,17z M29.5,4     C27.019,4,25,6.019,25,8.5s2.019,4.5,4.5,4.5c2.48,0,4.5-2.019,4.5-4.5S31.98,4,29.5,4z" fill="#FFFFFF"/>
		</g>
		<g>
			<path d="M29.5,38c-4.688,0-8.5-3.812-8.5-8.5c0-4.687,3.813-8.5,8.5-8.5c4.688,0,8.5,3.813,8.5,8.5C38,34.188,34.188,38,29.5,38z      M29.5,25c-2.481,0-4.5,2.019-4.5,4.5c0,2.48,2.019,4.5,4.5,4.5c2.48,0,4.5-2.02,4.5-4.5C34,27.019,31.98,25,29.5,25z" fill="#FFFFFF"/>
		</g>
		<g>
			<path d="M29.5,59c-4.688,0-8.5-3.812-8.5-8.5s3.813-8.5,8.5-8.5c4.688,0,8.5,3.812,8.5,8.5S34.188,59,29.5,59z M29.5,46     c-2.481,0-4.5,2.02-4.5,4.5s2.019,4.5,4.5,4.5c2.48,0,4.5-2.02,4.5-4.5S31.98,46,29.5,46z" fill="#FFFFFF"/>
		</g>
	</g>
</g>
<g>
</g>
<g>
</g>
<g>
</g>
<g>
</g>
<g>
</g>
<g>
</g>
<g>
</g>
<g>
</g>
<g>
</g>
<g>
</g>
<g>
</g>
<g>
</g>
<g>
</g>
<g>
</g>
<g>
</g>
</svg>
