<?xml version="1.0" encoding="utf-8"?>
<!-- Generator: Adobe Illustrator 18.1.1, SVG Export Plug-In . SVG Version: 6.00 Build 0)  -->
<svg version="1.1" id="Шар_1" xmlns="http://www.w3.org/2000/svg" xmlns:xlink="http://www.w3.org/1999/xlink" x="0px" y="0px"
	 viewBox="0 0 110 140.5" enable-background="new 0 0 110 140.5" xml:space="preserve">
<g>
	<path fill="#414042" d="M82.7,64.1L68.6,75.8L55,64L40.6,75.9L25.6,64L9.5,78.1v52.7l16.4-9.7l14.9,8.1l14.1-9.6l13.4,9.6l15-8.2
		l17.1,9.6V78.1L82.7,64.1z"/>
</g>
<g>
	<polygon fill="#43C0EF" points="23,73.4 23,116.7 14.9,121.5 14.9,80.6 	"/>
</g>
<path fill="#414042" d="M62.3,56.7H42.7c-6.4,0-12.6,0.7-15.7,5.8L40.5,73L55,61.3l13.6,11.9c0.1,0,10.6-8.6,10.6-8.6
	C76.7,57.9,69.7,56.7,62.3,56.7z"/>
<g>
	<polygon fill="#2980BA" points="38,80.7 38,121.7 28.4,116.4 28.4,73.1 	"/>
</g>
<g>
	<polygon fill="#43C0EF" points="80,73.3 80,116.9 71.2,121.7 71.2,80.6 	"/>
</g>
<g>
	<polygon fill="#2980BA" points="95.1,80.7 95.1,121.6 85.4,116.2 85.4,73 	"/>
</g>
<g>
	<polygon fill="#43C0EF" points="52.3,73.2 52.3,115.1 43.3,121.2 43.3,80.6 	"/>
</g>
<g>
	<polygon fill="#2980BA" points="65.9,80.6 65.9,121 57.7,115.1 57.7,73.4 	"/>
</g>
<g>
	<path fill="#EE4633" d="M52.4,1.8c-12,0-21.8,7.5-21.8,18.3l-12.1,6h68.2l-12.4-6C74.2,9.3,64.4,1.8,52.4,1.8z"/>
	<path fill="#414042" d="M94.3,27.8H10.9L28.8,19C29.5,8.1,39.4,0,52.4,0c13,0,22.9,8.1,23.6,19L94.3,27.8z M26,24.3h52.9l-6.5-3.1
		v-1.1c0-9.4-8.6-16.5-20.1-16.5c-11.4,0-20,7.1-20,16.5v1.1L26,24.3z"/>
</g>
<path fill="#414042" d="M74.1,30c0,12.9-9.6,23.4-21.5,23.4S31,42.9,31,30"/>
<polygon fill="#414042" points="26.2,124.3 26.2,140.5 79.6,140.5 79.6,125.9 68.7,132.1 55,122.4 41.2,132.1 "/>
<g>
	<path fill="#414042" d="M99.1,117.6c-2.6,0-5.5-1.4-15.2-9.4c-6-5-11.1-10.1-11.3-10.3c-1.3-1.4-1.7-5-0.7-6.8
		c1-1.8,3.3-2.2,4.7-0.8c0.1,0.1,5.3,5.3,11.2,10.2c9.3,7.7,12.5,7.8,13.5,6.3c1-1.6,0.2-3.5-2.7-5.8c-1.4-1.1,0.7-10.8,1.6-9.1
		c1,2.1,14,13.5,8.5,23.8C106,120.5,99.6,117.6,99.1,117.6z"/>
</g>
<g>
	<path fill="#414042" d="M10.9,117.6c2.6,0,5.5-1.4,15.2-9.4c6-5,11.1-10.1,11.3-10.3c1.3-1.4,1.7-5,0.7-6.8c-1-1.8-3.3-2.2-4.7-0.8
		c-0.1,0.1-5.3,5.3-11.2,10.2c-9.3,7.7-12.5,7.8-13.5,6.3c-1-1.6-0.2-3.5,2.7-5.8c1.4-1.1-0.7-10.8-1.6-9.1c-1,2.1-14,11.7-8.5,22
		C4,118.7,10.4,117.6,10.9,117.6z"/>
</g>
</svg>
