<?xml version="1.0" encoding="utf-8"?>
<!-- Generator: Adobe Illustrator 18.1.1, SVG Export Plug-In . SVG Version: 6.00 Build 0)  -->
<svg version="1.1" id="Шар_1" xmlns="http://www.w3.org/2000/svg" xmlns:xlink="http://www.w3.org/1999/xlink" x="0px" y="0px"
	 viewBox="0 0 130 118.6" enable-background="new 0 0 130 118.6" xml:space="preserve">
<g>
	<path fill-rule="evenodd" clip-rule="evenodd" fill="#414042" d="M75.6,21.6c-0.2,3.5-0.3,6.9,1.2,10.2c-1.6,1.3-3.2,2.7-4.9,4.1
		c-2-2.5-3.1-5.2-2.5-8.6c-17.4,0.3-34.7,0.5-52.2,0.8c0.1,1.7,0.2,3.3,0.4,4.9c0.8,7.8,2.2,15.5,4.6,23.1c1.1,3.4,2.4,6.8,3.7,10.1
		c3.5,8.4,8.2,16,14.9,22.2c2.3,2.1,4.9,3.9,7.3,5.8c0.3,0.2,0.8,0.3,1.1,0.2c15.8-4.8,31.6-9.6,47.4-14.5c0,0,0.1,0,0.2-0.1
		c-3-3.2-5.9-6.5-8.9-9.8c1.2-1.1,2.4-2.2,3.7-3.3c6.1,5,12.2,10,18.4,15.1c-0.3,0.1-0.5,0.2-0.7,0.3C88.6,89,68,95.8,47.5,102.6
		c-0.7,0.2-1.1,0.1-1.6-0.3c-11.4-9.8-20.3-21.6-26.7-35.2c-2.2-4.6-3.9-9.3-5.3-14.2c-2.7-9.8-3.7-19.9-2.9-30
		c0-0.4,0.1-0.8,0.1-1.3C32.5,21.6,54,21.6,75.6,21.6z"/>
	<path fill="#414042" d="M46.8,103c-0.4,0-0.8-0.1-1.2-0.5c-11.3-9.7-20.3-21.6-26.8-35.3c-2.2-4.7-4-9.5-5.3-14.2
		c-2.7-10-3.7-20.1-2.9-30.1c0-0.3,0.1-0.5,0.1-0.8l0.1-0.7h65l0,0.3c-0.2,3.5-0.3,6.8,1.2,10l0.1,0.2l-5.3,4.4L71.7,36
		c-2.3-2.9-3.1-5.5-2.6-8.5l-51.6,0.8c0,0.4,0.1,0.9,0.1,1.3c0.1,1.1,0.1,2.2,0.3,3.3c0.8,8,2.3,15.8,4.6,23
		c1.1,3.6,2.5,7.1,3.7,10.1c3.7,9,8.6,16.3,14.8,22.1c1.7,1.6,3.5,2.9,5.3,4.3c0.7,0.5,1.3,1,2,1.5c0.2,0.2,0.6,0.3,0.9,0.2
		c14.8-4.5,29.8-9.1,44.3-13.5l3-0.9l-8.9-9.7l4.1-3.6L110.4,82l-0.4,0.2c-0.1,0-0.2,0.1-0.3,0.1c-0.2,0.1-0.3,0.1-0.5,0.2
		l-13.8,4.5c-16,5.3-31.9,10.5-47.9,15.8C47.3,102.9,47,103,46.8,103z M11.3,21.9l0,0.2c0,0.3-0.1,0.5-0.1,0.8
		c-0.7,9.9,0.2,20,2.9,29.9c1.3,4.7,3,9.5,5.2,14.1c6.5,13.6,15.4,25.4,26.7,35.1c0.5,0.4,0.8,0.5,1.4,0.3
		c16-5.3,31.9-10.5,47.9-15.8L109,82c0.1,0,0.2-0.1,0.3-0.1L91.5,67.2l-3.3,3l9,9.8l-0.4,0.2c0,0-0.1,0-0.1,0.1l-3.1,1
		C79,85.7,64,90.2,49.2,94.7c-0.4,0.1-1,0-1.3-0.3c-0.7-0.5-1.3-1-2-1.5c-1.8-1.4-3.7-2.8-5.4-4.3c-6.3-5.9-11.2-13.2-14.9-22.3
		c-1.2-3-2.6-6.5-3.8-10.2c-2.2-7.3-3.8-15-4.6-23.1c-0.1-1.1-0.2-2.2-0.3-3.3c0-0.5-0.1-1.1-0.1-1.6l0-0.3L69.7,27l-0.1,0.3
		c-0.5,2.9,0.2,5.4,2.3,8.2l4.5-3.8c-1.4-3.2-1.4-6.5-1.2-9.8H11.3z"/>
</g>
<g>
	<path fill-rule="evenodd" clip-rule="evenodd" fill="#EE4633" d="M0,37.1c1.5-0.1,3-0.3,4.4-0.4c0.3,2.1,0.5,4,0.9,6
		c0.9,4.6,1.9,9.2,3,13.8c0.8,3,1.9,5.9,2.9,8.8c4.4,12.2,10.7,23.3,19.4,33c3.5,3.9,7.4,7.4,11.5,10.6c0.6,0.4,1.1,0.5,1.7,0.3
		c18.6-5.4,37.2-10.8,55.8-16.3c0.6-0.2,1-0.1,1.5,0.2c1.3,0.9,2.7,1.8,4.2,2.8c-1.9,0.7-3.6,1.3-5.4,2
		c-18.9,6.8-37.9,13.7-56.8,20.5c-0.9,0.3-1.4,0.2-2.2-0.4c-9.5-7.8-17.4-16.9-24.1-27.1C9.7,79.7,4.6,67.5,1.9,54.4
		C0.8,48.9,0.2,43.3,0,37.6C0,37.5,0,37.3,0,37.1z"/>
</g>
<g>
	<g>
		<path fill="#414042" d="M130,22.3l-0.7,2.4c-0.1,0.2-0.1,0.4-0.1,0.7c-0.2,0.9-0.4,2.2-1.4,3c-1.5,1.2-3.1,2.3-4.7,3.3
			c-0.5,0.3-1,0.7-1.6,1c-1.3,0.9-2.6,1.7-4,2.6l-2.8,1.9l-1.5-1.3c-2.8,3.3-4.6,6.9-5.2,10.9c-0.7,4.3-1,8.7-1.2,13
			c0,0.7-0.1,1.4-0.1,2.2c-0.1,1.3-0.2,3.8-3.6,4.5c-18.3,4.1-36.3,10.3-52.2,15.7c-0.8,0.3-1.5,0.5-2.4,0.7
			c-0.4,0.1-0.9,0.3-1.4,0.4l-3.8,1.2l1.3-3.8c0.5-1.5,1-3.1,1.5-4.5c1.1-3.2,2.1-6.2,3-9.2c4.3-14.4,8.5-28.7,12.4-42.5
			c0.6-2.2,1.9-3.2,4.2-3.2h0.1c0.6,0,1.3,0,1.9,0c6.6,0,12-0.4,17.2-2.6c2.1-0.9,4.1-2.1,6.2-3.4c0.3-0.2,0.6-0.4,0.9-0.6l-1.6-1.9
			l1.1-1.3c0.7-0.8,1.3-1.7,2-2.5c2-2.5,4-5,6.1-7.5c0.9-1,2.2-1.1,3.2-1.1c0.3,0,0.5,0,0.7,0l2.3-0.3l0.1,2.3
			c0,0.2,0.1,0.4,0.1,0.7c0.2,0.9,0.4,2.2-0.4,3.3c-1.3,1.9-2.8,3.8-4.3,5.5c-0.1,0.2-0.3,0.3-0.4,0.5l14.8,14.8l6.1-4
			c0.1-0.1,0.2-0.1,0.3-0.2c0.5-0.4,1.2-1,2.1-1c0.9-0.1,1.7,0,2.5,0.1c0.3,0,0.5,0.1,0.8,0.1L130,22.3z"/>
	</g>
</g>
<g>
	<path fill-rule="evenodd" clip-rule="evenodd" fill="#43C0EF" d="M97.4,17.5c4.4,4.4,8.5,8.6,12.6,12.7c-1.8,2.8-3.8,5.4-5.3,8.4
		c-3.2,6.3-3.8,13.2-3.8,20.1c0,1.9-0.6,2.5-2.4,3C86.4,65,74.2,68.7,62,72.3c-1.6,0.5-3.1,1-5,1.2c2-2,4-4,6-6
		c5.7-5.7,11.4-11.4,17.1-17.1c1-1,1.9-1.3,3.4-0.9c2.8,0.8,5.8-0.7,7.2-3.2c1.5-2.8,1-6.1-1.2-8.2c-2.1-2-5.6-2.3-8.1-0.9
		c-2.6,1.6-3.8,4.6-3,7.5c0.3,1,0.7,1.7-0.3,2.7c-7.8,7.6-15.4,15.4-23.1,23.1c-0.1,0.1-0.3,0.2-0.9,0.7c0.3-1.1,0.5-1.8,0.7-2.4
		c4-13.5,8-26.9,11.9-40.4c0.4-1.3,1-1.3,2-1.4c4.3-0.3,8.6-0.4,12.8-1.1C87.4,24.6,92.8,21.9,97.4,17.5z"/>
</g>
</svg>
