<?xml version="1.0" encoding="utf-8"?>
<!-- Generator: Adobe Illustrator 18.1.1, SVG Export Plug-In . SVG Version: 6.00 Build 0)  -->
<svg version="1.1" id="Шар_1" xmlns="http://www.w3.org/2000/svg" xmlns:xlink="http://www.w3.org/1999/xlink" x="0px" y="0px"
	 viewBox="0 0 130 98.9" enable-background="new 0 0 130 98.9" xml:space="preserve">
<path fill="#00CEFF" stroke="#414042" stroke-width="16" stroke-miterlimit="10" d="M54.6,0"/>
<g>
	<path fill="#43C0EF" d="M93.8,86.7L4.7,88.6c0,0-12.2-55.9,50.1-78.5L93.8,86.7z"/>
</g>
<g>
	<path fill="#414042" d="M1.7,92.4l-0.7-3c-0.1-0.6-3.2-15.1,1.7-32.6c4.6-16.2,17.1-38,50.8-50.2l3.1-1.1l43.2,84.8L1.7,92.4z
		 M53,14.8c-22.9,9.1-37.4,23.9-43,44.1c-3.2,11.3-2.6,21.2-2.1,26l79.9-1.7L53,14.8z"/>
</g>
<g>
	<circle fill="#FFFFFF" cx="23.7" cy="71.2" r="6.4"/>
	<path fill="#414042" d="M23.7,79.5c-1.6,0-3.1-0.4-4.4-1.3c-3.8-2.5-5-7.6-2.5-11.4c1.5-2.4,4.1-3.8,7-3.8c1.6,0,3.1,0.4,4.4,1.3
		c3.8,2.5,5,7.6,2.5,11.4C29.1,78,26.5,79.5,23.7,79.5z M23.7,66.7c-1.6,0-3,0.8-3.8,2.1c-1.3,2.1-0.7,4.9,1.4,6.3
		c0.7,0.5,1.6,0.7,2.4,0.7c1.6,0,3-0.8,3.8-2.1c1.3-2.1,0.7-4.9-1.4-6.3C25.4,66.9,24.6,66.7,23.7,66.7z"/>
</g>
<g>
	<circle fill="#FFFFFF" cx="27.6" cy="46.9" r="8.2"/>
	<path fill="#414042" d="M27.6,56.9c-1.9,0-3.8-0.5-5.4-1.6c-4.7-3-6-9.2-3.1-13.9c1.9-2.9,5-4.6,8.5-4.6c1.9,0,3.8,0.5,5.4,1.6
		c4.7,3,6,9.2,3.1,13.9C34.2,55.2,31,56.9,27.6,56.9z M27.6,40.6c-2.2,0-4.2,1.1-5.3,2.9c-1.9,2.9-1,6.8,1.9,8.7c1,0.6,2.2,1,3.4,1
		c2.2,0,4.2-1.1,5.3-2.9c1.9-2.9,1-6.8-1.9-8.7C30,40.9,28.8,40.6,27.6,40.6z"/>
</g>
<g>
	<circle fill="#FFFFFF" cx="56" cy="66.1" r="11.4"/>
	<path fill="#414042" d="M56,79.4c-2.5,0-5-0.7-7.1-2.1c-6.2-3.9-8-12.1-4-18.3c2.4-3.8,6.6-6.1,11.2-6.1c2.5,0,5,0.7,7.1,2.1
		c3,1.9,5,4.9,5.8,8.3c0.8,3.5,0.1,7-1.8,10C64.8,77.1,60.6,79.4,56,79.4z M56,56.6c-3.3,0-6.3,1.6-8,4.4
		c-2.8,4.4-1.5,10.3,2.9,13.1c1.5,1,3.3,1.5,5.1,1.5c3.3,0,6.3-1.6,8-4.4c1.4-2.1,1.8-4.7,1.3-7.2c-0.5-2.5-2-4.6-4.2-6
		C59.6,57.1,57.9,56.6,56,56.6z"/>
</g>
<g>
	<circle fill="#FFFFFF" cx="47.1" cy="30.8" r="6.4"/>
	<path fill="#414042" d="M47.1,39.1c-1.6,0-3.1-0.4-4.4-1.3c-1.9-1.2-3.1-3-3.6-5.2c-0.5-2.2-0.1-4.4,1.1-6.2c1.5-2.4,4.1-3.8,7-3.8
		c1.6,0,3.1,0.4,4.4,1.3c3.8,2.5,5,7.6,2.5,11.4C52.5,37.7,49.9,39.1,47.1,39.1z M47.1,26.3c-1.6,0-3,0.8-3.8,2.1
		c-0.7,1-0.9,2.2-0.6,3.4c0.3,1.2,1,2.2,2,2.8c0.7,0.5,1.6,0.7,2.4,0.7c1.6,0,3-0.8,3.8-2.1c1.3-2.1,0.7-4.9-1.4-6.3
		C48.8,26.5,47.9,26.3,47.1,26.3z"/>
</g>
<g>
	
		<rect x="50.1" y="46.6" transform="matrix(0.9452 0.3265 -0.3265 0.9452 23.5255 -25.9834)" fill="#FFFFFF" width="78.2" height="21"/>
</g>
<g>
	<path fill="#EE4633" d="M84.1,93.3c18.1,6.3,36.5,0.8,41-12.2L59.5,58.3C54.9,71.4,66,87.1,84.1,93.3z"/>
</g>
<g>
	<path fill="#414042" d="M83.1,96.1c-19.6-6.8-31.5-24.2-26.4-38.8l1-2.8l71.2,24.7l-1,2.8C122.8,96.6,102.7,102.9,83.1,96.1z
		 M61.5,62.1C60,73,69.8,85.3,85,90.6c15.2,5.3,30.6,1.8,36.1-7.8L61.5,62.1z"/>
</g>
<g>
	<path fill="#EE4633" d="M98.7,23.5c-18.1-6.3-36.5-0.8-41,12.2l65.6,22.8C127.9,45.4,116.9,29.7,98.7,23.5z"/>
</g>
<g>
	<path fill="#414042" d="M125.1,62.2L54,37.5l1-2.8C60,20.2,80.1,13.9,99.7,20.7s31.5,24.2,26.4,38.8L125.1,62.2z M61.7,34
		l59.6,20.7c1.6-10.9-8.3-23.1-23.5-28.4S67.2,24.5,61.7,34z"/>
</g>
<g>
	
		<rect x="52.2" y="53.8" transform="matrix(0.9447 0.3279 -0.3279 0.9447 24.1759 -26.7542)" fill="#414042" width="78.5" height="9"/>
</g>
<g>
	<g>
		<path fill="#FFFFFF" d="M55.7,42.6c3.3,1.4,2.6,6.1,4.4,8.7c1.8,2.6,6.3,4.1,9.3,3.5c4.5-0.9,7.5-4.5,12.4-3.1
			c4.5,1.2,5.1,5.5,7.2,9c1.4,2.4,4.9,4,7.7,3.4c1.6-0.3,2.9-1.1,4.3-1.9c2.5-1.4,4.8-1.7,7.6-1c2.5,0.7,4,2.6,5.6,4.6
			c1.5,1.9,1.8,4,3,6c2,3.6,7.2,1.3,10.1,1.1c1.4-0.1,1.4-2.3,0-2.1c-2,0.2-4,0.9-6,0.9c-2.9,0-2.8-3.2-3.9-5.2
			c-1.9-3.5-5-6.6-8.9-7.6c-3.6-0.9-6.5,0.3-9.6,2.1c-2.3,1.3-4.3,1.3-6.6,0c-1.8-1.1-2.4-3.6-3.2-5.3c-1.3-3-3.5-5-6.6-6
			c-3.9-1.3-6.8,0.3-10.3,2.1c-4.4,2.2-10.1,0.7-11.4-4.3c-0.8-3-1.3-5.5-4.4-6.8C55,40,54.4,42,55.7,42.6L55.7,42.6z"/>
	</g>
</g>
</svg>
