<?xml version="1.0"?>
<!--Icons from directory ""-->
<svg xmlns="http://www.w3.org/2000/svg" width="37" height="518" viewBox="0 0 37 518"><svg xmlns:xlink="http://www.w3.org/1999/xlink" id="Friend_Icon" xml:space="preserve" viewBox="-10 -10 65.3 52.3" version="1.1" y="0" x="0px" enable-background="new 0 0 45.3 32.3" width="37" height="37"><path d="m28.8 18.7c1.3-1.4 2.1-3.3 2.1-5.3 0-4.4-3.6-8-8-8s-8 3.6-8 8 3.6 8 8 8c1.6 0 3-0.5 4.2-1.2 4.4 1.6 7.3 5.6 7.7 10.2h-23.9c0.3-3.1 1.7-6 4.1-8.1 0.4-0.4 0.5-1 0.1-1.4s-1-0.5-1.4-0.1c-3.1 2.7-4.8 6.5-4.8 10.6 0 0.6 0.4 1 1 1h26c0.6 0 1-0.4 1-1-0.1-5.6-3.3-10.5-8.1-12.7zm-12-5.4c0-3.3 2.7-6 6-6s6 2.7 6 6-2.7 6-6 6-6-2.7-6-6z" fill="#889197"/><path d="m37.2 13.5c1.3-1.4 2.1-3.3 2.1-5.3 0-4.4-3.6-8-8-8-3.9 0-7.2 2.8-7.9 6.5 0.7 0 1.4 0.2 1.9 0.5 0.5-2.8 2.9-5 5.9-5 3.3 0 6 2.7 6 6s-2.7 6-6 6c-0.7 0-1.4-0.1-2-0.4 0.1 0.7 0 1.4-0.2 2 0.7 0.2 1.4 0.3 2.2 0.3 1.6 0 3-0.5 4.2-1.2 4.3 1.6 7.3 5.6 7.7 10.2h-9.4c0.4 0.6 0.6 1.3 0.7 2h9.7c0.6 0 1-0.4 1-1 0.2-5.5-3-10.4-7.9-12.6z" fill="#889197"/><g id="Friend_Icon-Livello_110">	<g id="Friend_Icon-XMLID_6_">		<path id="Friend_Icon-XMLID_7_" d="m5 13.1c-0.1 0-0.3-0.1-0.3-0.1l-3.4-5c-0.7-0.9-1.2-2-1.2-3 0-2.7 2.1-4.8 4.8-4.8s4.9 2.1 4.9 4.8c0 0.9-0.1 1.6-0.6 2.3v0.1c-0.1 0.3-0.2 0.4-0.4 0.6l-3.6 5c-0.1-0.1-0.1 0.1-0.2 0.1zm0-1l3.3-4.6c0.1-0.1 0.3-0.3 0.3-0.4 0.4-0.6 0.6-1.3 0.6-2-0.1-2.3-2-4.1-4.2-4.1s-4.2 1.7-4.2 4c0 1 0.3 1.9 1 2.6l1.2 1.6 2 2.8m-0.2-4.5c-1.4 0-2.5-1.1-2.5-2.5s1.1-2.6 2.6-2.6c1.4 0 2.6 1.1 2.6 2.6s-1.3 2.5-2.7 2.5zm0-4.5c-1 0-1.8 0.8-1.8 2s0.9 1.9 1.9 1.9 1.8-0.9 1.8-1.9-0.7-2-1.9-2z" stroke="#889197" stroke-miterlimit="10" stroke-width=".25" fill="#889197"/>	</g></g></svg><svg xmlns:xlink="http://www.w3.org/1999/xlink" id="Friend_Icon_hover" xml:space="preserve" viewBox="-10 -10 65.3 52.3" version="1.1" y="37" x="0px" enable-background="new 0 0 45.3 32.3" width="37" height="37"><path d="m28.8 18.7c1.3-1.4 2.1-3.3 2.1-5.3 0-4.4-3.6-8-8-8s-8 3.6-8 8 3.6 8 8 8c1.6 0 3-0.5 4.2-1.2 4.4 1.6 7.3 5.6 7.7 10.2h-23.9c0.3-3.1 1.7-6 4.1-8.1 0.4-0.4 0.5-1 0.1-1.4s-1-0.5-1.4-0.1c-3.1 2.7-4.8 6.5-4.8 10.6 0 0.6 0.4 1 1 1h26c0.6 0 1-0.4 1-1-0.1-5.6-3.3-10.5-8.1-12.7zm-12-5.4c0-3.3 2.7-6 6-6s6 2.7 6 6-2.7 6-6 6-6-2.7-6-6z" fill="#287FB9"/><path d="m37.2 13.5c1.3-1.4 2.1-3.3 2.1-5.3 0-4.4-3.6-8-8-8-3.9 0-7.2 2.8-7.9 6.5 0.7 0 1.4 0.2 1.9 0.5 0.5-2.8 2.9-5 5.9-5 3.3 0 6 2.7 6 6s-2.7 6-6 6c-0.7 0-1.4-0.1-2-0.4 0.1 0.7 0 1.4-0.2 2 0.7 0.2 1.4 0.3 2.2 0.3 1.6 0 3-0.5 4.2-1.2 4.3 1.6 7.3 5.6 7.7 10.2h-9.4c0.4 0.6 0.6 1.3 0.7 2h9.7c0.6 0 1-0.4 1-1 0.2-5.5-3-10.4-7.9-12.6z" fill="#287FB9"/><g id="Friend_Icon_hover-Livello_110">	<g id="Friend_Icon_hover-XMLID_6_">		<path id="Friend_Icon_hover-XMLID_7_" d="m5 13.1c-0.1 0-0.3-0.1-0.3-0.1l-3.4-5c-0.7-0.9-1.2-2-1.2-3 0-2.7 2.1-4.8 4.8-4.8s4.9 2.1 4.9 4.8c0 0.9-0.1 1.6-0.6 2.3v0.1c-0.1 0.3-0.2 0.4-0.4 0.6l-3.6 5c-0.1-0.1-0.1 0.1-0.2 0.1zm0-1l3.3-4.6c0.1-0.1 0.3-0.3 0.3-0.4 0.4-0.6 0.6-1.3 0.6-2-0.1-2.3-2-4.1-4.2-4.1s-4.2 1.7-4.2 4c0 1 0.3 1.9 1 2.6l1.2 1.6 2 2.8m-0.2-4.5c-1.4 0-2.5-1.1-2.5-2.5s1.1-2.6 2.6-2.6c1.4 0 2.6 1.1 2.6 2.6s-1.3 2.5-2.7 2.5zm0-4.5c-1 0-1.8 0.8-1.8 2s0.9 1.9 1.9 1.9 1.8-0.9 1.8-1.9-0.7-2-1.9-2z" stroke="#287FB9" stroke-miterlimit="10" stroke-width=".25" fill="#287FB9"/>	</g></g></svg><svg xmlns:xlink="http://www.w3.org/1999/xlink" id="Icon_Heart" xml:space="preserve" viewBox="369.1 173.1 38.7 36.9" version="1.1" y="74" x="0px" enable-background="new 379.1 183.1 18.7 16.9" width="37" height="37"><path d="m397.8 188.6c0-3-2.4-5.5-5.5-5.5-1.5 0-2.8 0.6-3.9 1.6-1.1-1.1-2.4-1.6-3.9-1.6-3 0-5.5 2.4-5.5 5.5 0 1.4 0.5 2.7 1.6 3.8l7.4 7.5c0.1 0.1 0.2 0.2 0.4 0.2s0.3-0.1 0.4-0.2l1.8-1.8-0.7-0.8-1.5 1.5-7-7c-0.7-0.8-1.3-1.9-1.3-3 0-2.4 2-4.4 4.3-4.4 1.4 0 2.6 0.6 3.5 1.7 0.2 0.3 0.6 0.3 0.8 0 0.8-1.1 2.1-1.7 3.5-1.7 2.4 0 4.3 2 4.3 4.4 0 1.2-0.5 2.3-1.4 3.2l-4.2 4.2 0.7 0.8 4.2-4.2c1.4-1.4 2-2.8 2-4.2z" fill="#889197"/></svg><svg xmlns:xlink="http://www.w3.org/1999/xlink" id="Icon_Heart_hover" xml:space="preserve" viewBox="369.1 173.1 38.7 36.9" version="1.1" y="111" x="0px" enable-background="new 379.1 183.1 18.7 16.9" width="37" height="37"><path d="m397.8 188.6c0-3-2.4-5.5-5.5-5.5-1.5 0-2.8 0.6-3.9 1.6-1.1-1.1-2.4-1.6-3.9-1.6-3 0-5.5 2.4-5.5 5.5 0 1.4 0.5 2.7 1.6 3.8l7.4 7.5c0.1 0.1 0.2 0.2 0.4 0.2s0.3-0.1 0.4-0.2l1.8-1.8-0.7-0.8-1.5 1.5-7-7c-0.7-0.8-1.3-1.9-1.3-3 0-2.4 2-4.4 4.3-4.4 1.4 0 2.6 0.6 3.5 1.7 0.2 0.3 0.6 0.3 0.8 0 0.8-1.1 2.1-1.7 3.5-1.7 2.4 0 4.3 2 4.3 4.4 0 1.2-0.5 2.3-1.4 3.2l-4.2 4.2 0.7 0.8 4.2-4.2c1.4-1.4 2-2.8 2-4.2z" fill="#EE4633"/></svg><svg xmlns:xlink="http://www.w3.org/1999/xlink" id="Icon_Photo" xml:space="preserve" viewBox="-10 -10 50.8 43.1" version="1.1" y="148" x="0px" enable-background="new 0 0 30.8 23.1" width="37" height="37"><g stroke="#889197" stroke-miterlimit="10" fill="none"><path d="m1.8 22.6c-0.7 0-1.3-0.4-1.3-1v-17.6c0-0.5 0.6-1 1.3-1h27.2c0.7 0 1.3 0.4 1.3 1v17.6c0 0.5-0.6 1-1.3 1h-27.2"/><circle cx="15.4" cy="12.8" r="8.2"/><circle cx="15.4" cy="12.8" r="6.1"/><path d="m6.4 2.9h-3.9c0-1.3 0.9-2.4 1.9-2.4s2 1.1 2 2.4z"/></g></svg><svg xmlns:xlink="http://www.w3.org/1999/xlink" id="Icon_Photo_hover" xml:space="preserve" viewBox="-10 -10 50.8 43.1" version="1.1" y="185" x="0px" enable-background="new 0 0 30.8 23.1" width="37" height="37"><g stroke="#98C352" stroke-miterlimit="10" fill="none"><path d="m1.8 22.6c-0.7 0-1.3-0.4-1.3-1v-17.6c0-0.5 0.6-1 1.3-1h27.2c0.7 0 1.3 0.4 1.3 1v17.6c0 0.5-0.6 1-1.3 1h-27.2"/><circle cx="15.4" cy="12.8" r="8.2"/><circle cx="15.4" cy="12.8" r="6.1"/><path d="m6.4 2.9h-3.9c0-1.3 0.9-2.4 1.9-2.4s2 1.1 2 2.4z"/></g></svg><svg xmlns:xlink="http://www.w3.org/1999/xlink" id="Icon_Planner" xml:space="preserve" viewBox="-10 -10 41.4 40.2" version="1.1" y="222" x="0px" enable-background="new 0 0 21.4 20.2" width="37" height="37"><g stroke="#889197" stroke-miterlimit="10" fill="none"><path d="m1.4 19.7c-0.5 0-0.9-0.4-0.9-0.9v-16.1c0-0.5 0.4-0.9 0.9-0.9h18.6c0.5 0 0.9 0.4 0.9 0.9v16.2c0 0.5-0.4 0.9-0.9 0.9h-18.6"/><line y2="6.5" x2="21.1" y1="6.5" x1=".7"/><line y2="10.7" x2="15.6" y1="10.7" x1="5.7"/><line y2="14.3" x2="14.8" y1="14.3" x1="6.6"/><line x2="5.7" y1="3.1" x1="5.7"/><line x2="15.6" y1="3.1" x1="15.6"/></g></svg><svg xmlns:xlink="http://www.w3.org/1999/xlink" id="Icon_Planner_hover" xml:space="preserve" viewBox="-10 -10 41.4 40.2" version="1.1" y="259" x="0px" enable-background="new 0 0 21.4 20.2" width="37" height="37"><g stroke="#2E7EBA" stroke-miterlimit="10" fill="none"><path d="m1.4 19.7c-0.5 0-0.9-0.4-0.9-0.9v-16.1c0-0.5 0.4-0.9 0.9-0.9h18.6c0.5 0 0.9 0.4 0.9 0.9v16.2c0 0.5-0.4 0.9-0.9 0.9h-18.6"/><line y2="6.5" x2="21.1" y1="6.5" x1=".7"/><line y2="10.7" x2="15.6" y1="10.7" x1="5.7"/><line y2="14.3" x2="14.8" y1="14.3" x1="6.6"/><line x2="5.7" y1="3.1" x1="5.7"/><line x2="15.6" y1="3.1" x1="15.6"/></g></svg><svg xmlns:xlink="http://www.w3.org/1999/xlink" id="Icon_Save" xml:space="preserve" viewBox="-10 -10 41.6 39.1" version="1.1" y="296" x="0px" enable-background="new 0 0 21.6 19.1" width="37" height="37"><g stroke="#889197" stroke-miterlimit="10" fill="none"><path d="m1.4 18.6c-0.5 0-0.9-0.4-0.9-0.9v-16.3c0-0.5 0.4-0.9 0.9-0.9h18.8c0.5 0 0.9 0.4 0.9 0.9v16.3c0 0.5-0.4 0.9-0.9 0.9h-18.8"/><path d="m18.4 9.2h-8c-0.5 0-0.9-0.4-0.9-0.9v-6.9c0-0.5 0.4-0.9 0.9-0.9h8c0.5 0 0.9 0.4 0.9 0.9v6.8c0 0.5-0.4 1-0.9 1z"/><path d="m19.3 18.5c0-0.1 0.1-0.2 0.1-0.3v-0.8c0-0.5-0.4-0.9-0.9-0.9h-1.5c-0.5 0-0.9 0.4-0.9 0.9v0.8c0 0.1 0 0.2 0.1 0.3h3.1z"/></g></svg><svg xmlns:xlink="http://www.w3.org/1999/xlink" id="Icon_Save_hover" xml:space="preserve" viewBox="-10 -10 41.6 39.1" version="1.1" y="333" x="0px" enable-background="new 0 0 21.6 19.1" width="37" height="37"><g stroke="#FCD063" stroke-miterlimit="10" fill="none"><path d="m1.4 18.6c-0.5 0-0.9-0.4-0.9-0.9v-16.3c0-0.5 0.4-0.9 0.9-0.9h18.8c0.5 0 0.9 0.4 0.9 0.9v16.3c0 0.5-0.4 0.9-0.9 0.9h-18.8"/><path d="m18.4 9.2h-8c-0.5 0-0.9-0.4-0.9-0.9v-6.9c0-0.5 0.4-0.9 0.9-0.9h8c0.5 0 0.9 0.4 0.9 0.9v6.8c0 0.5-0.4 1-0.9 1z"/><path d="m19.3 18.5c0-0.1 0.1-0.2 0.1-0.3v-0.8c0-0.5-0.4-0.9-0.9-0.9h-1.5c-0.5 0-0.9 0.4-0.9 0.9v0.8c0 0.1 0 0.2 0.1 0.3h3.1z"/></g></svg><svg xmlns:xlink="http://www.w3.org/1999/xlink" id="Icon_Spot" style="enable-background:new 0 0 18.8 22" xml:space="preserve" viewBox="-10 -10 38.8 42" version="1.1" y="370" x="0px" width="37" height="37"><style type="text/css">	.st0{fill:#889197;}</style><path id="Icon_Spot-XMLID_27_" d="m12.6 3.8l-0.3 1.2c1 0.4 2 1 2.8 1.8l-2.1 1.2c-0.3-0.8-0.8-1.5-1.2-2.2-0.1 0.2-0.3 0.3-0.4 0.5 0.4 0.6 0.8 1.2 1.1 1.9-0.9 0.3-1.8 0.5-2.7 0.5h-0.7c-1 0-1.9-0.2-2.7-0.5 0.2-0.7 0.6-1.3 1-1.9-0.1-0.2-0.3-0.3-0.4-0.5-0.5 0.7-0.9 1.4-1.2 2.2-0.8-0.4-1.5-0.8-2.1-1.3 0.8-0.7 1.8-1.3 2.8-1.7-0.2-0.4-0.3-0.8-0.4-1.2-3.6 1.4-6.1 4.8-6.1 8.8 0 5.2 4.2 9.4 9.4 9.4s9.4-4.2 9.4-9.4c0-4-2.6-7.5-6.2-8.8zm-9.3 3.4c0.7 0.5 1.4 1 2.3 1.3-0.5 1.2-0.7 2.5-0.7 3.8h-3.7c0.1-2 0.9-3.7 2.1-5.1zm-2.1 5.7h3.6c0 1.5 0.4 3 0.9 4.3-0.8 0.3-1.5 0.7-2.1 1.2-1.4-1.4-2.3-3.3-2.4-5.5zm2.9 5.9c0.6-0.4 1.2-0.8 1.9-1 0.5 1.1 1.2 2.1 2 2.9-1.5-0.3-2.8-0.9-3.9-1.9zm5 2c-1-0.8-1.9-1.9-2.5-3.2 0.8-0.2 1.6-0.4 2.5-0.4v3.6zm0-4.2c-1 0-1.9 0.2-2.7 0.5-0.5-1.2-0.8-2.6-0.9-4.1h3.6v3.6zm0-4.3h-3.6c0-1.3 0.3-2.5 0.7-3.6 0.9 0.3 1.8 0.5 2.9 0.6v3zm6.4-5.1c1.2 1.4 2 3.2 2.1 5.1h-3.6c0-1.3-0.3-2.6-0.7-3.8 0.7-0.3 1.5-0.8 2.2-1.3zm-5.8 2.1c1 0 2-0.2 3-0.5 0.4 1.1 0.6 2.3 0.7 3.6h-3.7v-3.1zm0 3.6h3.6c0 1.5-0.3 2.9-0.9 4.1-0.9-0.3-1.8-0.4-2.7-0.5v-3.6zm0 7.9v-3.6c0.9 0 1.7 0.2 2.5 0.4-0.6 1.2-1.5 2.3-2.5 3.2zm1-0.1c0.8-0.8 1.5-1.8 2-2.9 0.7 0.3 1.3 0.6 1.9 1-1 1-2.4 1.6-3.9 1.9zm4.4-2.3c-0.7-0.5-1.4-0.9-2.1-1.2 0.5-1.3 0.9-2.8 0.9-4.3h3.6c0 2.2-0.9 4.1-2.4 5.5z" class="st0"/><g id="Icon_Spot-Livello_110">	<g id="Icon_Spot-XMLID_6_">		<path id="Icon_Spot-XMLID_7_" d="m9.4 9.1c-0.1 0-0.2-0.1-0.2-0.1l-2.4-3.5c-0.5-0.6-0.8-1.4-0.8-2.1 0-1.9 1.5-3.4 3.4-3.4s3.4 1.5 3.4 3.4c0 0.6-0.1 1.1-0.4 1.6v0.1c-0.1 0.2-0.2 0.3-0.3 0.4l-2.5 3.5c-0.1 0-0.1 0.1-0.2 0.1zm0-0.7l2.3-3.2c0.1-0.1 0.2-0.2 0.2-0.3 0.3-0.4 0.4-0.9 0.4-1.4 0-1.6-1.3-2.9-2.9-2.9s-2.9 1.2-2.9 2.8c0 0.7 0.2 1.3 0.7 1.8l0.8 1.2 1.4 2m-0.1-3.2c-1 0-1.8-0.8-1.8-1.8s0.8-1.8 1.8-1.8c1 0 1.8 0.8 1.8 1.8s-0.8 1.8-1.8 1.8zm0-3.2c-0.7 0-1.3 0.6-1.3 1.4s0.6 1.3 1.3 1.3 1.3-0.6 1.3-1.3-0.5-1.4-1.3-1.4z" class="st0"/>	</g></g></svg><svg xmlns:xlink="http://www.w3.org/1999/xlink" id="Icon_Spot_hover" xml:space="preserve" viewBox="-10 -10 632 812" version="1.1" y="407" x="0px" enable-background="new 0 0 612 792" width="37" height="37"><path id="Icon_Spot_hover-XMLID_27_" d="m410.2 161.6c-3.3 13-6.5 26-9.8 39.1 32.6 13 65.1 32.6 91.1 58.6-22.8 13-45.6 26-68.4 39.1-9.8-26-26-48.8-39.1-71.6-3.3 6.5-9.8 9.8-13 16.3 13 19.5 26 39.1 35.8 61.9-29.3 9.8-58.6 16.3-87.9 16.3h-22.8c-32.6 0-61.9-6.5-87.9-16.3 6.5-22.8 19.5-42.3 32.6-61.9-3.3-6.5-9.8-9.8-13-16.3-16.3 22.8-29.3 45.6-39.1 71.6-26-13-48.8-26-68.4-42.3 26-22.8 58.6-42.3 91.1-55.3-6.5-13-9.8-26-13-39.1-117 45.5-198.4 156.2-198.4 286.4 0 169.3 136.7 306 306 306s306-136.7 306-306c0-130.2-84.6-244.2-201.8-286.5zm-302.8 110.7c22.8 16.3 45.6 32.6 74.9 42.3-16.3 39.1-22.8 81.4-22.8 123.7h-120.4c3.2-65.1 29.3-120.4 68.3-166zm-68.3 185.6h117.2c0 48.8 13 97.7 29.3 140-26 9.8-48.8 22.8-68.4 39.1-45.6-45.7-74.9-107.5-78.1-179.1zm94.4 192c19.5-13 39.1-26 61.9-32.6 16.3 35.8 39.1 68.4 65.1 94.4-48.9-9.7-91.2-29.2-127-61.8zm162.7 65.1c-32.6-26-61.9-61.9-81.4-104.2 26-6.5 52.1-13 81.4-13v117.2zm0-136.7c-32.6 0-61.9 6.5-87.9 16.3-16.3-39.1-26-84.6-29.3-133.5h117.2v117.2zm0-140h-117.2c0-42.3 9.8-81.4 22.8-117.2 29.3 9.8 58.6 16.3 94.4 19.5v97.7zm208.4-166c39.1 45.6 65.1 104.2 68.4 166h-117.3c0-42.3-9.8-84.6-22.8-123.7 22.8-9.7 48.9-26 71.7-42.3zm-188.8 68.4c32.6 0 65.1-6.5 97.7-16.3 13 35.8 19.5 74.9 22.8 117.2h-120.5v-100.9zm0 117.2h117.2c0 48.8-9.8 94.4-29.3 133.5-29.3-9.8-58.6-13-87.9-16.3v-117.2zm0 257.1v-117.2c29.3 0 55.3 6.5 81.4 13-19.6 39.1-48.9 74.9-81.4 104.2zm32.5-3.2c26-26 48.8-58.6 65.1-94.4 22.8 9.8 42.3 19.5 61.9 32.6-32.6 32.5-78.2 52-127 61.8zm143.3-74.9c-22.8-16.3-45.6-29.3-68.4-39.1 16.3-42.3 29.3-91.1 29.3-140h117.2c0 71.7-29.3 133.5-78.1 179.1z" fill="#27AE61"/><g id="Icon_Spot_hover-Livello_110">	<g id="Icon_Spot_hover-XMLID_6_">		<path id="Icon_Spot_hover-XMLID_7_" d="m306 334.1c-3.3 0-6.5-3.3-6.5-3.3l-78.1-113.8c-16.3-19.5-26-45.6-26-68.4 0-61.9 48.8-110.7 110.7-110.7s110.7 48.8 110.7 110.7c0 19.5-3.3 35.8-13 52.1v3.3c-3.3 6.5-6.5 9.8-9.8 13l-81.4 113.9c-3.3 0-3.3 3.2-6.6 3.2zm0-22.7l74.9-104.2c3.3-3.3 6.5-6.5 6.5-9.8 9.8-13 13-29.3 13-45.6 0-52.1-42.3-94.4-94.4-94.4s-94.4 39.1-94.4 91.1c0 22.8 6.5 42.3 22.8 58.6l26 39.1m0 0.1l45.6 65.1m-3.3-104.2c-32.6 0-58.6-26-58.6-58.6s26-58.6 58.6-58.6c32.6 0 58.6 26 58.6 58.6s-26 58.6-58.6 58.6zm0-104.2c-22.8 0-42.3 19.5-42.3 45.6s19.5 42.3 42.3 42.3 42.3-19.5 42.3-42.3-16.2-45.6-42.3-45.6z" fill="#27AE61"/>	</g></g></svg><svg xmlns:xlink="http://www.w3.org/1999/xlink" id="home_icon" xml:space="preserve" viewBox="-10 -10 43.4 43.2" version="1.1" y="444" x="0px" enable-background="new 0 0 23.4 23.2" width="37" height="37"><g stroke="#889197" stroke-miterlimit="10" fill="none"><line y2=".4" x2="12" y1="12.1" x1=".4"/><line y2=".4" x2="11.3" y1="12.1" x1="23.1"/><line y2="23.2" x2="2.6" y1="11.4" x1="2.6"/><line y2="22.7" x2="10.1" y1="22.7" x1="2.7"/><line y2="23.2" x2="20.6" y1="11.4" x1="20.6"/><line y2="22.7" x2="20.8" y1="22.7" x1="13.3"/><line y2="23.2" x2="10" y1="16.2" x1="10"/><line y2="23.2" x2="13.5" y1="16.2" x1="13.5"/><line y2="16.7" x2="13.7" y1="16.7" x1="10.2"/></g></svg><svg xmlns:xlink="http://www.w3.org/1999/xlink" id="home_icon_hover" xml:space="preserve" viewBox="-10 -10 43.4 43.2" version="1.1" y="481" x="0px" enable-background="new 0 0 23.4 23.2" width="37" height="37"><g stroke="#36BEED" stroke-miterlimit="10" fill="none"><line y2=".4" x2="12" y1="12.1" x1=".4"/><line y2=".4" x2="11.3" y1="12.1" x1="23.1"/><line y2="23.2" x2="2.6" y1="11.4" x1="2.6"/><line y2="22.7" x2="10.1" y1="22.7" x1="2.7"/><line y2="23.2" x2="20.6" y1="11.4" x1="20.6"/><line y2="22.7" x2="20.8" y1="22.7" x1="13.3"/><line y2="23.2" x2="10" y1="16.2" x1="10"/><line y2="23.2" x2="13.5" y1="16.2" x1="13.5"/><line y2="16.7" x2="13.7" y1="16.7" x1="10.2"/></g></svg></svg>
