<?xml version="1.0"?>
<!--Icons from directory ""-->
<svg xmlns="http://www.w3.org/2000/svg" width="69" height="138" viewBox="0 0 69 138"><svg xmlns:xlink="http://www.w3.org/1999/xlink" id="icon_spot" xml:space="preserve" viewBox="220.6 -22 64.9 68.2" version="1.1" y="0" x="0px" enable-background="new 243.6 1 18.9 22.2" width="69" height="69"><path id="icon_spot-XMLID_27_" d="m256.3 4.8l-0.3 1.2c1 0.4 2 1 2.8 1.8l-2.1 1.2c-0.3-0.8-0.8-1.5-1.2-2.2-0.1 0.2-0.3 0.3-0.4 0.5 0.4 0.6 0.8 1.2 1.1 1.9-0.9 0.3-1.8 0.5-2.7 0.5h-0.7c-1 0-1.9-0.2-2.7-0.5 0.2-0.7 0.6-1.3 1-1.9-0.1-0.2-0.3-0.3-0.4-0.5-0.5 0.7-0.9 1.4-1.2 2.2-0.8-0.4-1.5-0.8-2.1-1.3 0.8-0.7 1.8-1.3 2.8-1.7-0.2-0.4-0.3-0.8-0.4-1.2-3.6 1.4-6.1 4.8-6.1 8.9 0 5.2 4.2 9.5 9.5 9.5s9.5-4.2 9.5-9.5c-0.1-4-2.7-7.6-6.4-8.9zm-9.3 3.5c0.7 0.5 1.4 1 2.3 1.3-0.5 1.2-0.7 2.5-0.7 3.8h-3.7c0-2 0.9-3.7 2.1-5.1zm-2.2 5.7h3.6c0 1.5 0.4 3 0.9 4.3-0.8 0.3-1.5 0.7-2.1 1.2-1.3-1.4-2.3-3.3-2.4-5.5zm3 5.9c0.6-0.4 1.2-0.8 1.9-1 0.5 1.1 1.2 2.1 2 2.9-1.5-0.2-2.8-0.9-3.9-1.9zm5 2.1c-1-0.8-1.9-1.9-2.5-3.2 0.8-0.2 1.6-0.4 2.5-0.4v3.6zm0-4.3c-1 0-1.9 0.2-2.7 0.5-0.5-1.2-0.8-2.6-0.9-4.1h3.6v3.6zm0-4.3h-3.6c0-1.3 0.3-2.5 0.7-3.6 0.9 0.3 1.8 0.5 2.9 0.6v3zm6.5-5.1c1.2 1.4 2 3.2 2.1 5.1h-3.6c0-1.3-0.3-2.6-0.7-3.8 0.6-0.3 1.4-0.8 2.2-1.3zm-5.9 2.1c1 0 2-0.2 3-0.5 0.4 1.1 0.6 2.3 0.7 3.6h-3.7v-3.1zm0 3.6h3.6c0 1.5-0.3 2.9-0.9 4.1-0.9-0.3-1.8-0.4-2.7-0.5v-3.6zm0 8v-3.6c0.9 0 1.7 0.2 2.5 0.4-0.6 1.1-1.5 2.2-2.5 3.2zm1-0.1c0.8-0.8 1.5-1.8 2-2.9 0.7 0.3 1.3 0.6 1.9 1-1 0.9-2.4 1.6-3.9 1.9zm4.4-2.4c-0.7-0.5-1.4-0.9-2.1-1.2 0.5-1.3 0.9-2.8 0.9-4.3h3.6c0.1 2.2-0.8 4.1-2.4 5.5z" fill="#889197"/><g id="icon_spot-Livello_110">	<g id="icon_spot-XMLID_6_">		<path id="icon_spot-XMLID_7_" d="m253.1 10.2c-0.1 0-0.2-0.1-0.2-0.1l-2.4-3.5c-0.5-0.6-0.8-1.4-0.8-2.1 0-1.9 1.5-3.4 3.4-3.4s3.4 1.5 3.4 3.4c0 0.6-0.1 1.1-0.4 1.6v0.1c-0.1 0.2-0.2 0.3-0.3 0.4l-2.5 3.5c-0.1 0-0.1 0.1-0.2 0.1zm0-0.7l2.3-3.2c0.1-0.1 0.2-0.2 0.2-0.3 0.3-0.4 0.4-0.9 0.4-1.4 0-1.6-1.3-2.9-2.9-2.9s-2.9 1.2-2.9 2.8c0 0.7 0.2 1.3 0.7 1.8l0.8 1.2m0-0.1l1.4 2m-0.1-3.2c-1 0-1.8-0.8-1.8-1.8s0.8-1.8 1.8-1.8c1 0 1.8 0.8 1.8 1.8s-0.8 1.8-1.8 1.8zm0-3.2c-0.7 0-1.3 0.6-1.3 1.4s0.6 1.3 1.3 1.3c0.7 0 1.3-0.6 1.3-1.3s-0.5-1.4-1.3-1.4z" fill="#889197"/>	</g></g></svg><svg xmlns:xlink="http://www.w3.org/1999/xlink" id="icon_spot_hover" xml:space="preserve" viewBox="220.6 -22 64.9 68.2" version="1.1" y="69" x="0px" enable-background="new 243.6 1 18.9 22.2" width="69" height="69"><path id="icon_spot_hover-XMLID_27_" d="m256.3 4.8l-0.3 1.2c1 0.4 2 1 2.8 1.8l-2.1 1.2c-0.3-0.8-0.8-1.5-1.2-2.2-0.1 0.2-0.3 0.3-0.4 0.5 0.4 0.6 0.8 1.2 1.1 1.9-0.9 0.3-1.8 0.5-2.7 0.5h-0.7c-1 0-1.9-0.2-2.7-0.5 0.2-0.7 0.6-1.3 1-1.9-0.1-0.2-0.3-0.3-0.4-0.5-0.5 0.7-0.9 1.4-1.2 2.2-0.8-0.4-1.5-0.8-2.1-1.3 0.8-0.7 1.8-1.3 2.8-1.7-0.2-0.4-0.3-0.8-0.4-1.2-3.6 1.4-6.1 4.8-6.1 8.9 0 5.2 4.2 9.5 9.5 9.5s9.5-4.2 9.5-9.5c-0.1-4-2.7-7.6-6.4-8.9zm-9.3 3.5c0.7 0.5 1.4 1 2.3 1.3-0.5 1.2-0.7 2.5-0.7 3.8h-3.7c0-2 0.9-3.7 2.1-5.1zm-2.2 5.7h3.6c0 1.5 0.4 3 0.9 4.3-0.8 0.3-1.5 0.7-2.1 1.2-1.3-1.4-2.3-3.3-2.4-5.5zm3 5.9c0.6-0.4 1.2-0.8 1.9-1 0.5 1.1 1.2 2.1 2 2.9-1.5-0.2-2.8-0.9-3.9-1.9zm5 2.1c-1-0.8-1.9-1.9-2.5-3.2 0.8-0.2 1.6-0.4 2.5-0.4v3.6zm0-4.3c-1 0-1.9 0.2-2.7 0.5-0.5-1.2-0.8-2.6-0.9-4.1h3.6v3.6zm0-4.3h-3.6c0-1.3 0.3-2.5 0.7-3.6 0.9 0.3 1.8 0.5 2.9 0.6v3zm6.5-5.1c1.2 1.4 2 3.2 2.1 5.1h-3.6c0-1.3-0.3-2.6-0.7-3.8 0.6-0.3 1.4-0.8 2.2-1.3zm-5.9 2.1c1 0 2-0.2 3-0.5 0.4 1.1 0.6 2.3 0.7 3.6h-3.7v-3.1zm0 3.6h3.6c0 1.5-0.3 2.9-0.9 4.1-0.9-0.3-1.8-0.4-2.7-0.5v-3.6zm0 8v-3.6c0.9 0 1.7 0.2 2.5 0.4-0.6 1.1-1.5 2.2-2.5 3.2zm1-0.1c0.8-0.8 1.5-1.8 2-2.9 0.7 0.3 1.3 0.6 1.9 1-1 0.9-2.4 1.6-3.9 1.9zm4.4-2.4c-0.7-0.5-1.4-0.9-2.1-1.2 0.5-1.3 0.9-2.8 0.9-4.3h3.6c0.1 2.2-0.8 4.1-2.4 5.5z" fill="#27AE61"/><g id="icon_spot_hover-Livello_110">	<g id="icon_spot_hover-XMLID_6_">		<path id="icon_spot_hover-XMLID_7_" d="m253.1 10.2c-0.1 0-0.2-0.1-0.2-0.1l-2.4-3.5c-0.5-0.6-0.8-1.4-0.8-2.1 0-1.9 1.5-3.4 3.4-3.4s3.4 1.5 3.4 3.4c0 0.6-0.1 1.1-0.4 1.6v0.1c-0.1 0.2-0.2 0.3-0.3 0.4l-2.5 3.5c-0.1 0-0.1 0.1-0.2 0.1zm0-0.7l2.3-3.2c0.1-0.1 0.2-0.2 0.2-0.3 0.3-0.4 0.4-0.9 0.4-1.4 0-1.6-1.3-2.9-2.9-2.9s-2.9 1.2-2.9 2.8c0 0.7 0.2 1.3 0.7 1.8l0.8 1.2m0-0.1l1.4 2m-0.1-3.2c-1 0-1.8-0.8-1.8-1.8s0.8-1.8 1.8-1.8c1 0 1.8 0.8 1.8 1.8s-0.8 1.8-1.8 1.8zm0-3.2c-0.7 0-1.3 0.6-1.3 1.4s0.6 1.3 1.3 1.3c0.7 0 1.3-0.6 1.3-1.3s-0.5-1.4-1.3-1.4z" fill="#27AE61"/>	</g></g></svg></svg>
