<?xml version="1.0"?>
<!--Icons from directory ""-->
<svg xmlns="http://www.w3.org/2000/svg" width="40" height="240" viewBox="0 0 40 240"><svg xmlns:xlink="http://www.w3.org/1999/xlink" id="Tools1" xml:space="preserve" viewBox="0 0 1000 800" version="1.1" y="0" x="0px" enable-background="new 0 0 1000 800" width="40" height="40"><g id="Tools1-&#x428;&#x430;&#x440;_1_1_">	<circle cy="459.9" cx="654.9" r="9.6" fill="#fff"/>	<rect opacity=".8" height="800" width="958.1" x="21" enable-background="new    " fill="#929FA7"/></g><g id="Tools1-&#x428;&#x430;&#x440;_2">			<path stroke="#fff" stroke-width="10" stroke-miterlimit="10" d="m765.1 336.9c-1.6-8-4.8-16-6.4-22.4" fill="none"/>	<line y2="296.1" x1="222.6" x2="350.3" stroke="#fff" stroke-miterlimit="10" y1="422.2" stroke-width="10" fill="none"/>	<circle cy="293.8" cx="753.9" r="57.5" fill="#fff"/></g><line y2="424.2" x1="221.5" x2="349.3" stroke="#fff" stroke-miterlimit="10" y1="298.1" stroke-width="10" fill="none"/>	<g stroke="#fff" stroke-width="10" stroke-miterlimit="10" fill="none">		<path d="m285.4 359.2s-0.1-3.7 0-10"/>		<path d="m286.4 329.4c5.1-61.7 33.2-194.9 183.7-158.6 273.2 65.8-151.4 452.2 141.2 481.7 221.4 22.3 176.8-216.3 159-286.7" stroke-dasharray="19.8147,19.8147"/>		<path d="m767.9 356.3c-1.7-6.2-2.8-9.6-2.8-9.6"/>	</g></svg><svg xmlns:xlink="http://www.w3.org/1999/xlink" id="Tools1_hover" xml:space="preserve" viewBox="0 0 1000 800" version="1.1" y="40" x="0px" enable-background="new 0 0 1000 800" width="40" height="40"><g id="Tools1_hover-&#x428;&#x430;&#x440;_1_1_" fill="#00CFFF">	<circle cy="459.9" cx="654.9" r="9.6"/>	<rect opacity=".8" height="800" width="958.1" x="21" enable-background="new    "/></g><g id="Tools1_hover-&#x428;&#x430;&#x440;_2">			<path stroke="#fff" stroke-width="10" stroke-miterlimit="10" d="m765.1 336.9c-1.6-8-4.8-16-6.4-22.4" fill="none"/>	<line y2="296.1" x1="222.6" x2="350.3" stroke="#fff" stroke-miterlimit="10" y1="422.2" stroke-width="10" fill="none"/>	<circle cy="293.8" cx="753.9" r="57.5" fill="#fff"/></g><line y2="424.2" x1="221.5" x2="349.3" stroke="#fff" stroke-miterlimit="10" y1="298.1" stroke-width="10" fill="none"/>	<g stroke="#fff" stroke-width="10" stroke-miterlimit="10" fill="none">		<path d="m285.4 359.2s-0.1-3.7 0-10"/>		<path d="m286.4 329.4c5.1-61.7 33.2-194.9 183.7-158.6 273.2 65.8-151.4 452.2 141.2 481.7 221.4 22.3 176.8-216.3 159-286.7" stroke-dasharray="19.8147,19.8147"/>		<path d="m767.9 356.3c-1.7-6.2-2.8-9.6-2.8-9.6"/>	</g></svg><svg xmlns:xlink="http://www.w3.org/1999/xlink" id="Tools2" xml:space="preserve" viewBox="0 0 1000 800" version="1.1" y="80" x="0px" enable-background="new 0 0 1000 800" width="40" height="40"><circle cy="459.9" cx="654.9" r="9.6" fill="#fff"/><rect opacity=".8" height="800" width="958.1" x="21" enable-background="new    " fill="#929FA7"/>		<circle r="255.5" cy="400.8" stroke="#fff" cx="500" stroke-dasharray="26,26" stroke-miterlimit="10" stroke-width="10" fill="none"/></svg><svg xmlns:xlink="http://www.w3.org/1999/xlink" id="Tools2_hover" xml:space="preserve" viewBox="0 0 1000 800" version="1.1" y="120" x="0px" enable-background="new 0 0 1000 800" width="40" height="40"><circle cy="459.9" cx="654.9" r="9.6" fill="#fff"/><rect opacity=".8" height="800" width="958.1" x="21" enable-background="new    " fill="#00CFFF"/>		<circle r="255.5" cy="400.8" stroke="#fff" cx="500" stroke-dasharray="26,26" stroke-miterlimit="10" stroke-width="10" fill="none"/></svg><svg xmlns:xlink="http://www.w3.org/1999/xlink" id="Tools3" xml:space="preserve" viewBox="0 0 1000 800" version="1.1" y="160" x="0px" enable-background="new 0 0 1000 800" width="40" height="40"><g id="Tools3-&#x428;&#x430;&#x440;_1_1_">	<rect opacity=".8" height="800" width="958.1" x="21" enable-background="new    " fill="#929FA7"/></g><g id="Tools3-&#x428;&#x430;&#x440;_2">		<ellipse cy="371.9" rx="105.4" transform="matrix(-.3605 -.9328 .9328 -.3605 355.16 987.35)" ry="174" stroke="#fff" cx="516" stroke-miterlimit="10" stroke-width="10" fill="none"/>	<ellipse cy="471.1" cx="401" rx="47.9" ry="46.3" fill="#fff"/>	<path stroke="#fff" stroke-width="10" stroke-miterlimit="10" d="m401 507.8c16-4.8 16 44.7-11.2 65.5" fill="none"/></g></svg><svg xmlns:xlink="http://www.w3.org/1999/xlink" id="Tools3_hover" xml:space="preserve" viewBox="0 0 1000 800" version="1.1" y="200" x="0px" enable-background="new 0 0 1000 800" width="40" height="40"><g id="Tools3_hover-&#x428;&#x430;&#x440;_1_1_">	<rect opacity=".8" height="800" width="958.1" x="21" enable-background="new    " fill="#00CFFF"/></g><g id="Tools3_hover-&#x428;&#x430;&#x440;_2">		<ellipse cy="371.9" rx="105.4" transform="matrix(-.3605 -.9328 .9328 -.3605 355.16 987.35)" ry="174" stroke="#fff" cx="516" stroke-miterlimit="10" stroke-width="10" fill="none"/>	<ellipse cy="471.1" cx="401" rx="47.9" ry="46.3" fill="#fff"/>	<path stroke="#fff" stroke-width="10" stroke-miterlimit="10" d="m401 507.8c16-4.8 16 44.7-11.2 65.5" fill="none"/></g></svg></svg>
