<?xml version="1.0"?>
<!--Icons from directory ""-->
<svg xmlns="http://www.w3.org/2000/svg" width="35" height="560" viewBox="0 0 35 560"><svg xmlns:xlink="http://www.w3.org/1999/xlink" id="Icon_Favorite" xml:space="preserve" viewBox="66.6 10.3 34.4 33" version="1.1" y="0" x="0px" enable-background="new 76.6 20.3 14.4 13" width="35" height="35"><path d="m91 24.5c0-2.3-1.8-4.2-4.2-4.2-1.2 0-2.1 0.5-3 1.2-0.8-0.8-1.8-1.2-3-1.2-2.3 0-4.2 1.8-4.2 4.2 0 1.1 0.4 2.1 1.2 2.9l5.7 5.8c0.1 0.1 0.1 0.1 0.3 0.1s0.2-0.1 0.3-0.1l1.4-1.4-0.5-0.7-1.2 1.2-5.3-5.3c-0.5-0.6-1-1.4-1-2.3 0-1.8 1.5-3.3 3.3-3.3 1.1 0 2 0.5 2.7 1.3 0.1 0.2 0.5 0.2 0.6 0 0.6-0.8 1.6-1.3 2.7-1.3 1.8 0 3.3 1.5 3.3 3.4 0 0.9-0.4 1.8-1.1 2.5l-3.3 3.2 0.5 0.6 3.2-3.2c1.2-1.3 1.6-2.3 1.6-3.4z" fill="#889197"/></svg><svg xmlns:xlink="http://www.w3.org/1999/xlink" id="Icon_Favorite_hover" xml:space="preserve" viewBox="66.6 10.3 34.4 33" version="1.1" y="35" x="0px" enable-background="new 76.6 20.3 14.4 13" width="35" height="35"><path d="m91 24.5c0-2.3-1.8-4.2-4.2-4.2-1.2 0-2.1 0.5-3 1.2-0.8-0.8-1.8-1.2-3-1.2-2.3 0-4.2 1.8-4.2 4.2 0 1.1 0.4 2.1 1.2 2.9l5.7 5.8c0.1 0.1 0.1 0.1 0.3 0.1s0.2-0.1 0.3-0.1l1.4-1.4-0.5-0.7-1.2 1.2-5.3-5.3c-0.5-0.6-1-1.4-1-2.3 0-1.8 1.5-3.3 3.3-3.3 1.1 0 2 0.5 2.7 1.3 0.1 0.2 0.5 0.2 0.6 0 0.6-0.8 1.6-1.3 2.7-1.3 1.8 0 3.3 1.5 3.3 3.4 0 0.9-0.4 1.8-1.1 2.5l-3.3 3.2 0.5 0.6 3.2-3.2c1.2-1.3 1.6-2.3 1.6-3.4z" fill="#ee4633"/></svg><svg xmlns:xlink="http://www.w3.org/1999/xlink" id="Invite" xml:space="preserve" viewBox="90.9 52 35.4 33" version="1.1" y="70" x="0px" enable-background="new 100.9 62 15.4 13" width="35" height="35"><g fill="#889197">	<path d="m108.4 69c1.2-0.6 2.1-1.8 2.1-3.3 0-2-1.6-3.7-3.7-3.7s-3.7 1.6-3.7 3.7c0 1.5 0.9 2.7 2.1 3.3-2.5 0.7-4.3 3-4.3 5.7 0 0.2 0.2 0.4 0.4 0.4s0.4-0.2 0.4-0.4c0-2.9 2.3-5.2 5.2-5.2s5.2 2.3 5.2 5.2c0 0.2 0.2 0.4 0.4 0.4s0.4-0.2 0.4-0.4c-0.2-2.8-2-5.1-4.5-5.7zm-4.6-3.3c0-1.6 1.3-3 3-3s3 1.3 3 3-1.3 3-3 3c-1.6-0.1-3-1.4-3-3z"/>	<path d="m115.9 68.4h-1.9v-1.9c0-0.2-0.2-0.4-0.4-0.4s-0.4 0.2-0.4 0.4v1.9h-1.9c-0.2 0-0.4 0.2-0.4 0.4s0.2 0.4 0.4 0.4h1.9v1.8c0 0.2 0.2 0.4 0.4 0.4s0.4-0.2 0.4-0.4v-1.9h1.9c0.2 0 0.4-0.2 0.4-0.4s-0.2-0.3-0.4-0.3z"/></g></svg><svg xmlns:xlink="http://www.w3.org/1999/xlink" id="Invite_hover" xml:space="preserve" viewBox="90.9 52 35.4 33" version="1.1" y="105" x="0px" enable-background="new 100.9 62 15.4 13" width="35" height="35"><g fill="#00b7f3">	<path d="m108.4 69c1.2-0.6 2.1-1.8 2.1-3.3 0-2-1.6-3.7-3.7-3.7s-3.7 1.6-3.7 3.7c0 1.5 0.9 2.7 2.1 3.3-2.5 0.7-4.3 3-4.3 5.7 0 0.2 0.2 0.4 0.4 0.4s0.4-0.2 0.4-0.4c0-2.9 2.3-5.2 5.2-5.2s5.2 2.3 5.2 5.2c0 0.2 0.2 0.4 0.4 0.4s0.4-0.2 0.4-0.4c-0.2-2.8-2-5.1-4.5-5.7zm-4.6-3.3c0-1.6 1.3-3 3-3s3 1.3 3 3-1.3 3-3 3c-1.6-0.1-3-1.4-3-3z"/>	<path d="m115.9 68.4h-1.9v-1.9c0-0.2-0.2-0.4-0.4-0.4s-0.4 0.2-0.4 0.4v1.9h-1.9c-0.2 0-0.4 0.2-0.4 0.4s0.2 0.4 0.4 0.4h1.9v1.8c0 0.2 0.2 0.4 0.4 0.4s0.4-0.2 0.4-0.4v-1.9h1.9c0.2 0 0.4-0.2 0.4-0.4s-0.2-0.3-0.4-0.3z"/></g></svg><svg xmlns:sketch="http://www.bohemiancoding.com/sketch/ns" xmlns:xlink="http://www.w3.org/1999/xlink" id="clip" xml:space="preserve" viewBox="-47 29 44 44" version="1.1" y="140" x="0px" enable-background="new -37 39 24 24" width="35" height="35"><title/><desc/><g id="clip-miu">	<g id="clip-Artboard-1" transform="translate(-827 -227)">		<path id="clip-editor-attachment-paper-clip-2" d="m804.6 269.5l-9.5 9.5s-3.6 3.6-0.4 6.8 6.8-0.4 6.8-0.4l9.5-9.5c0.4-0.4-0.3-1.1-0.7-0.7l-9.5 9.5s-2.6 3.1-5.3 0.4c-2.5-2.5 0.4-5.3 0.4-5.3l9.5-9.5s1.8-1.8 3.5 0c1.8 1.8 0 3.5 0 3.5l-9.5 9.5s-1.1 1.1-2.1 0.1 0-2.2 0-2.2l9-9c0.4-0.4-0.3-1.1-0.7-0.7l-9 9s-2 1.8-0.1 3.7c1.7 1.7 3.6-0.2 3.6-0.2l9.5-9.5s2.5-2.5 0-5-5 0-5 0z" fill="#94A1A9"/>	</g></g></svg><svg xmlns:sketch="http://www.bohemiancoding.com/sketch/ns" xmlns:xlink="http://www.w3.org/1999/xlink" id="clip_hover" xml:space="preserve" viewBox="-47 29 44 44" version="1.1" y="175" x="0px" enable-background="new -37 39 24 24" width="35" height="35"><title/><desc/><g id="clip_hover-miu">	<g id="clip_hover-Artboard-1" transform="translate(-827 -227)">		<path id="clip_hover-editor-attachment-paper-clip-2" d="m804.6 269.5l-9.5 9.5s-3.6 3.6-0.4 6.8 6.8-0.4 6.8-0.4l9.5-9.5c0.4-0.4-0.3-1.1-0.7-0.7l-9.5 9.5s-2.6 3.1-5.3 0.4c-2.5-2.5 0.4-5.3 0.4-5.3l9.5-9.5s1.8-1.8 3.5 0c1.8 1.8 0 3.5 0 3.5l-9.5 9.5s-1.1 1.1-2.1 0.1 0-2.2 0-2.2l9-9c0.4-0.4-0.3-1.1-0.7-0.7l-9 9s-2 1.8-0.1 3.7c1.7 1.7 3.6-0.2 3.6-0.2l9.5-9.5s2.5-2.5 0-5-5 0-5 0z" fill="#00b7f3"/>	</g></g></svg><svg xmlns:sketch="http://www.bohemiancoding.com/sketch/ns" xmlns:xlink="http://www.w3.org/1999/xlink" id="delete_icon" xml:space="preserve" viewBox="-47 29 44 44" version="1.1" y="210" x="0px" enable-background="new -37 39 24 24" width="35" height="35"><title/><desc/><g id="delete_icon-miu">	<g id="delete_icon-Artboard-1" transform="translate(-899 -479)">		<path id="delete_icon-editor-trash-delete-recycle-bin-glyph" d="m865 520s-0.5 0-0.5 1 0.5 1 0.5 1h18s0.5 0 0.5-1-0.5-1-0.5-1h-18zm0.5 3h17l-2 18h-13l-2-18zm7-4c-1 0-1 1-1 1h5s0-1-1-1h-3zm-2 20h1l-1-16h-1l1 16zm7-16l-1 16h1l1-16h-1zm-4 0v16h1v-16h-1z" fill="#94A1A9"/>	</g></g></svg><svg xmlns:sketch="http://www.bohemiancoding.com/sketch/ns" xmlns:xlink="http://www.w3.org/1999/xlink" id="delete_icon_hover" xml:space="preserve" viewBox="-47 29 44 44" version="1.1" y="245" x="0px" enable-background="new -37 39 24 24" width="35" height="35"><title/><desc/><g id="delete_icon_hover-miu">	<g id="delete_icon_hover-Artboard-1" transform="translate(-899 -479)">		<path id="delete_icon_hover-editor-trash-delete-recycle-bin-glyph" d="m865 520s-0.5 0-0.5 1 0.5 1 0.5 1h18s0.5 0 0.5-1-0.5-1-0.5-1h-18zm0.5 3h17l-2 18h-13l-2-18zm7-4c-1 0-1 1-1 1h5s0-1-1-1h-3zm-2 20h1l-1-16h-1l1 16zm7-16l-1 16h1l1-16h-1zm-4 0v16h1v-16h-1z" fill="#00b7f3"/>	</g></g></svg><svg xmlns:sketch="http://www.bohemiancoding.com/sketch/ns" xmlns:xlink="http://www.w3.org/1999/xlink" id="edit_icon" xml:space="preserve" viewBox="509.7 406.4 34.2 34" version="1.1" y="280" x="0px" enable-background="new 519.7 416.4 14.2 14" width="35" height="35"><title/><desc/><path d="m533.3 420.7l-0.6 0.6-3.7-3.7 0.6-0.6c0.7-0.7 1.8-0.7 2.5 0l1.2 1.2c0.7 0.6 0.7 1.8 0 2.5zm-8.7 7.4c-0.2 0.2-0.2 0.4 0 0.6s0.4 0.2 0.6 0l6.9-6.9-0.6-0.6-6.9 6.9zm-3.1-3.1c-0.2 0.2-0.2 0.4 0 0.6s0.4 0.2 0.6 0l6.9-6.9-0.6-0.6-6.9 6.9zm8.1-5.7l-6.9 6.9c-0.4 0.4-0.4 0.9 0 1.2 0.4 0.4 0.9 0.4 1.2 0l6.9-6.9-1.2-1.2zm-5.6 10.1c-0.2-0.2-0.4-0.4-0.4-0.8h-0.3c-0.4 0-0.9-0.2-1.2-0.5-0.4-0.4-0.5-0.8-0.5-1.2v-0.3c-0.3 0-0.5-0.2-0.8-0.4 0 0 0-0.1-0.1-0.1l-1.1 4.3 4.4-1c0.1 0 0.1 0 0 0z" fill="#889197"/></svg><svg xmlns:sketch="http://www.bohemiancoding.com/sketch/ns" xmlns:xlink="http://www.w3.org/1999/xlink" id="edit_icon_hover" xml:space="preserve" viewBox="509.7 406.4 34.2 34" version="1.1" y="315" x="0px" enable-background="new 519.7 416.4 14.2 14" width="35" height="35"><title/><desc/><path d="m533.3 420.7l-0.6 0.6-3.7-3.7 0.6-0.6c0.7-0.7 1.8-0.7 2.5 0l1.2 1.2c0.7 0.6 0.7 1.8 0 2.5zm-8.7 7.4c-0.2 0.2-0.2 0.4 0 0.6s0.4 0.2 0.6 0l6.9-6.9-0.6-0.6-6.9 6.9zm-3.1-3.1c-0.2 0.2-0.2 0.4 0 0.6s0.4 0.2 0.6 0l6.9-6.9-0.6-0.6-6.9 6.9zm8.1-5.7l-6.9 6.9c-0.4 0.4-0.4 0.9 0 1.2 0.4 0.4 0.9 0.4 1.2 0l6.9-6.9-1.2-1.2zm-5.6 10.1c-0.2-0.2-0.4-0.4-0.4-0.8h-0.3c-0.4 0-0.9-0.2-1.2-0.5-0.4-0.4-0.5-0.8-0.5-1.2v-0.3c-0.3 0-0.5-0.2-0.8-0.4 0 0 0-0.1-0.1-0.1l-1.1 4.3 4.4-1c0.1 0 0.1 0 0 0z" fill="#00b7f3"/></svg><svg xmlns:xlink="http://www.w3.org/1999/xlink" id="icon-camera" xml:space="preserve" viewBox="196 -216 532 532" version="1.1" y="350" x="0px" enable-background="new 206 -206 512 512" width="35" height="35"><g fill="#94A1A9">	<path d="m636.4-59h-67.5l-40.4-40.8s-0.2-0.2-0.3-0.2l-0.2-0.2c-6-6-14.1-9.8-23.3-9.8h-84c-9.8 0-18.5 4.2-24.6 10.9v0.1l-39.5 40h-69c-18.6 0-33.6 14.6-33.6 33.2v202.1c0 18.6 15 33.7 33.6 33.7h348.8c18.5 0 33.6-15.1 33.6-33.7v-202.1c0-18.6-15.1-33.2-33.6-33.2zm-174.4 218.5c-50.9 0-92.4-41.6-92.4-92.6 0-51.1 41.5-92.6 92.4-92.6 51 0 92.4 41.5 92.4 92.6 0 51-41.4 92.6-92.4 92.6zm168.1-165c-7.7 0-14-6.3-14-14.1s6.3-14.1 14-14.1c7.7 0 14 6.3 14 14.1s-6.3 14.1-14 14.1z"/>	<path d="m462-3.1c-38.6 0-69.8 31.3-69.8 70 0 38.6 31.2 70 69.8 70 38.5 0 69.8-31.3 69.8-70s-31.3-70-69.8-70z"/></g></svg><svg xmlns:xlink="http://www.w3.org/1999/xlink" id="icon-camera_hover" xml:space="preserve" viewBox="196 -216 532 532" version="1.1" y="385" x="0px" enable-background="new 206 -206 512 512" width="35" height="35"><g fill="#00b7f3">	<path d="m636.4-59h-67.5l-40.4-40.8s-0.2-0.2-0.3-0.2l-0.2-0.2c-6-6-14.1-9.8-23.3-9.8h-84c-9.8 0-18.5 4.2-24.6 10.9v0.1l-39.5 40h-69c-18.6 0-33.6 14.6-33.6 33.2v202.1c0 18.6 15 33.7 33.6 33.7h348.8c18.5 0 33.6-15.1 33.6-33.7v-202.1c0-18.6-15.1-33.2-33.6-33.2zm-174.4 218.5c-50.9 0-92.4-41.6-92.4-92.6 0-51.1 41.5-92.6 92.4-92.6 51 0 92.4 41.5 92.4 92.6 0 51-41.4 92.6-92.4 92.6zm168.1-165c-7.7 0-14-6.3-14-14.1s6.3-14.1 14-14.1c7.7 0 14 6.3 14 14.1s-6.3 14.1-14 14.1z"/>	<path d="m462-3.1c-38.6 0-69.8 31.3-69.8 70 0 38.6 31.2 70 69.8 70 38.5 0 69.8-31.3 69.8-70s-31.3-70-69.8-70z"/></g></svg><svg xmlns:xlink="http://www.w3.org/1999/xlink" id="like" xml:space="preserve" viewBox="156.7 123.3 686.7 620" version="1.1" y="420" x="0px" enable-background="new 166.7 133.3 666.7 600" width="35" height="35"><path d="m646.7 133.3c-60 0-113.3 30-146.7 76.7-33.3-46.7-86.7-76.7-146.7-76.7-103.3 0-186.7 83.3-186.7 186.7 0 146.7 333.3 413.3 333.3 413.3s333.4-266.6 333.4-413.3c0-103.3-83.3-186.7-186.6-186.7z" fill="#889197"/></svg><svg xmlns:xlink="http://www.w3.org/1999/xlink" id="like_hover" xml:space="preserve" viewBox="156.7 123.3 686.7 620" version="1.1" y="455" x="0px" enable-background="new 166.7 133.3 666.7 600" width="35" height="35"><path d="m646.7 133.3c-60 0-113.3 30-146.7 76.7-33.3-46.7-86.7-76.7-146.7-76.7-103.3 0-186.7 83.3-186.7 186.7 0 146.7 333.3 413.3 333.3 413.3s333.4-266.6 333.4-413.3c0-103.3-83.3-186.7-186.6-186.7z" fill="#00b7f3"/></svg><svg xmlns:xlink="http://www.w3.org/1999/xlink" id="share" xml:space="preserve" viewBox="-27 9 84 84" version="1.1" y="490" x="0px" enable-background="new -17 19 64 64" width="35" height="35"><path d="m31 58.3c-2.4 0-4.5 1-6 2.6l-17.8-8.7c0.1-0.4 0.1-0.8 0.1-1.2s0-0.8-0.1-1.2l17.7-8.6c1.5 1.6 3.7 2.6 6.1 2.6 4.6 0 8.3-3.7 8.3-8.3s-3.7-8.3-8.3-8.3-8.3 3.7-8.3 8.3c0 0.4 0 0.8 0.1 1.2l-17.7 8.5c-1.5-1.6-3.7-2.6-6.1-2.6-4.6 0-8.3 3.7-8.3 8.3s3.7 8.3 8.3 8.3c2.4 0 4.5-1 6-2.6l17.7 8.7c-0.1 0.4-0.1 0.8-0.1 1.2 0 4.6 3.7 8.3 8.3 8.3s8.3-3.7 8.3-8.3c0.1-4.5-3.6-8.2-8.2-8.2z" fill="#94A1A9"/></svg><svg xmlns:xlink="http://www.w3.org/1999/xlink" id="share_hover" xml:space="preserve" viewBox="-27 9 84 84" version="1.1" y="525" x="0px" enable-background="new -17 19 64 64" width="35" height="35"><path d="m31 58.3c-2.4 0-4.5 1-6 2.6l-17.8-8.7c0.1-0.4 0.1-0.8 0.1-1.2s0-0.8-0.1-1.2l17.7-8.6c1.5 1.6 3.7 2.6 6.1 2.6 4.6 0 8.3-3.7 8.3-8.3s-3.7-8.3-8.3-8.3-8.3 3.7-8.3 8.3c0 0.4 0 0.8 0.1 1.2l-17.7 8.5c-1.5-1.6-3.7-2.6-6.1-2.6-4.6 0-8.3 3.7-8.3 8.3s3.7 8.3 8.3 8.3c2.4 0 4.5-1 6-2.6l17.7 8.7c-0.1 0.4-0.1 0.8-0.1 1.2 0 4.6 3.7 8.3 8.3 8.3s8.3-3.7 8.3-8.3c0.1-4.5-3.6-8.2-8.2-8.2z" fill="#00b7f3"/></svg></svg>
