<?xml version="1.0" encoding="utf-8"?>
<!-- Generator: Adobe Illustrator 18.1.1, SVG Export Plug-In . SVG Version: 6.00 Build 0)  -->
<svg version="1.1" id="Layer_1" xmlns="http://www.w3.org/2000/svg" xmlns:xlink="http://www.w3.org/1999/xlink" x="0px" y="0px"
	 viewBox="518.9 325.4 18.8 17" enable-background="new 518.9 325.4 18.8 17" xml:space="preserve">
<path fill="#43C0EF" d="M537.7,330.9c0-3-2.4-5.5-5.5-5.5c-1.5,0-2.8,0.6-3.9,1.6c-1.1-1.1-2.4-1.6-3.9-1.6c-3,0-5.5,2.4-5.5,5.5
	c0,1.4,0.5,2.7,1.6,3.8l7.4,7.5c0.1,0.1,0.2,0.2,0.4,0.2c0.2,0,0.3-0.1,0.4-0.2l1.8-1.8l-0.7-0.8l-1.5,1.5l-7-7
	c-0.7-0.8-1.3-1.9-1.3-3c0-2.4,2-4.4,4.3-4.4c1.4,0,2.6,0.6,3.5,1.7c0.2,0.3,0.6,0.3,0.8,0c0.8-1.1,2.1-1.7,3.5-1.7
	c2.4,0,4.3,2,4.3,4.4c0,1.2-0.5,2.3-1.4,3.2l-4.2,4.2l0.7,0.8l4.2-4.2C537.1,333.7,537.7,332.3,537.7,330.9z"/>
</svg>
