<?xml version="1.0" encoding="utf-8"?>
<!-- Generator: Adobe Illustrator 18.1.1, SVG Export Plug-In . SVG Version: 6.00 Build 0)  -->
<svg version="1.1" id="Шар_1" xmlns="http://www.w3.org/2000/svg" xmlns:xlink="http://www.w3.org/1999/xlink" x="0px" y="0px"
	 viewBox="115 175.6 20.1 19" enable-background="new 115 175.6 20.1 19" xml:space="preserve">
<g id="Expanded">
	<g>
		<g>
			<path fill="#43C0EF" d="M132.5,194.6h-5.9v-5.4h-3.3v5.4h-5.9v-8.8c0-0.3,0.2-0.4,0.4-0.4c0.3,0,0.4,0.2,0.4,0.4v8h4.2v-5.4h5
				v5.4h4.2v-7.5c0-0.3,0.2-0.4,0.4-0.4s0.4,0.2,0.4,0.4V194.6z"/>
		</g>
		<g>
			<path fill="#43C0EF" d="M134.6,185.8c-0.1,0-0.2,0-0.3-0.1l-9.3-8.9l-9.3,8.9c-0.2,0.2-0.4,0.2-0.6,0c-0.2-0.2-0.2-0.4,0-0.6
				l9.9-9.5l9.9,9.5c0.2,0.2,0.2,0.4,0,0.6C134.8,185.8,134.8,185.8,134.6,185.8z"/>
		</g>
		<g>
			<path fill="#43C0EF" d="M131.3,180.8c-0.3,0-0.4-0.2-0.4-0.4v-2.5h-2.5c-0.3,0-0.4-0.2-0.4-0.4c0-0.3,0.2-0.4,0.4-0.4h3.3v3.3
				C131.7,180.6,131.5,180.8,131.3,180.8z"/>
		</g>
	</g>
</g>
</svg>
