<?xml version="1.0" encoding="utf-8"?>
<!-- Generator: Adobe Illustrator 18.1.1, SVG Export Plug-In . SVG Version: 6.00 Build 0)  -->
<svg version="1.1" id="Шар_1" xmlns="http://www.w3.org/2000/svg" xmlns:xlink="http://www.w3.org/1999/xlink" x="0px" y="0px"
	 viewBox="138 141 23.9 18" enable-background="new 138 141 23.9 18" xml:space="preserve">
<g>
	<path fill="#43C0EF" d="M160.5,159h-20.9c-0.9,0-1.5-0.5-1.5-1.3v-13.5c0-0.7,0.7-1.3,1.5-1.3h20.9c0.9,0,1.5,0.5,1.5,1.3v13.5
		C162,158.4,161.3,159,160.5,159z M139.5,143.9c-0.3,0-0.5,0.2-0.5,0.3v13.5c0,0.1,0.2,0.3,0.5,0.3h20.9c0.3,0,0.5-0.2,0.5-0.3
		v-13.5c0-0.1-0.2-0.3-0.5-0.3H139.5z"/>
</g>
<g>
	<path fill="#43C0EF" d="M150,157.8c-3.8,0-6.8-3.1-6.8-6.8s3.1-6.8,6.8-6.8s6.8,3.1,6.8,6.8S153.8,157.8,150,157.8z M150,145.2
		c-3.2,0-5.8,2.6-5.8,5.8c0,3.2,2.6,5.8,5.8,5.8s5.8-2.6,5.8-5.8C155.8,147.8,153.2,145.2,150,145.2z"/>
</g>
<g>
	<path fill="#43C0EF" d="M150,156.2c-2.9,0-5.2-2.3-5.2-5.2s2.3-5.2,5.2-5.2s5.2,2.3,5.2,5.2S152.9,156.2,150,156.2z M150,146.8
		c-2.3,0-4.2,1.9-4.2,4.2c0,2.3,1.9,4.2,4.2,4.2s4.2-1.9,4.2-4.2C154.2,148.6,152.3,146.8,150,146.8z"/>
</g>
<g>
	<path fill="#43C0EF" d="M143.6,143.8h-4v-0.5c0-1.3,0.9-2.3,2-2.3c1.1,0,2,1.1,2,2.3V143.8z M140.7,142.8h1.8
		c-0.2-0.5-0.6-0.8-1-0.8C141.2,142,140.8,142.3,140.7,142.8z"/>
</g>
</svg>
