<?xml version="1.0" encoding="utf-8"?>
<!-- Generator: Adobe Illustrator 18.1.1, SVG Export Plug-In . SVG Version: 6.00 Build 0)  -->
<svg version="1.1" id="Шар_1" xmlns="http://www.w3.org/2000/svg" xmlns:xlink="http://www.w3.org/1999/xlink" x="0px" y="0px"
	 viewBox="142.6 139.2 17.5 16.5" enable-background="new 142.6 139.2 17.5 16.5" xml:space="preserve">
<g>
	<path fill="#43C0EF" d="M158.8,155.7h-15v-0.1c-0.7,0-1.2-0.5-1.2-1.2v-13c0-0.7,0.6-1.2,1.2-1.2h15c0.7,0,1.2,0.6,1.2,1.2v13.1
		C160.1,155.1,159.5,155.7,158.8,155.7z M143.8,154.7h15c0.1,0,0.2-0.1,0.2-0.2v-13.1c0-0.1-0.1-0.2-0.2-0.2h-15
		c-0.1,0-0.2,0.1-0.2,0.2v13C143.6,154.5,143.7,154.6,143.8,154.7L143.8,154.7z"/>
</g>
<g>
	<rect x="143.2" y="143.9" fill="#43C0EF" width="16.5" height="1"/>
</g>
<g>
	<rect x="147.3" y="147.3" fill="#43C0EF" width="8" height="1"/>
</g>
<g>
	<rect x="148" y="150.3" fill="#43C0EF" width="6.6" height="1"/>
</g>
<g>
	<rect x="146.8" y="139.2" fill="#43C0EF" width="1" height="2.5"/>
</g>
<g>
	<rect x="154.8" y="139.2" fill="#43C0EF" width="1" height="2.5"/>
</g>
</svg>
