<?xml version="1.0" encoding="utf-8"?>
<!-- Generator: Adobe Illustrator 18.1.1, SVG Export Plug-In . SVG Version: 6.00 Build 0)  -->
<svg version="1.1" id="Шар_1" xmlns="http://www.w3.org/2000/svg" xmlns:xlink="http://www.w3.org/1999/xlink" x="0px" y="0px"
	 viewBox="161.5 160 19.2 17" enable-background="new 161.5 160 19.2 17" xml:space="preserve">
<g>
	<path fill="#43C0EF" d="M179.4,177h-16.6c-0.7,0-1.3-0.6-1.3-1.3v-14.4c0-0.7,0.6-1.3,1.3-1.3h16.6c0.7,0,1.3,0.6,1.3,1.3v14.4
		C180.7,176.4,180.1,177,179.4,177z M162.7,161c-0.2,0-0.3,0.1-0.3,0.3v14.4c0,0.2,0.1,0.3,0.3,0.3h16.6c0.2,0,0.3-0.1,0.3-0.3
		v-14.4c0-0.2-0.1-0.3-0.3-0.3H162.7z"/>
</g>
<g>
	<path fill="#43C0EF" d="M177.8,168.7h-7.1c-0.7,0-1.3-0.6-1.3-1.3v-6.1c0-0.7,0.6-1.3,1.3-1.3h7.1c0.7,0,1.3,0.6,1.3,1.3v6
		C179.1,168.1,178.5,168.7,177.8,168.7z M170.7,161c-0.2,0-0.3,0.1-0.3,0.3v6.1c0,0.2,0.1,0.3,0.3,0.3h7.1c0.1,0,0.3-0.2,0.3-0.4v-6
		c0-0.2-0.1-0.3-0.3-0.3H170.7z"/>
</g>
<g>
	<path fill="#43C0EF" d="M179.1,176.9h-3.4l-0.1-0.1c-0.2-0.2-0.2-0.5-0.2-0.6v-0.7c0-0.7,0.6-1.3,1.3-1.3h1.3
		c0.7,0,1.3,0.6,1.3,1.3v0.7c0,0.1-0.1,0.3-0.1,0.3V176.9z M176.2,175.9h1.9v-0.5c0-0.2-0.1-0.3-0.3-0.3h-1.3
		c-0.2,0-0.3,0.1-0.3,0.3V175.9z"/>
</g>
</svg>
