<?xml version="1.0" encoding="utf-8"?>
<!-- Generator: Adobe Illustrator 18.1.1, SVG Export Plug-In . SVG Version: 6.00 Build 0)  -->
<svg version="1.1" id="Layer_1" xmlns="http://www.w3.org/2000/svg" xmlns:xlink="http://www.w3.org/1999/xlink" x="0px" y="0px"
	 viewBox="386.2 140.7 18.9 22" enable-background="new 386.2 140.7 18.9 22" xml:space="preserve">
<path id="XMLID_27_" fill="#43C0EF" d="M398.7,144.4L398.7,144.4c-0.1,0.4-0.2,0.8-0.3,1.2c1,0.4,2,1,2.8,1.8
	c-0.7,0.4-1.4,0.8-2.1,1.2c-0.3-0.8-0.8-1.5-1.2-2.2c-0.1,0.2-0.3,0.3-0.4,0.5c0.4,0.6,0.8,1.2,1.1,1.9c-0.9,0.3-1.8,0.5-2.7,0.5
	h-0.7c-1,0-1.9-0.2-2.7-0.5c0.2-0.7,0.6-1.3,1-1.9c-0.1-0.2-0.3-0.3-0.4-0.5c-0.5,0.7-0.9,1.4-1.2,2.2c-0.8-0.4-1.5-0.8-2.1-1.3
	c0.8-0.7,1.8-1.3,2.8-1.7c-0.2-0.4-0.3-0.8-0.4-1.2c-3.6,1.4-6.1,4.8-6.1,8.9c0,5.2,4.2,9.5,9.5,9.5c5.3,0,9.5-4.2,9.5-9.5
	C405,149.2,402.4,145.7,398.7,144.4z M389.5,147.8c0.7,0.5,1.4,1,2.3,1.3c-0.5,1.2-0.7,2.5-0.7,3.8h-3.7
	C387.4,150.9,388.3,149.2,389.5,147.8z M387.3,153.5h3.6c0,1.5,0.4,3,0.9,4.3c-0.8,0.3-1.5,0.7-2.1,1.2
	C388.4,157.6,387.4,155.7,387.3,153.5z M390.3,159.4c0.6-0.4,1.2-0.8,1.9-1c0.5,1.1,1.2,2.1,2,2.9
	C392.6,161.1,391.3,160.4,390.3,159.4z M395.2,161.5L395.2,161.5c-1-0.8-1.9-1.9-2.5-3.2c0.8-0.2,1.6-0.4,2.5-0.4V161.5z
	 M395.2,157.2c-1,0-1.9,0.2-2.7,0.5c-0.5-1.2-0.8-2.6-0.9-4.1h3.6V157.2L395.2,157.2z M395.2,152.9h-3.6c0-1.3,0.3-2.5,0.7-3.6
	c0.9,0.3,1.8,0.5,2.9,0.6L395.2,152.9L395.2,152.9z M401.7,147.8c1.2,1.4,2,3.2,2.1,5.1h-3.6c0-1.3-0.3-2.6-0.7-3.8
	C400.1,148.8,400.9,148.3,401.7,147.8z M395.8,149.9c1,0,2-0.2,3-0.5c0.4,1.1,0.6,2.3,0.7,3.6h-3.7L395.8,149.9L395.8,149.9z
	 M395.8,153.5h3.6c0,1.5-0.3,2.9-0.9,4.1c-0.9-0.3-1.8-0.4-2.7-0.5L395.8,153.5L395.8,153.5z M395.8,161.5L395.8,161.5v-3.6
	c0.9,0,1.7,0.2,2.5,0.4C397.7,159.4,396.8,160.5,395.8,161.5z M396.8,161.4c0.8-0.8,1.5-1.8,2-2.9c0.7,0.3,1.3,0.6,1.9,1
	C399.7,160.4,398.3,161.1,396.8,161.4z M401.2,159c-0.7-0.5-1.4-0.9-2.1-1.2c0.5-1.3,0.9-2.8,0.9-4.3h3.6
	C403.7,155.7,402.8,157.6,401.2,159z"/>
<g id="Livello_110">
	<g id="XMLID_6_">
		<path id="XMLID_7_" fill="#43C0EF" d="M395.5,149.7L395.5,149.7c-0.1,0-0.2-0.1-0.2-0.1l-2.4-3.5c-0.5-0.6-0.8-1.4-0.8-2.1
			c0-1.9,1.5-3.4,3.4-3.4c1.9,0,3.4,1.5,3.4,3.4c0,0.6-0.1,1.1-0.4,1.6c0,0,0,0,0,0.1c-0.1,0.2-0.2,0.3-0.3,0.4l-2.5,3.5
			C395.6,149.6,395.6,149.7,395.5,149.7z M395.5,149l2.3-3.2c0.1-0.1,0.2-0.2,0.2-0.3l0,0l0,0c0.3-0.4,0.4-0.9,0.4-1.4
			c0-1.6-1.3-2.9-2.9-2.9c-1.6,0-2.9,1.2-2.9,2.8c0,0.7,0.2,1.3,0.7,1.8l0.8,1.2 M394.1,146.9l1.4,2 M395.4,145.8
			c-1,0-1.8-0.8-1.8-1.8c0-1,0.8-1.8,1.8-1.8l0,0c1,0,1.8,0.8,1.8,1.8C397.2,145,396.4,145.8,395.4,145.8z M395.4,142.6
			c-0.7,0-1.3,0.6-1.3,1.4c0,0.8,0.6,1.3,1.3,1.3c0.7,0,1.3-0.6,1.3-1.3C396.7,143.3,396.2,142.6,395.4,142.6z"/>
	</g>
</g>
</svg>
