<?xml version="1.0" encoding="utf-8"?>
<!-- Generator: Adobe Illustrator 18.1.1, SVG Export Plug-In . SVG Version: 6.00 Build 0)  -->
<svg version="1.1" id="Шар_1" xmlns="http://www.w3.org/2000/svg" xmlns:xlink="http://www.w3.org/1999/xlink" x="0px" y="0px"
	 viewBox="0 0 160 81.2" enable-background="new 0 0 160 81.2" xml:space="preserve">
<g>
	<path fill="#E84640" d="M111.8,9.2H89.7v57.2h22.1c0-8.7,7-15.7,15.6-15.7V24.9C118.7,24.9,111.8,17.8,111.8,9.2z"/>
</g>
<g>
	<path fill="#E84735" d="M18.8,9.2c0,8.7-7,15.7-15.6,15.7v25.8c8.6,0,15.6,7,15.6,15.7h70.9V9.2H18.8z"/>
</g>
<g>
	<path fill="#414042" d="M115,69.6H15.6v-3.2c0-6.9-5.6-12.5-12.4-12.5H0V21.6h3.2c6.8,0,12.4-5.6,12.4-12.5V6H115v3.2
		c0,6.9,5.6,12.5,12.4,12.5h3.2v32.2h-3.2c-6.8,0-12.4,5.6-12.4,12.5V69.6z M21.7,63.1h87.1c1.3-7.8,7.5-14.1,15.3-15.4V27.8
		c-7.8-1.4-14-7.6-15.3-15.4H21.7c-1.3,7.8-7.5,14.1-15.3,15.4v19.9C14.2,49.1,20.4,55.3,21.7,63.1z"/>
</g>
<g>
	<g>
		<rect x="86.4" y="50.8" fill="#4E3E41" width="6.4" height="15.5"/>
	</g>
	<g>
		<g>
			<rect x="86.4" y="9.2" fill="#4E3E41" width="6.4" height="14.5"/>
		</g>
		<g>
			<rect x="86.4" y="30.1" fill="#4E3E41" width="6.4" height="14.3"/>
		</g>
	</g>
</g>
<g>
	<path fill="#FFFFFF" d="M133.1,3.8L111.4,8l10.8,56.1l21.7-4.2c-1.6-8.5,3.9-16.7,12.3-18.3l-4.9-25.3
		C142.9,17.8,134.7,12.3,133.1,3.8z"/>
</g>
<g>
	<path fill="#43C0EF" d="M41.8,21.3c1.6,8.5-3.9,16.7-12.3,18.3L34.3,65C42.8,63.4,51,69,52.6,77.5l69.6-13.4L111.4,8L41.8,21.3z"/>
</g>
<g>
	<path fill="#414042" d="M147.7,62.5L50.1,81.2l-0.6-3.2c-1.3-6.7-7.8-11.2-14.5-9.9l-3.1,0.6l-6.1-31.7l3.1-0.6
		c6.7-1.3,11.1-7.8,9.8-14.6L38,18.8L135.6,0l0.6,3.2c1.3,6.7,7.8,11.2,14.5,9.9l3.1-0.6l6.1,31.7l-3.1,0.6
		c-6.7,1.3-11.1,7.8-9.8,14.6L147.7,62.5z M54.9,73.7l85.5-16.5c-0.2-8,4.7-15.2,12.1-18l-3.8-19.5c-7.9,0.1-15.1-4.8-17.9-12.2
		L45.3,24c0.2,8-4.7,15.2-12.1,18l3.8,19.5C44.8,61.4,52.1,66.3,54.9,73.7z"/>
</g>
<g>
	<g>
		
			<rect x="113" y="53.3" transform="matrix(-0.189 -0.982 0.982 -0.189 88.0977 185.696)" fill="#414042" width="15.5" height="6.4"/>
	</g>
	<g>
		<g>
			
				<rect x="105.5" y="11.9" transform="matrix(0.189 0.982 -0.982 0.189 106.2314 -98.5115)" fill="#414042" width="14.5" height="6.4"/>
		</g>
		<g>
			
				<rect x="109.6" y="32.3" transform="matrix(-0.189 -0.982 0.982 -0.189 103.8773 156.8221)" fill="#414042" width="14.3" height="6.4"/>
		</g>
	</g>
</g>
</svg>
