<?xml version="1.0" encoding="utf-8"?>
<!-- Generator: Adobe Illustrator 18.1.1, SVG Export Plug-In . SVG Version: 6.00 Build 0)  -->
<svg version="1.1" id="Шар_1" xmlns="http://www.w3.org/2000/svg" xmlns:xlink="http://www.w3.org/1999/xlink" x="0px" y="0px"
	 viewBox="0 0 130 134.8" enable-background="new 0 0 130 134.8" xml:space="preserve">
<g>
	<path fill="#414042" d="M76.1,21.9L66,42.4l-21.4-6.6L34.2,56.6l-23.1-5.9L0,74.9l26.7,59.9l13.7-19.3l21.1,1.7l11.2-18l20.1,4.1
		l12.9-16.9l24.3,2.2l-26.6-59.9L76.1,21.9z"/>
</g>
<g>
	<polygon fill="#43C0EF" points="12.9,62.7 34.8,111.9 28,121.4 7.3,74.9 	"/>
</g>
<g>
	<polygon fill="#2980BA" points="33.6,63.3 54.4,110 40.8,108.9 18.8,59.6 	"/>
</g>
<g>
	<polygon fill="#43C0EF" points="77.7,33.7 99.7,83.3 92.2,93.2 71.4,46.5 	"/>
</g>
<g>
	<polygon fill="#2980BA" points="98.6,34.4 119.3,81 105.5,79.7 83.6,30.7 	"/>
</g>
<g>
	<polygon fill="#43C0EF" points="46.2,47.6 67.3,95.2 60.2,106.6 39.7,60.6 	"/>
</g>
<g>
	<polygon fill="#2980BA" points="65.3,49.1 85.7,95.1 73.4,92.5 52.4,45.2 	"/>
</g>
<g>
	
		<rect x="19.9" y="15.4" transform="matrix(0.9297 -0.3683 0.3683 0.9297 -8.7622 21.1311)" fill="#FFFFFF" width="62.1" height="36.2"/>
	<path fill="#414042" d="M26.5,67L10.2,25.9L75.4,0l16.3,41.2L26.5,67z M20.7,30.4L31,56.6l50.2-19.9L70.9,10.5L20.7,30.4z"/>
</g>
<g>
	
		<rect x="36.1" y="25.4" transform="matrix(0.9297 -0.3683 0.3683 0.9297 -11.2934 27.7866)" fill="#EE4633" width="62.1" height="36.2"/>
	<path fill="#414042" d="M42.7,77L26.4,35.8L91.6,10l16.3,41.2L42.7,77z M36.8,40.3l10.4,26.2l50.2-19.9L87.1,20.4L36.8,40.3z"/>
</g>
<polygon fill="#FFFFFF" stroke="#FFFFFF" stroke-width="5" stroke-miterlimit="10" points="73.1,40.4 72.1,46 71,52.3 82.3,48.2 
	73.1,40.4 71,52.3 82.3,48.2 "/>
<polygon fill="#FFFFFF" stroke="#FFFFFF" stroke-width="5" stroke-miterlimit="10" points="60.7,37 59.2,46.5 57.5,57.3 76.6,50 
	60.7,37 57.5,57.3 76.6,50 "/>
<polygon fill="#EE4633" points="61.7,47.5 62.2,44 64.7,47.6 65.2,44.8 68.8,46.6 67,42.2 60.7,37 59.2,46.5 "/>
<polygon fill="#EE4633" points="74.1,47.1 74.4,45.1 75.8,47.2 76.1,45.6 78.2,46.7 77.2,44 73.6,41 72.6,46.5 "/>
</svg>
