<?xml version="1.0" encoding="utf-8"?>
<!-- Generator: Adobe Illustrator 18.1.1, SVG Export Plug-In . SVG Version: 6.00 Build 0)  -->
<svg version="1.1" id="Шар_1" xmlns="http://www.w3.org/2000/svg" xmlns:xlink="http://www.w3.org/1999/xlink" x="0px" y="0px"
	 viewBox="0 0 156 110.1" enable-background="new 0 0 156 110.1" xml:space="preserve">
<g>
	<polygon fill="#414042" points="119.6,93.4 114.9,92.4 128.8,28.1 40.5,56.6 39,52 135.3,21 	"/>
</g>
<g>
	<circle fill="#EE4633" cx="128.5" cy="27.5" r="25.3"/>
</g>
<g>
	<g>
		<path fill="#414042" d="M128.5,0C113.3,0,101,12.3,101,27.5c0,15.2,12.3,27.5,27.5,27.5c15.2,0,27.5-12.3,27.5-27.5
			C156,12.3,143.7,0,128.5,0z M128.5,50.6c-12.7,0-23.1-10.4-23.1-23.1c0-12.7,10.4-23.1,23.1-23.1c12.7,0,23.1,10.4,23.1,23.1
			C151.6,40.2,141.2,50.6,128.5,50.6z"/>
	</g>
</g>
<g>
	<path fill="#FFFFFF" d="M133.3,21.3c1.1-1.1,1.7-2.6,1.7-4.2c0-3.4-2.7-6.1-6.1-6.1c-3.4,0-6.1,2.7-6.1,6.1c0,1.7,0.7,3.2,1.8,4.3
		c-3,4.1-5.7,10.9-1.6,20.5h11.6C134.6,41.9,140.9,31.4,133.3,21.3z"/>
</g>
<g>
	<path fill="#4E3E41" d="M135.4,43.4h-13.4l-0.4-0.9c-4-9.6-1.8-16.6,1.1-21c-0.9-1.3-1.4-2.8-1.4-4.4c0-4.2,3.4-7.6,7.6-7.6
		c4.2,0,7.6,3.4,7.6,7.6c0,1.5-0.5,3-1.3,4.3c2.8,4.3,3.9,9.2,3.1,14.3c-0.7,4.1-2.4,6.9-2.4,7L135.4,43.4z M123.9,40.4h9.7
		c1.2-2.4,4.4-10.4-1.5-18.2l-0.8-1l0.9-0.9c0.8-0.9,1.3-2,1.3-3.2c0-2.6-2.1-4.6-4.6-4.6c-2.6,0-4.6,2.1-4.6,4.6
		c0,1.2,0.5,2.4,1.3,3.3l0.9,0.9l-0.7,1C123.1,25.9,120.7,31.9,123.9,40.4z"/>
</g>
<g>
	<circle fill="#2980BA" cx="119.1" cy="88.4" r="19.8"/>
</g>
<g>
	<g>
		<path fill="#414042" d="M119.1,66.8c-11.9,0-21.6,9.7-21.6,21.6c0,11.9,9.7,21.7,21.6,21.7c11.9,0,21.7-9.7,21.7-21.7
			C140.8,76.5,131.1,66.8,119.1,66.8z M119.1,106.3c-9.9,0-17.9-8-17.9-17.9c0-9.9,8-17.9,17.9-17.9c9.9,0,17.9,8,17.9,17.9
			C137,98.3,129,106.3,119.1,106.3z"/>
	</g>
</g>
<g>
	<path fill="#FFFFFF" d="M122.9,84.9c0.8-0.9,1.3-2,1.3-3.3c0-2.6-2.1-4.8-4.8-4.8c-2.6,0-4.8,2.1-4.8,4.8c0,1.3,0.5,2.5,1.4,3.4
		c-2.3,3.2-4.4,8.5-1.3,16.1h9.1C123.8,101.1,128.8,92.8,122.9,84.9z"/>
</g>
<g>
	<path fill="#4E3E41" d="M124.5,102.2H114l-0.3-0.7c-3.1-7.5-1.4-13,0.9-16.4c-0.7-1-1.1-2.2-1.1-3.4c0-3.3,2.7-6,6-6
		c3.3,0,6,2.7,6,6c0,1.2-0.4,2.4-1,3.4c2.2,3.3,3,7.2,2.4,11.2c-0.5,3.2-1.8,5.4-1.9,5.5L124.5,102.2z M115.5,99.9h7.6
		c0.9-1.9,3.4-8.1-1.2-14.3l-0.6-0.8l0.7-0.7c0.6-0.7,1-1.6,1-2.5c0-2-1.6-3.6-3.6-3.6c-2,0-3.6,1.6-3.6,3.6c0,1,0.4,1.9,1,2.5
		l0.7,0.7l-0.6,0.8C114.9,88.5,113,93.2,115.5,99.9z"/>
</g>
<g>
	<circle fill="#43C0EF" cx="39.7" cy="50.2" r="37.5"/>
</g>
<g>
	<path fill="#414042" d="M39.7,89.9C17.8,89.9,0,72.1,0,50.2c0-21.9,17.8-39.7,39.7-39.7c21.9,0,39.7,17.8,39.7,39.7
		C79.5,72.1,61.7,89.9,39.7,89.9z M39.7,14.8c-19.5,0-35.3,15.8-35.3,35.3c0,19.5,15.8,35.3,35.3,35.3s35.3-15.8,35.3-35.3
		C75.1,30.7,59.2,14.8,39.7,14.8z"/>
</g>
<g>
	<path fill="#FFFFFF" d="M46.2,41.5c1.6-1.6,2.5-3.8,2.5-6.3c0-5-4.1-9.1-9.1-9.1s-9.1,4.1-9.1,9.1c0,2.5,1,4.7,2.6,6.4
		c-4.4,6-8.4,16.2-2.4,30.5H48C48,72.1,57.5,56.5,46.2,41.5z"/>
</g>
<g>
	<path fill="#4E3E41" d="M49.3,74.3h-20l-0.6-1.4c-5.9-14.2-2.6-24.6,1.7-31.2c-1.3-1.9-2.1-4.1-2.1-6.5c0-6.2,5.1-11.3,11.3-11.3
		C45.9,23.9,51,29,51,35.2c0,2.3-0.7,4.5-2,6.4c4.2,6.3,5.8,13.6,4.5,21.2c-1,6.1-3.5,10.3-3.6,10.5L49.3,74.3z M32.3,69.9h14.4
		c1.8-3.6,6.5-15.5-2.2-27.1l-1.1-1.5l1.3-1.4c1.2-1.3,1.9-3,1.9-4.8c0-3.8-3.1-6.9-6.9-6.9c-3.8,0-6.9,3.1-6.9,6.9
		c0,1.8,0.7,3.5,2,4.8l1.3,1.3L35,42.9C31,48.3,27.5,57.3,32.3,69.9z"/>
</g>
</svg>
