<?xml version="1.0" encoding="utf-8"?>
<!-- Generator: Adobe Illustrator 18.1.1, SVG Export Plug-In . SVG Version: 6.00 Build 0)  -->
<svg version="1.1" id="Шар_1" xmlns="http://www.w3.org/2000/svg" xmlns:xlink="http://www.w3.org/1999/xlink" x="0px" y="0px"
	 viewBox="0 0 92 134.9" enable-background="new 0 0 92 134.9" xml:space="preserve">
<g>
	<path fill="#42C0EE" d="M87.4,46C87.4,23.1,68.9,4.6,46,4.6C23.1,4.6,4.6,23.1,4.6,46c0,0.9,0,1.8,0.1,2.7c-0.1,0-0.1,0.1-0.1,0.1
		c0,1.9,0.4,4.3,1.2,6.9c0.7,2.9,1.7,5.7,3,8.4c10.5,25,37,62.9,37,62.9s41.7-57.1,41.7-78.2c0,0,0,0-0.1,0
		C87.4,47.9,87.4,46.9,87.4,46z"/>
	<path fill="#414042" d="M45.7,134.9l-3.7-5.2C40.9,128.1,15.1,91.2,4.6,66c-1.4-2.9-2.5-6-3.3-9.1C0.4,53.8,0,51.1,0,48.8
		c0-0.2,0-0.5,0.1-0.7C0,47.3,0,46.7,0,46C0,20.6,20.6,0,46,0c24.8,0,45.1,19.7,46,44.3l0,0v1.5c0,0.1,0,0.1,0,0.2c0,0,0,0.1,0,0.1
		l0,2.7c0,22-38.2,75-42.6,80.9L45.7,134.9z M9.4,51.6c0.2,0.9,0.4,1.9,0.7,2.9l0,0.2c0.6,2.6,1.5,5.1,2.7,7.5l0.1,0.2
		c7.9,18.8,25.3,45.4,32.9,56.7c12.1-17.2,33.7-50.6,36.7-66.9l0.2-3.7c0.1-1,0.1-1.8,0.1-2.5C82.9,25.7,66.3,9.1,46,9.1
		S9.1,25.7,9.1,46c0,0.7,0,1.5,0.1,2.4L9.4,51.6z"/>
</g>
<g>
	<g>
		<path fill="#EE4633" d="M61.6,28.6H30.4c-3.4,0-6.2,2-6.2,4.4v11.9c0,0,18.6-5.1,43.6,0V33C67.8,30.6,65,28.6,61.6,28.6z"/>
	</g>
</g>
<g>
	<g>
		<path fill="#414042" d="M22.4,47.2V33c0-3.5,3.5-6.2,8-6.2h31.2c4.5,0,8,2.7,8,6.2v14.1l-2.2-0.4c-7.3-1.5-14.7-2.2-22.1-2.2
			c-12.5,0-20.6,2.2-20.7,2.2L22.4,47.2z M45.4,40.8c6.9,0,13.8,0.6,20.6,1.9V33c0-1.2-1.8-2.6-4.4-2.6H30.4c-2.6,0-4.4,1.4-4.4,2.6
			v9.6C29.3,41.9,36.2,40.8,45.4,40.8z"/>
	</g>
</g>
<g>
	<g>
		<path fill="#FFFFFF" d="M43.7,43.9c0,0.8-1,1.5-2.1,1.5H30.8c-1.2,0-2.1-0.7-2.1-1.5v-7.5c0-0.8,1-1.5,2.1-1.5h10.8
			c1.2,0,2.1,0.7,2.1,1.5V43.9z"/>
	</g>
	<g>
		<path fill="#4E3E41" d="M41.6,46.1H30.8c-1.6,0-2.9-1-2.9-2.2v-7.5c0-1.3,1.3-2.2,2.9-2.2h10.8c1.6,0,2.9,1,2.9,2.2v7.5
			C44.5,45.1,43.2,46.1,41.6,46.1z M30.8,35.7c-0.8,0-1.4,0.4-1.4,0.7v7.5c0,0.3,0.5,0.7,1.4,0.7h10.8c0.8,0,1.4-0.4,1.4-0.7v-7.5
			c0-0.3-0.5-0.7-1.4-0.7H30.8z"/>
	</g>
</g>
<g>
	<g>
		<path fill="#FFFFFF" d="M64.1,43.9c0,0.8-1,1.5-2.1,1.5H51.2c-1.2,0-2.1-0.7-2.1-1.5v-7.5c0-0.8,1-1.5,2.1-1.5H62
			c1.2,0,2.1,0.7,2.1,1.5V43.9z"/>
	</g>
	<g>
		<path fill="#4E3E41" d="M62,46.1H51.2c-1.6,0-2.9-1-2.9-2.2v-7.5c0-1.3,1.3-2.2,2.9-2.2H62c1.6,0,2.9,1,2.9,2.2v7.5
			C64.9,45.1,63.6,46.1,62,46.1z M51.2,35.7c-0.8,0-1.4,0.4-1.4,0.7v7.5c0,0.3,0.5,0.7,1.4,0.7H62c0.8,0,1.4-0.4,1.4-0.7v-7.5
			c0-0.3-0.5-0.7-1.4-0.7H51.2z"/>
	</g>
</g>
<g>
	<g>
		<g>
			<path fill="#EE4633" d="M61.6,43.8H30.4c-3.4,0-6.2,2-6.2,4.4V60h43.6V48.2C67.8,45.7,65.1,43.8,61.6,43.8z"/>
		</g>
	</g>
	<g>
		<g>
			<path fill="#414042" d="M69.6,61.8H22.4V48.2c0-3.5,3.5-6.2,8-6.2h31.2c4.5,0,8,2.7,8,6.2V61.8z M26,58.2h40V48.2
				c0-1.2-1.8-2.6-4.4-2.6H30.4c-2.6,0-4.4,1.4-4.4,2.6V58.2z"/>
		</g>
	</g>
</g>
<rect x="22.4" y="60.9" fill="#414042" width="5.8" height="5.8"/>
<rect x="64.1" y="60.9" fill="#414042" width="5.8" height="5.8"/>
</svg>
