<?xml version="1.0" encoding="utf-8"?>
<!-- Generator: Adobe Illustrator 18.1.1, SVG Export Plug-In . SVG Version: 6.00 Build 0)  -->
<svg version="1.1" id="Шар_1" xmlns="http://www.w3.org/2000/svg" xmlns:xlink="http://www.w3.org/1999/xlink" x="0px" y="0px"
	 viewBox="0 0 190 110.6" enable-background="new 0 0 190 110.6" xml:space="preserve">
<g>
	<path fill="#43C0EF" d="M8.6,64.9l33.9-29.4c0,0,12.9,6.9,32,9.6c36,5.3,90.1,0.4,112.4,29.6l-38,31.6c0,0-2.4-29.7-103.7-29.7
		C33.7,76.6,22.7,66.3,8.6,64.9z"/>
</g>
<g>
	<path fill="#414042" d="M180.9,79.8c-9.6-24.2-43.5-25.9-76.3-27.4c-15.8-0.8-30.7-1.5-42.8-4.7C47,43.7,38.4,36.4,35.5,25.4
		l9.4-2.5c4.5,17,31.5,18.3,60.2,19.7c34.2,1.7,73,3.5,84.9,33.6L180.9,79.8z"/>
</g>
<g>
	<path fill="#414042" d="M145.4,110.6c-9.6-24.3-43.4-26-76.1-27.6c-15.7-0.8-30.5-1.5-42.7-4.7C11.9,74.4,3.2,67.2,0,56.3l9.4-2.7
		c5,16.9,31.9,18.2,60.5,19.7c34.1,1.7,72.7,3.6,84.6,33.7L145.4,110.6z"/>
</g>
<g>
	<g>
		<path fill="#414042" d="M41.5,60.9l1-4.1c-4.5-1.3-8.9-3.2-12.9-5.8l-1.9,3.7C32.1,57.5,36.8,59.5,41.5,60.9z"/>
	</g>
	<g>
		<path fill="#414042" d="M63.1,64.3l0.2-4.3c-4.7-0.3-9.5-0.8-14.1-1.7l-0.6,4.2C53.4,63.5,58.3,64,63.1,64.3z"/>
	</g>
	<g>
		<path fill="#414042" d="M84.6,64.9l0-4.3c-4.8,0-9.6-0.1-14.4-0.2l-0.1,4.3C75,64.8,79.8,64.8,84.6,64.9z"/>
	</g>
	<g>
		<path fill="#414042" d="M106,65.5l0.2-4.3c-4.8-0.3-9.7-0.5-14.5-0.6L91.7,65C96.4,65,101.2,65.2,106,65.5z"/>
	</g>
	<g>
		<path fill="#414042" d="M126.9,68.6l0.8-4.2c-4.8-1.2-9.6-2-14.4-2.5l-0.4,4.2C117.6,66.7,122.3,67.5,126.9,68.6z"/>
	</g>
	<g>
		<path fill="#414042" d="M146.5,76.6l1.8-3.8c-4.3-2.6-8.9-4.7-13.6-6.3l-1.1,4.1C138,72.1,142.4,74.1,146.5,76.6z"/>
	</g>
	<g>
		<path fill="#414042" d="M162.8,90.9l2.8-2.9c-3.3-4.1-7.1-7.8-11.1-10.9l-2.1,3.5C156.1,83.6,159.7,87.1,162.8,90.9z"/>
	</g>
</g>
<g>
	<polygon fill="#FFFFFF" points="142.5,26.2 83.3,26.2 90,3.6 137.1,3.6 	"/>
	<path fill="#414042" d="M147,29.8H78.5L87.3,0h52.6L147,29.8z M88.1,22.6h49.8l-3.7-15.4H92.7L88.1,22.6z"/>
</g>
<g>
	<rect x="68" y="26.2" fill="#EE4633" width="89.9" height="25.7"/>
	<path fill="#414042" d="M161.5,55.5H64.4V22.6h97.1V55.5z M71.5,48.3h82.7V29.8H71.5V48.3z"/>
</g>
<g>
	<rect x="78.7" y="50.3" fill="#4E3E41" width="8.5" height="17.1"/>
</g>
<g>
	<rect x="138.2" y="50.3" fill="#4E3E41" width="8.5" height="17.1"/>
</g>
<g>
	<circle fill="#FFFFFF" cx="83.3" cy="39.1" r="6"/>
</g>
<g>
	<circle fill="#FFFFFF" cx="142.5" cy="39.1" r="6"/>
</g>
</svg>
