<?xml version="1.0" encoding="utf-8"?>
<!-- Generator: Adobe Illustrator 18.1.1, SVG Export Plug-In . SVG Version: 6.00 Build 0)  -->
<svg version="1.1" id="Шар_1" xmlns="http://www.w3.org/2000/svg" xmlns:xlink="http://www.w3.org/1999/xlink" x="0px" y="0px"
	 viewBox="0.6 15 72.8 52.1" enable-background="new 0.6 15 72.8 52.1" xml:space="preserve">
<path fill="#889197" d="M47.1,45c2.1-2.3,3.4-5.3,3.4-8.6c0-7.1-5.8-12.9-12.9-12.9s-12.9,5.8-12.9,12.9s5.8,12.9,12.9,12.9
	c2.6,0,4.8-0.8,6.8-1.9c7.1,2.6,11.8,9,12.4,16.5H18.2c0.5-5,2.7-9.7,6.6-13.1c0.6-0.6,0.8-1.6,0.2-2.3c-0.6-0.6-1.6-0.8-2.3-0.2
	c-5,4.4-7.8,10.5-7.8,17.1c0,1,0.6,1.6,1.6,1.6h42c1,0,1.6-0.6,1.6-1.6C60,56.5,54.9,48.6,47.1,45z M27.7,36.3
	c0-5.3,4.4-9.7,9.7-9.7s9.7,4.4,9.7,9.7S42.7,46,37.4,46S27.7,41.7,27.7,36.3z"/>
<path fill="#889197" d="M60.7,36.6c2.1-2.3,3.4-5.3,3.4-8.6c0-7.1-5.8-12.9-12.9-12.9c-6.3,0-11.6,4.5-12.8,10.5
	c1.1,0,2.3,0.3,3.1,0.8c0.8-4.5,4.7-8.1,9.5-8.1c5.3,0,9.7,4.4,9.7,9.7s-4.4,9.7-9.7,9.7c-1.1,0-2.3-0.2-3.2-0.6
	c0.2,1.1,0,2.3-0.3,3.2c1.1,0.3,2.3,0.5,3.6,0.5c2.6,0,4.8-0.8,6.8-1.9c6.9,2.6,11.8,9,12.4,16.5H55c0.6,1,1,2.1,1.1,3.2h15.7
	c1,0,1.6-0.6,1.6-1.6C73.7,48.1,68.6,40.2,60.7,36.6z"/>
<g id="Livello_110">
	<g id="XMLID_6_">
		<path id="XMLID_7_" fill="#889197" stroke="#287FB9" stroke-width="0.25" stroke-miterlimit="10" d="M8.7,36L8.7,36
			c-0.2,0-0.5-0.2-0.5-0.2l-5.5-8.1c-1.1-1.5-1.9-3.2-1.9-4.8c0-4.4,3.4-7.8,7.8-7.8s7.9,3.4,7.9,7.8c0,1.5-0.2,2.6-1,3.7
			c0,0,0,0,0,0.2c-0.2,0.5-0.3,0.6-0.6,1L9,35.8C8.8,35.7,8.8,36,8.7,36z M8.7,34.4L14,27c0.2-0.2,0.5-0.5,0.5-0.6l0,0l0,0
			c0.6-1,1-2.1,1-3.2c-0.2-3.7-3.2-6.6-6.8-6.6s-6.8,2.7-6.8,6.5c0,1.6,0.5,3.1,1.6,4.2l1.9,2.6 M5.4,29.7l3.2,4.5 M8.3,27
			c-2.3,0-4-1.8-4-4s1.8-4.2,4.2-4.2l0,0c2.3,0,4.2,1.8,4.2,4.2S10.6,27,8.3,27z M8.3,19.7c-1.6,0-2.9,1.3-2.9,3.2S6.9,26,8.5,26
			s2.9-1.5,2.9-3.1C11.4,21.3,10.3,19.7,8.3,19.7z"/>
	</g>
</g>
</svg>
