<?xml version="1.0" encoding="utf-8"?>
<!-- Generator: Adobe Illustrator 18.1.1, SVG Export Plug-In . SVG Version: 6.00 Build 0)  -->
<svg version="1.1" id="Шар_1" xmlns="http://www.w3.org/2000/svg" xmlns:xlink="http://www.w3.org/1999/xlink" x="0px" y="0px"
	 viewBox="-24.5 30.1 55 52" enable-background="new -24.5 30.1 55 52" xml:space="preserve">
<g id="Expanded">
	<g>
		<g>
			<path fill="#889197" d="M23.6,82.1h-16V67.2h-9.2v14.9h-16V58c0-0.6,0.5-1.1,1.1-1.1s1.1,0.5,1.1,1.1v21.8h11.5V64.9H9.9v14.9
				h11.5V59.2c0-0.6,0.5-1.1,1.1-1.1s1.1,0.5,1.1,1.1V82.1z"/>
		</g>
		<g>
			<path fill="#889197" d="M29.4,58c-0.3,0-0.6-0.1-0.8-0.3L3,33.3l-25.6,24.4c-0.5,0.4-1.2,0.4-1.6,0c-0.4-0.5-0.4-1.2,0-1.6
				L3,30.1l27.1,26c0.5,0.4,0.5,1.2,0,1.6C30,57.9,29.7,58,29.4,58z"/>
		</g>
		<g>
			<path fill="#889197" d="M20.2,44.3c-0.6,0-1.1-0.5-1.1-1.1v-6.9h-6.9c-0.6,0-1.1-0.5-1.1-1.1c0-0.6,0.5-1.1,1.1-1.1h9.2v9.2
				C21.3,43.8,20.8,44.3,20.2,44.3z"/>
		</g>
	</g>
</g>
</svg>
