<?xml version="1.0" encoding="utf-8"?>
<!-- Generator: Adobe Illustrator 18.1.1, SVG Export Plug-In . SVG Version: 6.00 Build 0)  -->
<svg version="1.1" id="Layer_1" xmlns="http://www.w3.org/2000/svg" xmlns:xlink="http://www.w3.org/1999/xlink" x="0px" y="0px"
	 viewBox="3 5.5 48.7 44" enable-background="new 3 5.5 48.7 44" xml:space="preserve">
<path fill="#EE4633" d="M51.7,19.7c0-7.8-6.2-14.2-14.2-14.2c-3.9,0-7.2,1.6-10.1,4.1c-2.8-2.8-6.2-4.1-10.1-4.1
	C9.5,5.5,3,11.7,3,19.7c0,3.6,1.3,7,4.1,9.8L26.3,49c0.3,0.3,0.5,0.5,1,0.5c0.5,0,0.8-0.3,1-0.5l4.7-4.7l-1.8-2.1l-3.9,3.9L9.2,28
	c-1.8-2.1-3.4-4.9-3.4-7.8C5.8,14,11,8.9,17,8.9c3.6,0,6.7,1.6,9.1,4.4c0.5,0.8,1.6,0.8,2.1,0c2.1-2.8,5.4-4.4,9.1-4.4
	c6.2,0,11.1,5.2,11.1,11.4c0,3.1-1.3,6-3.6,8.3L33.8,39.4l1.8,2.1l10.9-10.9C50.1,27,51.7,23.4,51.7,19.7z"/>
</svg>
