<?xml version="1.0" encoding="utf-8"?>
<!-- Generator: Adobe Illustrator 18.1.1, SVG Export Plug-In . SVG Version: 6.00 Build 0)  -->
<svg version="1.1" id="Layer_1" xmlns="http://www.w3.org/2000/svg" xmlns:xlink="http://www.w3.org/1999/xlink" x="0px" y="0px"
	 viewBox="2.7 6 51.6 60" enable-background="new 2.7 6 51.6 60" xml:space="preserve">
<path id="XMLID_27_" fill="#27AE61" d="M36.9,16L36.9,16c-0.3,1.1-0.5,2.2-0.8,3.3c2.7,1.1,5.4,2.7,7.6,4.9
	c-1.9,1.1-3.8,2.2-5.7,3.3c-0.8-2.2-2.2-4.1-3.3-6c-0.3,0.5-0.8,0.8-1.1,1.4c1.1,1.6,2.2,3.3,3,5.2c-2.4,0.8-4.9,1.4-7.3,1.4h-1.9
	c-2.7,0-5.2-0.5-7.3-1.4c0.5-1.9,1.6-3.5,2.7-5.2c-0.3-0.5-0.8-0.8-1.1-1.4c-1.4,1.9-2.4,3.8-3.3,6c-2.2-1.1-4.1-2.2-5.7-3.5
	c2.2-1.9,4.9-3.5,7.6-4.6c-0.5-1.1-0.8-2.2-1.1-3.3c-9.8,3.8-16.6,13-16.6,24.2C2.7,54.3,14.1,66,28.5,66s25.8-11.4,25.8-25.8
	C54,29.3,47,19.6,36.9,16z M11.7,25.5c1.9,1.4,3.8,2.7,6.2,3.5c-1.4,3.3-1.9,6.8-1.9,10.3H6C6,34,8.4,29.3,11.7,25.5z M5.7,41h9.8
	c0,4.1,1.1,8.1,2.4,11.7c-2.2,0.8-4.1,1.9-5.7,3.3C8.7,52.2,6,47,5.7,41z M13.8,57c1.6-1.1,3.3-2.2,5.2-2.7c1.4,3,3.3,5.7,5.4,7.9
	C20.4,61.7,16.8,59.8,13.8,57z M27.4,62.7L27.4,62.7c-2.7-2.2-5.2-5.2-6.8-8.7c2.2-0.5,4.3-1.1,6.8-1.1V62.7z M27.4,51.1
	c-2.7,0-5.2,0.5-7.3,1.4c-1.4-3.3-2.2-7.1-2.4-11.1h9.8L27.4,51.1L27.4,51.1z M27.4,39.4h-9.8c0-3.5,0.8-6.8,1.9-9.8
	c2.4,0.8,4.9,1.4,7.9,1.6L27.4,39.4L27.4,39.4z M45.1,25.5c3.3,3.8,5.4,8.7,5.7,13.8H41c0-3.5-0.8-7.1-1.9-10.3
	C40.7,28.3,42.9,26.9,45.1,25.5z M29,31.2c2.7,0,5.4-0.5,8.1-1.4c1.1,3,1.6,6.2,1.9,9.8H29L29,31.2L29,31.2z M29,41h9.8
	c0,4.1-0.8,7.9-2.4,11.1c-2.4-0.8-4.9-1.1-7.3-1.4L29,41L29,41z M29,62.7L29,62.7V53c2.4,0,4.6,0.5,6.8,1.1C34.2,57,31.8,60,29,62.7
	z M31.8,62.5c2.2-2.2,4.1-4.9,5.4-7.9c1.9,0.8,3.5,1.6,5.2,2.7C39.6,59.8,35.8,61.7,31.8,62.5z M43.7,56c-1.9-1.4-3.8-2.4-5.7-3.3
	c1.4-3.5,2.4-7.6,2.4-11.7h9.8C50.5,47,48.1,52.2,43.7,56z"/>
<g id="Livello_110">
	<g id="XMLID_6_">
		<path id="XMLID_7_" fill="#27AE61" d="M28.2,30.7L28.2,30.7c-0.3,0-0.5-0.3-0.5-0.3l-6.5-9.5c-1.4-1.6-2.2-3.8-2.2-5.7
			c0-5.2,4.1-9.3,9.4-9.2c5.7,0.1,10,5.5,8.9,11.2c-0.2,0.8-0.4,1.6-0.9,2.4c0,0,0,0,0,0.3c-0.3,0.5-0.5,0.8-0.8,1.1l-6.8,9.5
			C28.5,30.4,28.5,30.7,28.2,30.7z M28.2,28.8l6.2-8.7c0.3-0.3,0.5-0.5,0.5-0.8l0,0l0,0c1-1.3,1.2-3.1,1-4.7c-0.2-3-2.3-5.7-5.2-6.6
			c-5.4-1.6-10.5,2-10.5,7.2c0,1.9,0.5,3.5,1.9,4.9l2.2,3.3 M24.4,23.1l3.8,5.4 M27.4,19.8c-2.2-0.2-4.1-2.1-4.3-4.3
			c-0.3-3,2-5.4,4.9-5.4l0,0c2.7,0,4.9,2.2,4.9,4.9C32.9,17.9,30.4,20.1,27.4,19.8z M28,11.2c-1.9,0-3.5,1.6-3.5,3.8
			s1.6,3.5,3.5,3.5s3.5-1.6,3.5-3.5S30.1,11.2,28,11.2z"/>
	</g>
</g>
</svg>
