<?xml version="1.0" encoding="utf-8"?>
<!-- Generator: Adobe Illustrator 18.1.1, SVG Export Plug-In . SVG Version: 6.00 Build 0)  -->
<svg version="1.1" id="Шар_1" xmlns="http://www.w3.org/2000/svg" xmlns:xlink="http://www.w3.org/1999/xlink" x="0px" y="0px"
	 viewBox="24 27 52.1 46" enable-background="new 24 27 52.1 46" xml:space="preserve">
<path fill="none" stroke="#FCD063" stroke-width="2" stroke-miterlimit="10" d="M27.1,72c-1.2,0-2.2-1-2.2-2.2V30.2
	c0-1.2,1-2.2,2.2-2.2h45.7c1.2,0,2.2,1,2.2,2.2v39.6c0,1.2-1,2.2-2.2,2.2L27.1,72"/>
<path fill="none" stroke="#FCD063" stroke-width="2" stroke-miterlimit="10" d="M68.5,49.1H49c-1.2,0-2.2-1-2.2-2.2V30.2
	c0-1.2,1-2.2,2.2-2.2h19.4c1.2,0,2.2,1,2.2,2.2v16.5C70.7,47.9,69.7,49.1,68.5,49.1z"/>
<path fill="none" stroke="#FCD063" stroke-width="2" stroke-miterlimit="10" d="M70.7,71.8c0-0.2,0.2-0.5,0.2-0.7v-1.9
	c0-1.2-1-2.2-2.2-2.2h-3.6c-1.2,0-2.2,1-2.2,2.2V71c0,0.2,0,0.5,0.2,0.7C63.4,71.8,70.2,71.8,70.7,71.8z"/>
</svg>
