<?xml version="1.0" encoding="utf-8"?>
<!-- Generator: Adobe Illustrator 18.1.1, SVG Export Plug-In . SVG Version: 6.00 Build 0)  -->
<svg version="1.1" id="Шар_1" xmlns:sketch="http://www.bohemiancoding.com/sketch/ns"
	 xmlns="http://www.w3.org/2000/svg" xmlns:xlink="http://www.w3.org/1999/xlink" x="0px" y="0px" viewBox="32.3 -7 134.6 155.9"
	 enable-background="new 32.3 -7 134.6 155.9" xml:space="preserve">
<title></title>
<desc></desc>
<g id="miu">
	<g id="Artboard-1" transform="translate(-899.000000, -479.000000)">
		<g id="slice" transform="translate(215.000000, 119.000000)">
		</g>
		<path id="editor-trash-delete-recycle-bin-glyph" fill="#FFFFFF" d="M934.9,479.1c0,0-3.5,0-3.5,7.1c0,7.1,3.5,7.1,3.5,7.1h127.6
			c0,0,3.5,0,3.5-7.1c0-7.1-3.5-7.1-3.5-7.1H934.9L934.9,479.1z M938.4,500.3h120.5l-14.2,127.6h-92.1L938.4,500.3z M988,472
			c-7.1,0-7.1,7.1-7.1,7.1h35.4c0,0,0-7.1-7.1-7.1H988L988,472z M973.9,613.7h7.1l-7.1-113.4h-7.1L973.9,613.7z M1023.5,500.3
			l-7.1,113.4h7.1l7.1-113.4H1023.5L1023.5,500.3z M995.1,500.3v113.4h7.1V500.3H995.1L995.1,500.3z"/>
	</g>
</g>
</svg>
