<?xml version="1.0" encoding="utf-8"?>
<!-- Generator: Adobe Illustrator 18.1.1, SVG Export Plug-In . SVG Version: 6.00 Build 0)  -->
<svg version="1.1" id="Шар_1" xmlns:sketch="http://www.bohemiancoding.com/sketch/ns"
	 xmlns="http://www.w3.org/2000/svg" xmlns:xlink="http://www.w3.org/1999/xlink" x="0px" y="0px" viewBox="49.6 -4.8 158.4 155.1"
	 enable-background="new 49.6 -4.8 158.4 155.1" xml:space="preserve">
<title></title>
<desc></desc>
<path fill="#FFFFFF" d="M202.1,42.3l-6.7,6.7L154.3,7.8l6.7-6.7c7.8-7.8,20-7.8,27.8,0l13.4,13.4C209.9,21.1,209.9,34.5,202.1,42.3z
	 M105.3,124.7c-2.2,2.2-2.2,4.5,0,6.7c2.2,2.2,4.5,2.2,6.7,0l76.8-76.8l-6.7-6.7L105.3,124.7z M70.7,90.2c-2.2,2.2-2.2,4.5,0,6.7
	c2.2,2.2,4.5,2.2,6.7,0L154.3,20l-6.7-6.7L70.7,90.2z M160.9,26.7l-76.8,76.8c-4.5,4.5-4.5,10,0,13.4c4.5,4.5,10,4.5,13.4,0
	l76.8-76.8L160.9,26.7z M98.6,139.2c-2.2-2.2-4.5-4.5-4.5-8.9c-1.1,0-2.2,0-3.3,0c-4.5,0-10-2.2-13.4-5.6c-4.5-4.5-5.6-8.9-5.6-13.4
	c0-1.1,0-2.2,0-3.3c-3.3,0-5.6-2.2-8.9-4.5c0,0,0-1.1-1.1-1.1l-12.2,47.9L98.6,139.2C99.7,139.2,99.7,139.2,98.6,139.2z"/>
</svg>
