<?xml version="1.0" encoding="utf-8"?>
<!-- Generator: Adobe Illustrator 18.1.1, SVG Export Plug-In . SVG Version: 6.00 Build 0)  -->
<svg version="1.1" id="Шар_1" xmlns:sketch="http://www.bohemiancoding.com/sketch/ns"
	 xmlns="http://www.w3.org/2000/svg" xmlns:xlink="http://www.w3.org/1999/xlink" x="0px" y="0px" viewBox="30.6 45 142.9 103.9"
	 enable-background="new 30.6 45 142.9 103.9" xml:space="preserve">
<title></title>
<desc></desc>
<g id="miu">
	<g id="Artboard-1" transform="translate(-251.000000, -587.000000)">
		<g id="slice" transform="translate(215.000000, 119.000000)">
		</g>
		<path id="device-camera-capture-photo-glyph" fill="#929FA7" d="M386.8,645h24.7c0,0,13,0,13,13v65c0,13-13,13-13,13H294.6
			c0,0-13,0-13-13v-65c0-13,13-13,13-13h24.7l5.8-10.4c0.6-1.3,3.2-2.6,5.2-2.6h45.5c1.9,0,3.9,1.3,5.2,2.6L386.8,645L386.8,645z
			 M353.1,716.4c16.2,0,29.2-13,29.2-29.2s-13-29.2-29.2-29.2c-16.2,0-29.2,13-29.2,29.2S336.8,716.4,353.1,716.4z M353.1,709.9
			c12.3,0,22.7-10.4,22.7-22.7s-10.4-22.7-22.7-22.7s-22.7,10.4-22.7,22.7S340.7,709.9,353.1,709.9z M392,671c3.9,0,6.5-2.6,6.5-6.5
			s-2.6-6.5-6.5-6.5s-6.5,2.6-6.5,6.5S388.1,671,392,671z M302.4,635.2c-0.6,0-1.3,0.6-1.3,1.3v3.9c0,0.6,0.6,1.3,1.3,1.3h10.4
			c0.6,0,1.3-0.6,1.3-1.3v-3.9c0-0.6-0.6-1.3-1.3-1.3H302.4z"/>
	</g>
</g>
</svg>
