<?xml version="1.0" encoding="utf-8"?>
<!-- Generator: Adobe Illustrator 18.1.1, SVG Export Plug-In . SVG Version: 6.00 Build 0)  -->
<svg version="1.1" id="Шар_1" xmlns="http://www.w3.org/2000/svg" xmlns:xlink="http://www.w3.org/1999/xlink" x="0px" y="0px"
	 viewBox="0 0 60 60" enable-background="new 0 0 60 60" xml:space="preserve">
<g>
	<path fill="#3B5998" d="M0,1v60h60V1H0z M35.2,24h-1.8c-1.4,0-1.7,0.7-1.7,1.7v2.2h3.4l-0.5,3.5h-3v8.9H28v-8.9h-3v-3.5h3v-2.6
		c0-3,1.8-4.6,4.5-4.6c1.3,0,2.4,0.1,2.7,0.1V24z"/>
	<path fill="#FFFFFF" d="M28,25.3v2.6h-3v3.5h3v8.9h3.6v-8.9h3l0.5-3.5h-3.4v-2.2c0-1,0.3-1.7,1.7-1.7h1.8v-3.2
		c-0.3,0-1.4-0.1-2.7-0.1C29.8,20.7,28,22.3,28,25.3z"/>
</g>
</svg>
