<?xml version="1.0" encoding="utf-8"?>
<!-- Generator: Adobe Illustrator 18.1.1, SVG Export Plug-In . SVG Version: 6.00 Build 0)  -->
<svg version="1.1" id="Шар_1" xmlns="http://www.w3.org/2000/svg" xmlns:xlink="http://www.w3.org/1999/xlink" x="0px" y="0px"
	 viewBox="10.2 8.6 60 60" enable-background="new 10.2 8.6 60 60" xml:space="preserve">
<g>
	<path fill="#D0422A" d="M10.2,8.6v60h60v-60H10.2z M40.3,47.6c-5,0-9-4-9-9s4-9,9-9c2.4,0,4.5,0.9,6,2.4L44,34.4
		c-0.7-0.6-1.8-1.4-3.6-1.4c-3.1,0-5.6,2.5-5.6,5.7s2.5,5.7,5.6,5.7c3.6,0,4.9-2.6,5.1-3.9h-5.1v-3.1h8.5v-0.1
		c0.1,0.5,0.1,0.9,0.1,1.5C49,43.9,45.5,47.6,40.3,47.6z"/>
	<path fill="#FFFFFF" d="M48.8,37.4h-8.5v3.1h5.1c-0.2,1.3-1.5,3.9-5.1,3.9c-3.1,0-5.6-2.5-5.6-5.7s2.5-5.7,5.6-5.7
		c1.8,0,2.9,0.8,3.6,1.4l2.4-2.4c-1.5-1.5-3.6-2.4-6-2.4c-5,0-9,4-9,9s4,9,9,9c5.2,0,8.6-3.7,8.6-8.8c0-0.6,0-1-0.1-1.5V37.4z"/>
</g>
</svg>
