<?xml version="1.0" encoding="utf-8"?>
<!-- Generator: Adobe Illustrator 18.1.1, SVG Export Plug-In . SVG Version: 6.00 Build 0)  -->
<svg version="1.1" id="Шар_1" xmlns="http://www.w3.org/2000/svg" xmlns:xlink="http://www.w3.org/1999/xlink" x="0px" y="0px"
	 viewBox="9.8 8.5 60 60" enable-background="new 9.8 8.5 60 60" xml:space="preserve">
<g>
	<path fill="#4C76A2" d="M39.8,42.1c2,0,3.6-1.6,3.6-3.5c0-1.9-1.6-3.5-3.6-3.5s-3.6,1.6-3.6,3.5C36.2,40.5,37.8,42.1,39.8,42.1z"/>
	<path fill="#4C76A2" d="M45.4,38.8c0,3-2.5,5.4-5.6,5.4c-3.1,0-5.6-2.4-5.6-5.4c0-0.5,0.1-1.1,0.2-1.5h-1.7v7.6
		c0,0.4,0.3,0.7,0.7,0.7h12.5c0.4,0,0.7-0.3,0.7-0.7v-7.6h-1.4C45.4,37.8,45.4,38.3,45.4,38.8z"/>
	<path fill="#4C76A2" d="M9.8,8.5v60h60v-60H9.8z M48.8,45.4c0,1.3-1,2.3-2.3,2.3H33.1c-1.3,0-2.3-1-2.3-2.3V32c0-1.3,1-2.3,2.3-2.3
		h13.4c1.3,0,2.3,1,2.3,2.3V45.4z"/>
	<path fill="#4C76A2" d="M46,31.7h-2c-0.4,0-0.8,0.4-0.8,0.8v1.9c0,0.4,0.4,0.8,0.8,0.8h2c0.4,0,0.8-0.4,0.8-0.8v-1.9
		C46.8,32.1,46.4,31.7,46,31.7z"/>
	<path fill="#FFFFFF" d="M46.5,29.7H33.1c-1.3,0-2.3,1-2.3,2.3v13.4c0,1.3,1,2.3,2.3,2.3h13.4c1.3,0,2.3-1,2.3-2.3V32
		C48.8,30.7,47.8,29.7,46.5,29.7z M39.8,35.1c2,0,3.6,1.6,3.6,3.5c0,1.9-1.6,3.5-3.6,3.5s-3.6-1.6-3.6-3.5
		C36.2,36.7,37.8,35.1,39.8,35.1z M46.6,44.9c0,0.4-0.3,0.7-0.7,0.7H33.4c-0.4,0-0.7-0.3-0.7-0.7v-7.6h1.7c-0.1,0.4-0.2,1-0.2,1.5
		c0,3,2.5,5.4,5.6,5.4c3.1,0,5.6-2.4,5.6-5.4c0-0.5,0-1-0.2-1.5h1.4V44.9z M46.8,34.4c0,0.4-0.4,0.8-0.8,0.8h-2
		c-0.4,0-0.8-0.4-0.8-0.8v-1.9c0-0.4,0.4-0.8,0.8-0.8h2c0.4,0,0.8,0.4,0.8,0.8V34.4z"/>
</g>
</svg>
