<?xml version="1.0" encoding="utf-8"?>
<!-- Generator: Adobe Illustrator 18.1.1, SVG Export Plug-In . SVG Version: 6.00 Build 0)  -->
<svg version="1.1" id="Шар_1" xmlns="http://www.w3.org/2000/svg" xmlns:xlink="http://www.w3.org/1999/xlink" x="0px" y="0px"
	 viewBox="0 0 60 60" enable-background="new 0 0 60 60" xml:space="preserve">
<g>
	<path fill="#1A2F40" d="M21.6,32.9c-3.3,0-6.1,2.7-6.1,6.1s2.7,5.9,6.1,5.9s5.7-2.6,5.7-6C27.3,35.4,24.9,32.9,21.6,32.9z
		 M21.3,35.3c-0.5,0-3.3,0.6-3.3,3.6c0,0.3-0.3,0.8-0.8,0.8s-0.8-0.3-0.8-0.8c0-3.8,3.6-5.1,4.8-5.1c0.5,0,0.8,0.3,0.8,0.8
		S21.7,35.3,21.3,35.3z"/>
	<path fill="#1A2F40" d="M39.7,32.7c-3.5,0-5.7,2.5-5.7,6s2.4,6,5.7,6s6.1-2.5,6.1-5.8C45.9,35.6,43.2,32.7,39.7,32.7z M39.9,36
		c-0.5,0-3.3,0.6-3.3,3.6c0,0.5-0.4,0.8-0.8,0.8c-0.4,0-0.8-0.3-0.8-0.8c0-3.8,3.6-5.1,4.8-5.1c0.4,0,0.8,0.3,0.8,0.8
		S40.3,36,39.9,36z"/>
	<path fill="#1A2F40" d="M0,0v60h60V0H0z M17.5,20.3v2.5c0,0,0.2,0.2,0.2,0c0.8-0.9,4.8-6.1,6.9-6.3c0.6,0-0.3,2.5,0,2.5
		c1.2,0,3.3-6,8-5.1c1.7,0.3,3.2-2.7,3-3.6c0,0,5,1,4.5,10.6c0,0.6,1.8,2.5,2.1-0.6c0.3-2.4,6.5,5.7,5.3,8c0,0.1-2.5-2-7.3-2.6
		c-5.3-0.6-9.3,2.6-9.3,2.6s-4.5-3.2-8.7-2.7c-5.3,0.6-8.1,2.8-8.1,2.8C13,25.7,16.2,20.6,17.5,20.3z M39.9,48.5c-3.8,0-7-2.8-8.4-5
		H30c-1.5,2.1-4.8,5-8.4,5c-5.1,0-9.3-4.3-9.3-9.5c0-5.7,4.2-9.8,9.3-9.9c2.7-0.2,6.6,0.4,9.2,3.9c3.3-3.9,6.5-4,9.1-3.9
		c5.1,0.1,9.3,4.2,9.3,9.9C49.2,44.1,45,48.5,39.9,48.5z"/>
	<path fill="#43C0EF" d="M22,25.7c4.2-0.5,8.7,2.7,8.7,2.7s4-3.2,9.3-2.6c4.8,0.6,7.3,2.7,7.3,2.6c1.2-2.3-4.9-10.4-5.3-8
		C41.8,23.6,40,21.6,40,21c0.5-9.6-4.5-10.6-4.5-10.6c0.2,0.9-1.3,3.9-3,3.6c-4.7-0.9-6.8,5.1-8,5.1c-0.3,0,0.6-2.5,0-2.5
		c-2.1,0.2-6.1,5.4-6.9,6.3c0,0.2-0.2,0-0.2,0v-2.5c-1.3,0.3-4.5,5.4-3.6,8.3C13.9,28.5,16.8,26.3,22,25.7z"/>
	<path fill="#FFFFFF" d="M21.3,33.8c-1.2,0-4.8,1.4-4.8,5.1c0,0.4,0.3,0.8,0.8,0.8s0.8-0.5,0.8-0.8c0-3,2.8-3.6,3.3-3.6
		S22,35,22,34.5S21.7,33.8,21.3,33.8z"/>
	<path fill="#FFFFFF" d="M39.9,34.5c-1.2,0-4.8,1.3-4.8,5.1c0,0.5,0.3,0.8,0.8,0.8c0.3,0,0.8-0.3,0.8-0.8c0-3,2.9-3.6,3.3-3.6
		c0.4,0,0.8-0.3,0.8-0.8S40.3,34.5,39.9,34.5z"/>
	<path fill="#FFFFFF" d="M39.9,29.1c-2.7-0.2-5.8,0-9.1,3.9c-2.5-3.5-6.5-4-9.2-3.9c-5.1,0.1-9.3,4.2-9.3,9.9c0,5.1,4.2,9.5,9.3,9.5
		c3.6,0,6.9-2.8,8.4-5h1.5c1.3,2.1,4.6,5,8.4,5c5.1,0,9.3-4.3,9.3-9.5C49.2,33.3,45,29.3,39.9,29.1z M21.6,44.9
		c-3.5,0-6.1-2.4-6.1-5.9s2.8-6.1,6.1-6.1s5.7,2.5,5.7,6C27.3,42.3,25,44.9,21.6,44.9z M39.7,44.7c-3.3,0-5.7-2.5-5.7-6s2.3-6,5.7-6
		s6.1,2.8,6.1,6.2C45.9,42.2,43,44.7,39.7,44.7z"/>
</g>
</svg>
