<?xml version="1.0" encoding="utf-8"?>
<!-- Generator: Adobe Illustrator 18.1.1, SVG Export Plug-In . SVG Version: 6.00 Build 0)  -->
<svg version="1.1" id="Шар_1" xmlns="http://www.w3.org/2000/svg" xmlns:xlink="http://www.w3.org/1999/xlink" x="0px" y="0px"
	 viewBox="9.8 8.3 60 60" enable-background="new 9.8 8.3 60 60" xml:space="preserve">
<g>
	<path fill="#000043" d="M9.8,8.3v60h60v-60H9.8z M42.4,47.6c-4.3,0.1-5.9-3-5.9-5.2V36h-2v-2.5c3-1.1,3.7-3.7,3.8-5.3
		c0-0.1,0.1-0.1,0.1-0.1s0,0,2.9,0v5h3.9v3h-3.9v6.1c0,0.8,0.3,2,1.9,1.9c0.5,0,1.2-0.2,1.6-0.3l1,2.7C45.4,47,43.9,47.6,42.4,47.6z
		"/>
	<path fill="#FFFFFF" d="M43.2,44.1c-1.6,0.1-1.9-1.1-1.9-1.9v-6.1h3.9v-3h-3.9v-5c-2.9,0-2.9,0-2.9,0s-0.1,0-0.1,0.1
		c-0.1,1.6-0.8,4.2-3.8,5.3V36h2v6.4c0,2.2,1.6,5.3,5.9,5.2c1.5,0,3-0.6,3.4-1.1l-1-2.7C44.4,43.9,43.7,44.1,43.2,44.1z"/>
</g>
</svg>
