<?xml version="1.0" encoding="utf-8"?>
<!-- Generator: Adobe Illustrator 18.1.1, SVG Export Plug-In . SVG Version: 6.00 Build 0)  -->
<svg version="1.1" id="Шар_1" xmlns="http://www.w3.org/2000/svg" xmlns:xlink="http://www.w3.org/1999/xlink" x="0px" y="0px"
	 viewBox="10.1 8.7 60 60" enable-background="new 10.1 8.7 60 60" xml:space="preserve">
<g>
	<path fill="#00C9F8" d="M10.1,8.7v60h60v-60H10.1z M47.4,34.9c0,0.2,0,0.3,0,0.5c0,5-3.8,10.8-10.8,10.8c-2.1,0-4.1-0.6-5.8-1.7
		c0.3,0,0.6,0,0.9,0c1.8,0,3.4-0.6,4.7-1.6c-1.7,0-3.1-1.1-3.5-2.6c0.2,0,0.5,0.1,0.7,0.1c0.3,0,0.7,0,1-0.1c-1.7-0.4-3-1.9-3-3.7
		c0.5,0.3,1.1,0.5,1.7,0.5c-1-0.7-1.7-1.8-1.7-3.2c0-0.7,0.2-1.3,0.5-1.9c1.9,2.3,4.7,3.8,7.8,4c-0.1-0.3-0.1-0.6-0.1-0.9
		c0-2.1,1.7-3.8,3.8-3.8c1.1,0,2.1,0.5,2.8,1.2c0.9-0.2,1.7-0.5,2.4-0.9c-0.3,0.9-0.9,1.6-1.7,2.1c0.8-0.1,1.5-0.3,2.2-0.6
		C48.8,33.6,48.1,34.3,47.4,34.9z"/>
	<path fill="#FFFFFF" d="M48.8,31.6c-0.7,0.4-1.5,0.7-2.4,0.9c-0.7-0.7-1.7-1.2-2.8-1.2c-2.1,0-3.8,1.7-3.8,3.8c0,0.3,0,0.6,0.1,0.9
		c-3.1-0.2-5.9-1.7-7.8-4c-0.3,0.6-0.5,1.2-0.5,1.9c0,1.4,0.7,2.5,1.7,3.2c-0.6,0-1.2-0.2-1.7-0.5c0,1.8,1.3,3.3,3,3.7
		c-0.3,0.1-0.7,0.1-1,0.1c-0.2,0-0.5-0.1-0.7-0.1c0.4,1.5,1.8,2.6,3.5,2.6c-1.3,1-2.9,1.6-4.7,1.6c-0.3,0-0.6,0-0.9,0
		c1.7,1.1,3.7,1.7,5.8,1.7c7,0,10.8-5.8,10.8-10.8c0-0.2,0-0.3,0-0.5c0.7-0.6,1.4-1.3,1.9-1.8c-0.7,0.3-1.4,0.5-2.2,0.6
		C47.9,33.2,48.5,32.5,48.8,31.6z"/>
</g>
</svg>
