<?xml version="1.0" encoding="utf-8"?>
<!-- Generator: Adobe Illustrator 18.1.1, SVG Export Plug-In . SVG Version: 6.00 Build 0)  -->
<svg version="1.1" id="Шар_1" xmlns="http://www.w3.org/2000/svg" xmlns:xlink="http://www.w3.org/1999/xlink" x="0px" y="0px"
	 viewBox="0 0 60 60" enable-background="new 0 0 60 60" xml:space="preserve">
<g>
	<path fill="#4464A8" d="M0,0v60h60V0H0z M40.2,36.3h-3c-0.6,0.1-1.5-0.5-1.5-0.5c-1.1-0.8-2.2-2.8-3-2.5c0,0-0.8,0.3-0.8,2.1
		c0,0.4-0.2,0.6-0.2,0.6s-0.2,0.2-0.6,0.3h-1.3c-3,0.2-5.6-2.5-5.6-2.5s-2.9-3-5.4-8.8c-0.2-0.4,0-0.6,0-0.6s0.2-0.2,0.7-0.2h3.2
		c0.3,0,0.5,0.2,0.5,0.2s0.2,0.1,0.3,0.4c0.5,1.3,1.2,2.5,1.2,2.5c1.2,2.4,2,2.8,2.4,2.6c0,0,0.6-0.4,0.5-3.3c0-1.1-0.3-1.5-0.3-1.5
		c-0.3-0.4-0.8-0.5-1-0.5c-0.2,0,0.1-0.4,0.5-0.6c0.6-0.3,1.6-0.3,2.8-0.3c0.9,0,1.2,0.1,1.6,0.2c1.1,0.3,0.7,1.3,0.7,3.8
		c0,0.8-0.2,1.9,0.4,2.3c0.2,0.2,0.9,0,2.4-2.5c0,0,0.7-1.2,1.3-2.6c-0.1-0.6,0.1-0.7,0.1-0.7s0.2-0.1,0.4-0.1h3.4
		c1-0.1,1.2,0.3,1.2,0.3c0.2,0.5-0.3,1.7-1.7,3.5c-2.3,3-2.5,2.7-0.6,4.5c1.8,1.7,2.2,2.5,2.2,2.6C41,35,41.8,36.3,40.2,36.3z"/>
	<path fill="#FFFFFF" d="M38.8,32.4c-1.9-1.8-1.7-1.5,0.6-4.5c1.4-1.8,1.9-3,1.7-3.5c0,0-0.2-0.4-1.2-0.3h-3.4
		c-0.2,0-0.4,0.1-0.4,0.1s-0.2,0.1-0.1,0.7c-0.6,1.4-1.3,2.6-1.3,2.6c-1.5,2.5-2.2,2.7-2.4,2.5c-0.6-0.4-0.4-1.5-0.4-2.3
		c0-2.5,0.4-3.5-0.7-3.8c-0.4-0.1-0.7-0.2-1.6-0.2c-1.2,0-2.2,0-2.8,0.3c-0.4,0.2-0.7,0.6-0.5,0.6c0.2,0,0.7,0.1,1,0.5
		c0,0,0.3,0.4,0.3,1.5c0.1,2.9-0.5,3.3-0.5,3.3c-0.4,0.2-1.2-0.2-2.4-2.6c0,0-0.7-1.2-1.2-2.5c-0.1-0.3-0.3-0.4-0.3-0.4
		s-0.2-0.2-0.5-0.2h-3.2c-0.5,0-0.7,0.2-0.7,0.2s-0.2,0.2,0,0.6c2.5,5.8,5.4,8.8,5.4,8.8s2.6,2.7,5.6,2.5h1.3
		c0.4-0.1,0.6-0.3,0.6-0.3s0.2-0.2,0.2-0.6c0-1.8,0.8-2.1,0.8-2.1c0.8-0.3,1.9,1.7,3,2.5c0,0,0.9,0.6,1.5,0.5h3
		c1.6,0,0.8-1.3,0.8-1.3C41,34.9,40.6,34.1,38.8,32.4z"/>
</g>
</svg>
