<?xml version="1.0" encoding="utf-8"?>
<!-- Generator: Adobe Illustrator 18.1.1, SVG Export Plug-In . SVG Version: 6.00 Build 0)  -->
<svg version="1.1" id="Шар_1" xmlns:sketch="http://www.bohemiancoding.com/sketch/ns"
	 xmlns="http://www.w3.org/2000/svg" xmlns:xlink="http://www.w3.org/1999/xlink" x="0px" y="0px" viewBox="-109 62.7 28.4 30"
	 enable-background="new -109 62.7 28.4 30" xml:space="preserve">
<title></title>
<desc></desc>
<g id="miu">
	<g id="Artboard-1" transform="translate(-827.000000, -227.000000)">
		<g id="slice" transform="translate(215.000000, 119.000000)">
		</g>
		<path id="editor-attachment-paper-clip-2" fill="#929FA7" d="M736,291.5l-15.2,15.2c0,0-5.7,5.7-0.6,10.9
			c5.1,5.1,10.9-0.6,10.9-0.6l15.2-15.2c0.6-0.6-0.5-1.8-1.1-1.1l-15.2,15.2c0,0-4.2,5-8.6,0.6c-4-4,0.6-8.6,0.6-8.6l15.2-15.2
			c0,0,2.9-2.9,5.7,0c2.8,2.8,0,5.7,0,5.7l-15.2,15.2c0,0-1.8,1.8-3.4,0.1c-1.7-1.7,0-3.5,0-3.5l14.5-14.5c0.6-0.6-0.5-1.8-1.1-1.1
			L723.1,309c0,0-3.3,2.8-0.2,5.9c2.8,2.8,5.8-0.2,5.8-0.2l15.2-15.2c0,0,4-4,0-8C740,287.5,736,291.5,736,291.5z"/>
	</g>
</g>
</svg>
