<?xml version="1.0" encoding="utf-8"?>
<!-- Generator: Adobe Illustrator 18.1.1, SVG Export Plug-In . SVG Version: 6.00 Build 0)  -->
<svg version="1.1" id="Layer_1" xmlns="http://www.w3.org/2000/svg" xmlns:xlink="http://www.w3.org/1999/xlink" x="0px" y="0px"
	 viewBox="32.7 0 208.5 156.4" enable-background="new 32.7 0 208.5 156.4" xml:space="preserve">
<g>
	<g>
		<path fill="#00C9F8" d="M121.4,0.4L121.4,0.4L121.4,0.4z"/>
		<path fill="#00C9F8" d="M46.1,156.4h151c0-24.1-18.7-33-24.9-35.2c-6.2-2.2-16-2.7-20.5-4.5c-3.1-1.3-7.6-2.7-9.4-4.5
			c-1.8-1.8-1.8-15.1-1.8-15.1s3.6-3.6,5.3-7.6c1.8-4,2.7-14.7,2.7-14.7s0.4,0,0.9,0c0.9,0,3.1-0.9,4-5.8c0.9-6.2,3.1-9.4,2.7-13.8
			c-0.4-3.1-1.8-3.6-2.7-3.6H153c0,0,3.1-4.5,3.1-20c0-16-12-31.6-34.7-31.6C99.1,0,86.6,15.6,86.6,31.6c0,15.6,3.1,20,3.1,20
			s0,0-0.4,0c-0.9,0-2.2,0.4-2.7,3.6c-0.9,4.5,1.3,7.6,2.7,13.8c0.9,4.9,2.7,5.8,4,5.8c0.4,0,0.9,0,0.9,0s1.3,10.7,2.7,14.7
			s5.3,7.6,5.3,7.6s0,13.4-1.8,15.1c-1.3,2.2-6.2,3.1-9.4,4.5c-4.5,1.8-14.3,2.2-20.5,4.5C64.8,123.4,46.1,132.3,46.1,156.4z"/>
	</g>
	<path fill="#00C9F8" d="M198,130.5h43.2c0-10.2-8-18.7-12-20c-4-1.3-8.9-3.1-13.8-4c-1.8-0.4-5.3-1.8-6.2-3.1
		c-0.9-1.3-0.4-8.9-0.4-8.9l0,0l0,0c1.3,0,13.4,0,18.3-4.5c-8.5-11.1-3.6-27.2-5.3-41c-1.3-13.8-9.4-22.3-24.5-22.3l0,0
		c-0.4,0-0.4,0-0.4,0c-15.6,0-23.6,8.5-25.4,22.3s2.7,28.5-5.8,41c5.3,4.5,18.3,4.9,18.3,4.9s0.4,7.1-0.4,8.5
		c-0.9,1.3-10.2,3.6-10.2,3.6c-7.1,0.9-4.9,4.5-4.9,4.5c3.6,0.9,8.5,0.9,13.4,3.1C189.5,118.5,198,126.1,198,130.5z"/>
	<path fill="#00C9F8" d="M32.7,94.4"/>
</g>
</svg>
