<?xml version="1.0" encoding="utf-8"?>
<!-- Generator: Adobe Illustrator 18.1.1, SVG Export Plug-In . SVG Version: 6.00 Build 0)  -->
<svg version="1.1" id="Layer_1" xmlns="http://www.w3.org/2000/svg" xmlns:xlink="http://www.w3.org/1999/xlink" x="0px" y="0px"
	 viewBox="76.8 0 164.4 156.4" enable-background="new 76.8 0 164.4 156.4" xml:space="preserve">
<g>
	<g>
		<path fill="#929FA7" d="M152.5,0.4L152.5,0.4L152.5,0.4z"/>
		<path fill="#929FA7" d="M203.3,121.2c-6.2-2.2-16-2.7-20.5-4.5c-3.1-1.3-8-2.2-9.4-4.5c-1.8-1.8-1.8-15.1-1.8-15.1s4-3.6,5.3-7.6
			c1.3-4,2.7-14.7,2.7-14.7s0.4,0,0.9,0c1.3,0,3.1-0.9,4-5.8c1.3-6.2,3.6-9.4,2.7-13.8c-0.4-3.1-1.8-3.6-2.7-3.6c-0.4,0-0.4,0-0.4,0
			s3.1-4.5,3.1-20c0-16-12.5-31.6-34.7-31.6c-22.7,0-34.7,15.6-34.7,31.6c0,15.6,3.1,20,3.1,20h-0.4c-0.9,0-2.2,0.4-2.7,3.6
			c-0.4,4.5,1.8,7.6,2.7,13.8c0.9,4.9,3.1,5.8,4,5.8c0.4,0,0.9,0,0.9,0s0.9,10.7,2.7,14.7s5.3,7.6,5.3,7.6s0,13.4-1.8,15.1
			c-1.8,1.8-6.2,3.1-9.4,4.5c-4.5,1.8-14.3,2.2-20.5,4.5c-6.2,2.2-24.9,11.1-24.9,35.2h151C227.8,132.3,209.1,123.4,203.3,121.2z"/>
	</g>
	<path fill="#929FA7" d="M241.2,94.4"/>
</g>
</svg>
