<?xml version="1.0" encoding="utf-8"?>
<!-- Generator: Adobe Illustrator 18.1.1, SVG Export Plug-In . SVG Version: 6.00 Build 0)  -->
<svg version="1.1" id="Layer_1" xmlns="http://www.w3.org/2000/svg" xmlns:xlink="http://www.w3.org/1999/xlink" x="0px" y="0px"
	 viewBox="200 -200 500 500" enable-background="new 200 -200 500 500" xml:space="preserve">
<path fill="#FFFFFF" d="M409.6-63.8c0-10-8.2-18.4-18.2-18.4c-14.4,0-32,10.3-46.7,24.8c-15,14.9-26,34.8-26,47.9
	c0,10,8.2,18.2,18.2,18.2c8.9,0,16.4-6.4,17.9-15c4.5-18.3,20.2-35,39.8-39.5C403.1-47.5,409.6-54.9,409.6-63.8z M540.1,88
	c15.2-24.3,24-53.2,24-84c0-87.9-71.1-159-159-159c-87.9,0-159,71.1-159,159c0,87.9,71.1,159,159,159c30.9,0,59.6-8.8,84-24
	l104.4,104.3c14,14.1,36.9,14.1,51,0c14.1-14.1,14.1-37,0-51.1L540.1,88z M405.1,117.6c-62.7,0-113.6-50.9-113.6-113.6
	c0-62.7,50.9-113.6,113.6-113.6S518.6-58.6,518.6,4.1C518.6,66.8,467.7,117.6,405.1,117.6z"/>
</svg>
