<?xml version="1.0" encoding="utf-8"?>
<!-- Generator: Adobe Illustrator 18.1.1, SVG Export Plug-In . SVG Version: 6.00 Build 0)  -->
<svg version="1.1" id="Layer_1" xmlns="http://www.w3.org/2000/svg" xmlns:xlink="http://www.w3.org/1999/xlink" x="0px" y="0px"
	 viewBox="-483 385 32 32" enable-background="new -483 385 32 32" xml:space="preserve">
<g>
	<g>
		<path fill="#FFFFFF" d="M-481.1,401.2c-1.1,0.6-1,1.4,0.1,1.9l3.4,1.3c1.1,0.4,2.9,0.2,3.8-0.5l14.6-11.5c1-0.8,1.1-0.6,0.2,0.2
			l-11.6,12.4c-0.8,0.9-0.6,2,0.5,2.4l0.4,0.2c1.1,0.4,3,1.2,4.1,1.6l3.7,1.5c1.1,0.5,2.1,0.8,2.1,0.8c0,0,0,0,0,0
			c0,0,0.3-1,0.6-2.1l5.7-20.9c0.3-1.2-0.3-1.7-1.4-1.1L-481.1,401.2z"/>
	</g>
	<g>
		<path fill="#FFFFFF" d="M-471.9,414.9c-0.1,0.2,2.3-3.4,2.3-3.4c0.7-1,0.3-2.2-0.8-2.7l-2.6-1.1c-1.1-0.5-1.7,0.1-1.2,1.2
			C-474.2,408.9-471.8,414.7-471.9,414.9z"/>
	</g>
</g>
</svg>
