<?xml version="1.0" encoding="utf-8"?>
<!-- Generator: Adobe Illustrator 18.1.1, SVG Export Plug-In . SVG Version: 6.00 Build 0)  -->
<svg version="1.1" id="Шар_1" xmlns:sketch="http://www.bohemiancoding.com/sketch/ns"
	 xmlns="http://www.w3.org/2000/svg" xmlns:xlink="http://www.w3.org/1999/xlink" x="0px" y="0px" viewBox="-101.3 57.4 29.6 42"
	 enable-background="new -101.3 57.4 29.6 42" xml:space="preserve">
<title></title>
<desc></desc>
<g>
	<path fill="#FFFFFF" d="M-79.5,68.3h7.8l-9.3-10.9v9.3C-81.1,67.6-80.4,68.3-79.5,68.3z"/>
	<path fill="#FFFFFF" d="M-82.6,66.7v-9.3h-15.5c-1.7,0-3.1,1.4-3.1,3.1v35.8c0,1.7,1.4,3.1,3.1,3.1h23.3c1.7,0,3.1-1.4,3.1-3.1
		V69.9h-7.8C-81.2,69.9-82.6,68.5-82.6,66.7z M-96.6,63.6h10.9v1.6h-10.9V63.6z M-96.6,68.3h10.9v1.6h-10.9V68.3z M-76.4,93.2h-20.2
		v-1.6h20.2V93.2z M-76.4,88.5h-20.2V87h20.2V88.5z M-76.4,83.9h-20.2v-1.6h20.2V83.9z M-76.4,79.2h-20.2v-1.6h20.2V79.2z
		 M-76.4,74.5h-20.2V73h20.2V74.5z"/>
</g>
</svg>
