<?xml version="1.0" encoding="utf-8"?>
<!-- Generator: Adobe Illustrator 18.1.1, SVG Export Plug-In . SVG Version: 6.00 Build 0)  -->
<svg version="1.1" id="Шар_1" xmlns:sketch="http://www.bohemiancoding.com/sketch/ns"
	 xmlns="http://www.w3.org/2000/svg" xmlns:xlink="http://www.w3.org/1999/xlink" x="0px" y="0px" viewBox="-490.8 404 33.6 24"
	 enable-background="new -490.8 404 33.6 24" xml:space="preserve">
<title></title>
<g id="Icons_with_numbers">
	<g id="Group" transform="translate(-336.000000, 0.000000)">
		<path id="Shape" fill="#FFFFFF" d="M-133.8,417.2l11.8,10.2c-0.4,0.4-1,0.6-1.7,0.6h-28.8c-0.6,0-1.2-0.2-1.7-0.6l11.9-10.2
			l4.2,3.6L-133.8,417.2z M-138,418.4l-16-13.8c0.4-0.4,1-0.6,1.7-0.6h28.8c0.6,0,1.2,0.2,1.7,0.6L-138,418.4z M-121.2,426.1
			l-11.6-9.8l11.6-10.1V426.1L-121.2,426.1z M-154.8,426.1v-19.9l11.6,10.1L-154.8,426.1L-154.8,426.1z"/>
	</g>
</g>
</svg>
