<?xml version="1.0" encoding="utf-8"?>
<!-- Generator: Adobe Illustrator 18.1.1, SVG Export Plug-In . SVG Version: 6.00 Build 0)  -->
<svg version="1.1" id="Layer_1" xmlns="http://www.w3.org/2000/svg" xmlns:xlink="http://www.w3.org/1999/xlink" x="0px" y="0px"
	 viewBox="-26.7 401.3 32 24" enable-background="new -26.7 401.3 32 24" xml:space="preserve">
<g>
	<g>
		<path fill="#FFFFFF" d="M-8.4,401.4L-8.4,401.4L-8.4,401.4z"/>
		<path fill="#FFFFFF" d="M-0.6,419.9c-1-0.3-2.5-0.4-3.1-0.7c-0.5-0.2-1.2-0.3-1.4-0.7c-0.3-0.3-0.3-2.3-0.3-2.3s0.6-0.5,0.8-1.2
			c0.2-0.6,0.4-2.3,0.4-2.3s0.1,0,0.1,0c0.2,0,0.5-0.1,0.6-0.9c0.2-1,0.5-1.4,0.4-2.1c-0.1-0.5-0.3-0.5-0.4-0.5c-0.1,0-0.1,0-0.1,0
			s0.5-0.7,0.5-3.1c0-2.5-1.9-4.9-5.3-4.9c-3.5,0-5.3,2.4-5.3,4.9c0,2.4,0.5,3.1,0.5,3.1h-0.1c-0.1,0-0.3,0.1-0.4,0.5
			c-0.1,0.7,0.3,1.2,0.4,2.1c0.1,0.8,0.5,0.9,0.6,0.9c0.1,0,0.1,0,0.1,0s0.1,1.6,0.4,2.3s0.8,1.2,0.8,1.2s0,2.1-0.3,2.3
			s-1,0.5-1.4,0.7c-0.7,0.3-2.2,0.3-3.1,0.7s-3.8,1.7-3.8,5.4H3.2C3.2,421.6,0.3,420.3-0.6,419.9z"/>
	</g>
	<path fill="#FFFFFF" d="M-17.6,418.9c0.8-0.3,1.5-0.3,2.1-0.5c0,0,0.3-0.5-0.8-0.7c0,0-1.4-0.3-1.6-0.5c-0.1-0.2-0.1-1.3-0.1-1.3
		s2-0.1,2.8-0.8c-1.3-1.9-0.6-4.2-0.9-6.3c-0.3-2.1-1.5-3.4-3.9-3.4c0,0,0,0-0.1,0l0,0c-2.3,0-3.6,1.3-3.8,3.4
		c-0.3,2.1,0.5,4.6-0.8,6.3c0.8,0.7,2.6,0.7,2.8,0.7l0,0l0,0c0,0,0.1,1.2-0.1,1.4c-0.1,0.2-0.7,0.4-1,0.5c-0.8,0.1-1.5,0.4-2.1,0.6
		c-0.6,0.2-1.8,1.5-1.8,3.1h6.6C-20.1,420.7-18.8,419.5-17.6,418.9z"/>
	<path fill="#FFFFFF" d="M5.3,415.8"/>
</g>
</svg>
