<?xml version="1.0" encoding="utf-8"?>
<!-- Generator: Adobe Illustrator 18.1.1, SVG Export Plug-In . SVG Version: 6.00 Build 0)  -->
<svg version="1.1" id="Шар_1" xmlns="http://www.w3.org/2000/svg" xmlns:xlink="http://www.w3.org/1999/xlink" x="0px" y="0px"
	 viewBox="463.2 405 24 24" enable-background="new 463.2 405 24 24" xml:space="preserve">
<g>
	<path fill="#FFFFFF" d="M475.2,405c-6.6,0-12,5.4-12,12s5.4,12,12,12s12-5.4,12-12S481.8,405,475.2,405z M481.3,417
		c0,0.3,0,0.5-0.1,0.8l1.7,1.4c0.2,0.1,0.2,0.3,0.1,0.5l-1.7,2.9c-0.1,0.2-0.3,0.2-0.5,0.2l-2.1-0.8c-0.4,0.3-0.9,0.6-1.4,0.8
		l-0.3,2.2c-0.1,0.2-0.2,0.3-0.4,0.3h-3.3c-0.2,0-0.4-0.2-0.4-0.3l-0.3-2.2c-0.5-0.2-1-0.5-1.4-0.8l-2.1,0.8c-0.2,0.1-0.4,0-0.5-0.2
		l-1.7-2.9c-0.1-0.2-0.1-0.4,0.1-0.5l1.7-1.4c-0.1-0.3-0.1-0.5-0.1-0.8s0-0.5,0.1-0.8l-1.7-1.4c-0.2-0.1-0.2-0.3-0.1-0.5l1.7-2.9
		c0.1-0.2,0.3-0.2,0.5-0.2l2.1,0.8c0.4-0.3,0.9-0.6,1.4-0.8l0.3-2.2c0.1-0.2,0.2-0.3,0.4-0.3h3.3c0.2,0,0.4,0.2,0.4,0.3l0.3,2.2
		c0.5,0.2,1,0.5,1.4,0.8l2.1-0.8c0.2-0.1,0.4,0,0.5,0.2l1.7,2.9c0.1,0.2,0.1,0.4-0.1,0.5l-1.7,1.4
		C481.3,416.4,481.3,416.7,481.3,417z"/>
	<path fill="#FFFFFF" d="M475.2,414.1c-1.6,0-2.9,1.3-2.9,2.9s1.3,2.9,2.9,2.9s2.9-1.3,2.9-2.9S476.8,414.1,475.2,414.1z"/>
</g>
</svg>
