<?xml version="1.0" encoding="utf-8"?>
<!-- Generator: Adobe Illustrator 18.1.1, SVG Export Plug-In . SVG Version: 6.00 Build 0)  -->
<svg version="1.1" id="Layer_1" xmlns="http://www.w3.org/2000/svg" xmlns:xlink="http://www.w3.org/1999/xlink" x="0px" y="0px"
	 viewBox="-13 15 32 32" enable-background="new -13 15 32 32" xml:space="preserve">
<g id="calendar_1_">
	<path fill="#FFFFFF" d="M16.3,18H12v-2c0-0.6-0.4-1-1-1s-1,0.4-1,1v2H4v-2c0-0.6-0.4-1-1-1s-1,0.4-1,1v2h-6v-2c0-0.6-0.4-1-1-1
		s-1,0.4-1,1v2h-4.3c-1.5,0-2.7,1.2-2.7,2.7v23.7c0,1.5,1.2,2.7,2.7,2.7h26.7c1.5,0,2.7-1.2,2.7-2.7V20.7C19,19.2,17.8,18,16.3,18z
		 M17,44.3c0,0.4-0.3,0.7-0.7,0.7h-26.7c-0.4,0-0.7-0.3-0.7-0.7V20.7c0-0.4,0.3-0.7,0.7-0.7H-6v2c0,0.6,0.4,1,1,1s1-0.4,1-1v-2h6v2
		c0,0.6,0.4,1,1,1s1-0.4,1-1v-2h6v2c0,0.6,0.4,1,1,1s1-0.4,1-1v-2h4.3c0.4,0,0.7,0.3,0.7,0.7V44.3z"/>
	<rect x="-6" y="27" fill="#FFFFFF" width="4" height="3"/>
	<rect x="-6" y="32" fill="#FFFFFF" width="4" height="3"/>
	<rect x="-6" y="37" fill="#FFFFFF" width="4" height="3"/>
	<rect x="1" y="37" fill="#FFFFFF" width="4" height="3"/>
	<rect x="1" y="32" fill="#FFFFFF" width="4" height="3"/>
	<rect x="1" y="27" fill="#FFFFFF" width="4" height="3"/>
	<rect x="8" y="37" fill="#FFFFFF" width="4" height="3"/>
	<rect x="8" y="32" fill="#FFFFFF" width="4" height="3"/>
	<rect x="8" y="27" fill="#FFFFFF" width="4" height="3"/>
</g>
</svg>
