<?xml version="1.0" encoding="utf-8"?>
<!-- Generator: Adobe Illustrator 18.1.1, SVG Export Plug-In . SVG Version: 6.00 Build 0)  -->
<svg version="1.1" id="Layer_1" xmlns="http://www.w3.org/2000/svg" xmlns:xlink="http://www.w3.org/1999/xlink" x="0px" y="0px"
	 viewBox="-17 19 24 24" enable-background="new -17 19 24 24" xml:space="preserve">
<path fill="#00cfff" d="M-5.5,31.4c-2.1,0-3.8-1.7-3.8-3.9c0-2.1,1.7-3.9,3.8-3.9s3.8,1.7,3.8,3.9C-1.7,29.6-3.4,31.4-5.5,31.4
	 M-5.5,19c-4.7,0-8.5,3.8-8.5,8.5c0,4.5,3.8,10.2,6.4,13c1,1,2.1,2.5,2.1,2.5s1.2-1.4,2.2-2.5c2.6-2.7,6.3-8.1,6.3-13
	C3,22.8-0.8,19-5.5,19"/>
</svg>
