<?xml version="1.0" encoding="utf-8"?>
<!-- Generator: Adobe Illustrator 18.1.1, SVG Export Plug-In . SVG Version: 6.00 Build 0)  -->
<svg version="1.1" id="Шар_1" xmlns:sketch="http://www.bohemiancoding.com/sketch/ns"
	 xmlns="http://www.w3.org/2000/svg" xmlns:xlink="http://www.w3.org/1999/xlink" x="0px" y="0px" viewBox="-17 19 24 24"
	 enable-background="new -17 19 24 24" xml:space="preserve">
<title></title>
<desc></desc>
<g id="miu">
	<g id="Artboard-1" transform="translate(-251.000000, -587.000000)">
		<g id="slice" transform="translate(215.000000, 119.000000)">
		</g>
		<path id="device-camera-capture-photo-glyph" fill="#FFFFFF" d="M251.2,612h3.8c0,0,2,0,2,2v10c0,2-2,2-2,2h-18c0,0-2,0-2-2v-10
			c0-2,2-2,2-2h3.8l0.9-1.6c0.1-0.2,0.5-0.4,0.8-0.4h7c0.3,0,0.6,0.2,0.8,0.4L251.2,612L251.2,612z M246,623c2.5,0,4.5-2,4.5-4.5
			s-2-4.5-4.5-4.5s-4.5,2-4.5,4.5S243.5,623,246,623z M246,622c1.9,0,3.5-1.6,3.5-3.5s-1.6-3.5-3.5-3.5s-3.5,1.6-3.5,3.5
			S244.1,622,246,622z M252,616c0.6,0,1-0.4,1-1s-0.4-1-1-1s-1,0.4-1,1S251.4,616,252,616z M238.2,610.5c-0.1,0-0.2,0.1-0.2,0.2v0.6
			c0,0.1,0.1,0.2,0.2,0.2h1.6c0.1,0,0.2-0.1,0.2-0.2v-0.6c0-0.1-0.1-0.2-0.2-0.2H238.2z"/>
	</g>
</g>
</svg>
