<?xml version="1.0" encoding="utf-8"?>
<!-- Generator: Adobe Illustrator 18.1.1, SVG Export Plug-In . SVG Version: 6.00 Build 0)  -->
<svg version="1.1" id="Layer_1" xmlns="http://www.w3.org/2000/svg" xmlns:xlink="http://www.w3.org/1999/xlink" x="0px" y="0px"
	 viewBox="-13 15 32 32" enable-background="new -13 15 32 32" xml:space="preserve">
<g transform="translate(576 192)">
	<path fill="#FFFFFF" d="M-557.9-150.1l-7.3-7.3c-1.1,1.7-2.5,3.1-4.2,4.2l7.3,7.3c1.2,1.2,3.1,1.2,4.2,0
		C-556.7-147-556.7-148.9-557.9-150.1z"/>
	<path fill="#FFFFFF" d="M-565-165c0-6.6-5.4-12-12-12s-12,5.4-12,12s5.4,12,12,12S-565-158.4-565-165z M-577-156c-5,0-9-4-9-9
		c0-5,4-9,9-9c5,0,9,4,9,9C-568-160-572-156-577-156z"/>
	<path fill="#FFFFFF" d="M-584-165h2c0-2.8,2.2-5,5-5v-2C-580.9-172-584-168.9-584-165z"/>
</g>
</svg>
