<?xml version="1.0" encoding="utf-8"?>
<!-- Generator: Adobe Illustrator 18.1.1, SVG Export Plug-In . SVG Version: 6.00 Build 0)  -->
<svg version="1.1" id="Layer_1" xmlns="http://www.w3.org/2000/svg" xmlns:xlink="http://www.w3.org/1999/xlink" x="0px" y="0px"
	 viewBox="-33 35 32 32" enable-background="new -33 35 32 32" xml:space="preserve">
<g id="calendar_1_">
	<path fill="#00CFFF" d="M-3.7,38H-8v-2c0-0.6-0.4-1-1-1s-1,0.4-1,1v2h-6v-2c0-0.6-0.4-1-1-1s-1,0.4-1,1v2h-6v-2c0-0.6-0.4-1-1-1
		s-1,0.4-1,1v2h-4.3c-1.5,0-2.7,1.2-2.7,2.7v23.7c0,1.5,1.2,2.7,2.7,2.7h26.7c1.5,0,2.7-1.2,2.7-2.7V40.7C-1,39.2-2.2,38-3.7,38z
		 M-3,64.3c0,0.4-0.3,0.7-0.7,0.7h-26.7c-0.4,0-0.7-0.3-0.7-0.7V40.7c0-0.4,0.3-0.7,0.7-0.7h4.3v2c0,0.6,0.4,1,1,1s1-0.4,1-1v-2h6v2
		c0,0.6,0.4,1,1,1s1-0.4,1-1v-2h6v2c0,0.6,0.4,1,1,1s1-0.4,1-1v-2h4.3c0.4,0,0.7,0.3,0.7,0.7V64.3z"/>
	<rect x="-26" y="47" fill="#00CFFF" width="4" height="3"/>
	<rect x="-26" y="52" fill="#00CFFF" width="4" height="3"/>
	<rect x="-26" y="57" fill="#00CFFF" width="4" height="3"/>
	<rect x="-19" y="57" fill="#00CFFF" width="4" height="3"/>
	<rect x="-19" y="52" fill="#00CFFF" width="4" height="3"/>
	<rect x="-19" y="47" fill="#00CFFF" width="4" height="3"/>
	<rect x="-12" y="57" fill="#00CFFF" width="4" height="3"/>
	<rect x="-12" y="52" fill="#00CFFF" width="4" height="3"/>
	<rect x="-12" y="47" fill="#00CFFF" width="4" height="3"/>
</g>
</svg>
