<?xml version="1.0" encoding="utf-8"?>
<!-- Generator: Adobe Illustrator 18.1.1, SVG Export Plug-In . SVG Version: 6.00 Build 0)  -->
<svg version="1.1" id="Шар_1" xmlns="http://www.w3.org/2000/svg" xmlns:xlink="http://www.w3.org/1999/xlink" x="0px" y="0px"
	 viewBox="0 0 100 100" enable-background="new 0 0 100 100" xml:space="preserve">
<rect y="54.9" fill="#00CFFF" width="100" height="12.1"/>
<path fill="#00CFFF" d="M0,82.4v-61c0-2.7,2.2-4.9,4.9-4.9l0,0c2.7,0,4.9,2.2,4.9,4.9v61H0z"/>
<path fill="#00CFFF" d="M89.6,83.5V34.6c0-2.7,2.2-4.9,4.9-4.9l0,0c2.7,0,4.9,2.2,4.9,4.9V83h-9.9V83.5z"/>
<path fill="#00CFFF" d="M41.8,52.2V30.8h37.4c4.9,0,8.8,3.8,8.8,8.8v13.2L41.8,52.2z"/>
<circle fill="#00CFFF" cx="20.3" cy="34.6" r="8.2"/>
<path fill="#00CFFF" d="M39,36.8c0-2.2-2.2-4.4-4.4-4.4s-4.4,2.2-4.4,4.4v8.2H17c-2.2,0-3.8,1.6-3.8,3.8c0,2.2,1.6,3.8,3.8,3.8h18.1
	c2.2,0,3.8-1.6,3.8-3.8c0,0,0,0,0-0.5c0,0,0,0,0-0.5C39,47.8,39,36.8,39,36.8z"/>
</svg>
