<?xml version="1.0" encoding="utf-8"?>
<!-- Generator: Adobe Illustrator 18.1.1, SVG Export Plug-In . SVG Version: 6.00 Build 0)  -->
<svg version="1.1" id="Шар_1" xmlns="http://www.w3.org/2000/svg" xmlns:xlink="http://www.w3.org/1999/xlink" x="0px" y="0px"
	 viewBox="1.4 9.1 97.1 79.8" enable-background="new 1.4 9.1 97.1 79.8" xml:space="preserve">
<path fill="#929FA7" stroke="#FFFFFF" stroke-width="2" stroke-miterlimit="10" d="M2.4,88.9c0-3.6,18.1-21.8,18.1-21.8"/>
<line fill="none" stroke="#FFFFFF" stroke-width="2" stroke-miterlimit="10" x1="19.4" y1="67.2" x2="62.5" y2="67.2"/>
<line fill="none" stroke="#FFFFFF" stroke-width="2" stroke-miterlimit="10" x1="61.5" y1="67.5" x2="77.2" y2="51.8"/>
<path fill="none" stroke="#FFFFFF" stroke-miterlimit="10" d="M24.6,88.1c0-7.2,8.1-29.7,8.1-29.7"/>
<line fill="none" stroke="#FFFFFF" stroke-miterlimit="10" x1="32" y1="58.3" x2="52.8" y2="58.3"/>
<path fill="none" stroke="#FFFFFF" stroke-miterlimit="10" d="M52.2,58.4c0,0,8.7,22,8.7,29.6"/>
<line fill="none" stroke="#FFFFFF" stroke-miterlimit="10" x1="56.7" y1="67.5" x2="68.3" y2="39.7"/>
<path fill="none" stroke="#FFFFFF" stroke-miterlimit="10" d="M98,47.2c0,0-14.1-2.4-29.4-7.3C54,35.1,40.7,28.2,40.7,28.2
	s16.5-17.7,36.7-12.1C97.2,21.8,98,47.2,98,47.2z"/>
<path fill="#FFFFFF" d="M40.7,28.2l7.7-6l9.3-4.8l8.5-2l8.5-0.3c0,0,5.2,2.3,4.8,2.3C66.5,20.6,61.6,28,59.1,36.5L40.7,28.2z"/>
<path fill="#FFFFFF" d="M77.8,42.7L98,47.2v-4.7l-2.7-8.2l-5-8.9l-4.3-5l-7.2-3.8c0,0-3.4-2.1-2.6-0.5
	C85.1,26.2,77.8,42.7,77.8,42.7z"/>
<line fill="none" stroke="#FFFFFF" stroke-miterlimit="10" x1="77.8" y1="15.7" x2="79.8" y2="9.3"/>
</svg>
