<?xml version="1.0" encoding="utf-8"?>
<!-- Generator: Adobe Illustrator 18.1.1, SVG Export Plug-In . SVG Version: 6.00 Build 0)  -->
<svg version="1.1" id="Шар_1" xmlns="http://www.w3.org/2000/svg" xmlns:xlink="http://www.w3.org/1999/xlink" x="0px" y="0px"
	 viewBox="-1 3 96 96" enable-background="new -1 3 96 96" xml:space="preserve">
<g id="Dibujo">
	<g>
		<path fill="#00CFFF" d="M71.6,45.2c0.9-1.9,1.4-4,1.4-6.2c0-7.7-6.3-14-14-14c-4.6,0-8.9,2.3-11.5,6c-0.2,0-0.3,0-0.5,0
			c-7.7,0-14.2,5-16.3,12.2C30.1,43.1,29.5,43,29,43c-6.1,0-11,4.9-11,11s4.9,11,11,11h36c6.1,0,11-4.9,11-11
			C76,50.4,74.2,47.2,71.6,45.2z M59,29c5.5,0,10,4.5,10,10c0,1.5-0.4,3-1,4.4C67,43.2,66,43,65,43c-0.5,0-1.1,0.1-1.7,0.2
			c-1.6-5.5-5.9-9.7-11.2-11.4C53.9,30,56.4,29,59,29z M65,61H29c-3.9,0-7-3.1-7-7s3.1-7,7-7c0.3,0,0.7,0.1,1.2,0.2V49
			c0,1.1,0.9,2,2,2s2-0.9,2-2v-3.2C35.3,39.5,40.6,35,47,35c6.4,0,11.7,4.5,12.8,10.8V49c0,1.1,0.9,2,2,2s2-0.9,2-2v-1.8
			c0.5-0.1,0.9-0.2,1.2-0.2c3.9,0,7,3.1,7,7S68.9,61,65,61z"/>
		<path fill="#00CFFF" d="M59,21c1.1,0,2-0.9,2-2v-4c0-1.1-0.9-2-2-2c-1.1,0-2,0.9-2,2v4C57,20.1,57.9,21,59,21z"/>
		<path fill="#00CFFF" d="M83,37h-4c-1.1,0-2,0.9-2,2s0.9,2,2,2h4c1.1,0,2-0.9,2-2S84.1,37,83,37z"/>
		<path fill="#00CFFF" d="M73.1,26.9c0.5,0,1-0.2,1.4-0.6l2.8-2.8c0.8-0.8,0.8-2,0-2.8c-0.8-0.8-2-0.8-2.8,0l-2.8,2.8
			c-0.8,0.8-0.8,2,0,2.8C72.1,26.7,72.6,26.9,73.1,26.9z"/>
		<path fill="#00CFFF" d="M43.4,26.3c0.4,0.4,0.9,0.6,1.4,0.6s1-0.2,1.4-0.6c0.8-0.8,0.8-2,0-2.8l-2.8-2.8c-0.8-0.8-2-0.8-2.8,0
			s-0.8,2,0,2.8L43.4,26.3z"/>
	</g>
</g>
</svg>
