<?xml version="1.0" encoding="utf-8"?>
<!-- Generator: Adobe Illustrator 18.1.1, SVG Export Plug-In . SVG Version: 6.00 Build 0)  -->
<svg version="1.1" id="Layer_1" xmlns="http://www.w3.org/2000/svg" xmlns:xlink="http://www.w3.org/1999/xlink" x="0px" y="0px"
	 viewBox="16.7 20 26.7 20" enable-background="new 16.7 20 26.7 20" xml:space="preserve">
<g>
	<g>
		<path fill="#FFFFFF" d="M32,20.1L32,20.1L32,20.1z"/>
		<path fill="#FFFFFF" d="M38.5,35.5c-0.8-0.3-2.1-0.3-2.6-0.6c-0.4-0.2-1-0.3-1.2-0.6c-0.2-0.2-0.2-1.9-0.2-1.9s0.5-0.5,0.7-1
			s0.3-1.9,0.3-1.9s0.1,0,0.1,0c0.2,0,0.4-0.1,0.5-0.7c0.2-0.8,0.5-1.2,0.3-1.8c-0.1-0.4-0.2-0.5-0.3-0.5c-0.1,0-0.1,0-0.1,0
			s0.4-0.6,0.4-2.6c0-2.1-1.6-4-4.4-4c-2.9,0-4.4,2-4.4,4c0,2,0.4,2.6,0.4,2.6h-0.1c-0.1,0-0.3,0.1-0.3,0.5c-0.1,0.6,0.2,1,0.3,1.8
			c0.1,0.6,0.4,0.7,0.5,0.7c0.1,0,0.1,0,0.1,0s0.1,1.4,0.3,1.9c0.2,0.5,0.7,1,0.7,1s0,1.7-0.2,1.9s-0.8,0.4-1.2,0.6
			c-0.6,0.2-1.8,0.3-2.6,0.6s-3.2,1.4-3.2,4.5h19.3C41.6,36.9,39.2,35.8,38.5,35.5z"/>
	</g>
	<path fill="#FFFFFF" d="M24.3,34.6c0.6-0.3,1.3-0.3,1.7-0.4c0,0,0.3-0.5-0.6-0.6c0,0-1.2-0.3-1.3-0.5S24,32.1,24,32.1
		s1.7-0.1,2.3-0.6c-1.1-1.6-0.5-3.5-0.7-5.2c-0.2-1.8-1.3-2.8-3.2-2.8c0,0,0,0-0.1,0l0,0c-1.9,0-3,1.1-3.1,2.8
		c-0.2,1.8,0.4,3.8-0.7,5.2c0.6,0.6,2.2,0.6,2.3,0.6l0,0l0,0c0,0,0.1,1-0.1,1.1c-0.1,0.2-0.6,0.3-0.8,0.4c-0.6,0.1-1.3,0.3-1.8,0.5
		c-0.5,0.2-1.5,1.3-1.5,2.6h5.5C22.2,36.1,23.3,35.2,24.3,34.6z"/>
	<path fill="#FFFFFF" d="M43.3,32.1"/>
</g>
</svg>
