<?xml version="1.0" encoding="utf-8"?>
<!-- Generator: Adobe Illustrator 18.1.1, SVG Export Plug-In . SVG Version: 6.00 Build 0)  -->
<svg version="1.1" id="Шар_1" xmlns="http://www.w3.org/2000/svg" xmlns:xlink="http://www.w3.org/1999/xlink" x="0px" y="0px"
	 viewBox="25.1 13 20 20" enable-background="new 25.1 13 20 20" xml:space="preserve">
<g>
	<path fill="#FFFFFF" d="M35.1,13c-5.5,0-10,4.5-10,10s4.5,10,10,10s10-4.5,10-10S40.7,13,35.1,13z M40.2,23c0,0.2,0,0.4,0,0.7
		l1.4,1.1c0.1,0.1,0.2,0.3,0.1,0.4l-1.4,2.4c-0.1,0.1-0.3,0.2-0.4,0.1l-1.7-0.7c-0.3,0.3-0.7,0.5-1.1,0.7l-0.2,1.8
		c0,0.1-0.2,0.3-0.3,0.3h-2.7c-0.2,0-0.3-0.1-0.3-0.3l-0.2-1.8c-0.4-0.2-0.8-0.4-1.1-0.7l-1.7,0.7c-0.1,0-0.3,0-0.4-0.1l-1.4-2.4
		c-0.1-0.1,0-0.3,0.1-0.4l1.4-1.1c0-0.2,0-0.4,0-0.7c0-0.2,0-0.4,0-0.7l-1.4-1.1c-0.1-0.1-0.2-0.3-0.1-0.4l1.4-2.4
		c0.1-0.1,0.3-0.2,0.4-0.1l1.7,0.7c0.3-0.3,0.7-0.5,1.1-0.7l0.2-1.8c0-0.1,0.2-0.3,0.3-0.3h2.7c0.2,0,0.3,0.1,0.3,0.3l0.2,1.8
		c0.4,0.2,0.8,0.4,1.1,0.7l1.7-0.7c0.1,0,0.3,0,0.4,0.1l1.4,2.4c0.1,0.1,0,0.3-0.1,0.4l-1.4,1.1C40.2,22.5,40.2,22.7,40.2,23z"/>
	<path fill="#FFFFFF" d="M35.1,20.6c-1.3,0-2.4,1-2.4,2.4c0,1.3,1,2.4,2.4,2.4s2.4-1,2.4-2.4C37.5,21.6,36.5,20.6,35.1,20.6z"/>
</g>
</svg>
