<?xml version="1.0" encoding="utf-8"?>
<!-- Generator: Adobe Illustrator 18.1.1, SVG Export Plug-In . SVG Version: 6.00 Build 0)  -->
<svg version="1.1" id="Шар_1" xmlns:sketch="http://www.bohemiancoding.com/sketch/ns"
	 xmlns="http://www.w3.org/2000/svg" xmlns:xlink="http://www.w3.org/1999/xlink" x="0px" y="0px" viewBox="519.7 416.4 14.2 14"
	 enable-background="new 519.7 416.4 14.2 14" xml:space="preserve">
<title></title>
<desc></desc>
<path fill="#889197" d="M533.3,420.7l-0.6,0.6l-3.7-3.7l0.6-0.6c0.7-0.7,1.8-0.7,2.5,0l1.2,1.2C534,418.8,534,420,533.3,420.7z
	 M524.6,428.1c-0.2,0.2-0.2,0.4,0,0.6c0.2,0.2,0.4,0.2,0.6,0l6.9-6.9l-0.6-0.6L524.6,428.1z M521.5,425c-0.2,0.2-0.2,0.4,0,0.6
	c0.2,0.2,0.4,0.2,0.6,0l6.9-6.9l-0.6-0.6L521.5,425z M529.6,419.3l-6.9,6.9c-0.4,0.4-0.4,0.9,0,1.2c0.4,0.4,0.9,0.4,1.2,0l6.9-6.9
	L529.6,419.3z M524,429.4c-0.2-0.2-0.4-0.4-0.4-0.8c-0.1,0-0.2,0-0.3,0c-0.4,0-0.9-0.2-1.2-0.5c-0.4-0.4-0.5-0.8-0.5-1.2
	c0-0.1,0-0.2,0-0.3c-0.3,0-0.5-0.2-0.8-0.4c0,0,0-0.1-0.1-0.1l-1.1,4.3L524,429.4C524.1,429.4,524.1,429.4,524,429.4z"/>
</svg>
