<?xml version="1.0" encoding="UTF-8" standalone="no"?>
<!-- Generator: Adobe Illustrator 16.0.0, SVG Export Plug-In . SVG Version: 6.00 Build 0)  -->

<svg
   xmlns:dc="http://purl.org/dc/elements/1.1/"
   xmlns:cc="http://creativecommons.org/ns#"
   xmlns:rdf="http://www.w3.org/1999/02/22-rdf-syntax-ns#"
   xmlns:svg="http://www.w3.org/2000/svg"
   xmlns="http://www.w3.org/2000/svg"
   xmlns:sodipodi="http://sodipodi.sourceforge.net/DTD/sodipodi-0.dtd"
   xmlns:inkscape="http://www.inkscape.org/namespaces/inkscape"
   version="1.1"
   id="Capa_1"
   x="0px"
   y="0px"
   width="512px"
   height="512px"
   viewBox="0 0 305.002 305.002"
   style="enable-background:new 0 0 305.002 305.002;"
   xml:space="preserve"
   inkscape:version="0.91 r13725"
   sodipodi:docname="cancel-button-red.svg"><metadata
     id="metadata3619"><rdf:RDF><cc:Work
         rdf:about=""><dc:format>image/svg+xml</dc:format><dc:type
           rdf:resource="http://purl.org/dc/dcmitype/StillImage" /><dc:title></dc:title></cc:Work></rdf:RDF></metadata><defs
     id="defs3617" /><sodipodi:namedview
     pagecolor="#ffffff"
     bordercolor="#666666"
     borderopacity="1"
     objecttolerance="10"
     gridtolerance="10"
     guidetolerance="10"
     inkscape:pageopacity="0"
     inkscape:pageshadow="2"
     inkscape:window-width="1855"
     inkscape:window-height="1056"
     id="namedview3615"
     showgrid="false"
     inkscape:zoom="1.7949219"
     inkscape:cx="171.50102"
     inkscape:cy="340.11154"
     inkscape:window-x="65"
     inkscape:window-y="24"
     inkscape:window-maximized="1"
     inkscape:current-layer="Capa_1" /><g
     id="g3577"
     style="fill:#ee4633;fill-opacity:1"><g
       id="g3579"
       style="fill:#ee4633;fill-opacity:1"><path
         d="M152.502,0.001C68.412,0.001,0,68.412,0,152.501s68.412,152.5,152.502,152.5c84.089,0,152.5-68.411,152.5-152.5    S236.591,0.001,152.502,0.001z M152.502,280.001C82.197,280.001,25,222.806,25,152.501c0-70.304,57.197-127.5,127.502-127.5    c70.304,0,127.5,57.196,127.5,127.5C280.002,222.806,222.806,280.001,152.502,280.001z"
         fill="#414042"
         id="path3581"
         style="fill:#ee4633;fill-opacity:1" /><path
         d="M170.18,152.5l43.13-43.129c4.882-4.882,4.882-12.796,0-17.678c-4.881-4.882-12.796-4.881-17.678,0l-43.13,43.13    l-43.131-43.131c-4.882-4.881-12.796-4.881-17.678,0c-4.881,4.882-4.881,12.796,0,17.678l43.13,43.13l-43.131,43.131    c-4.881,4.882-4.881,12.796,0,17.679c2.441,2.44,5.64,3.66,8.839,3.66c3.199,0,6.398-1.221,8.839-3.66l43.131-43.132    l43.131,43.132c2.441,2.439,5.64,3.66,8.839,3.66s6.398-1.221,8.839-3.66c4.882-4.883,4.882-12.797,0-17.679L170.18,152.5z"
         fill="#414042"
         id="path3583"
         style="fill:#ee4633;fill-opacity:1" /></g></g><g
     id="g3585" /><g
     id="g3587" /><g
     id="g3589" /><g
     id="g3591" /><g
     id="g3593" /><g
     id="g3595" /><g
     id="g3597" /><g
     id="g3599" /><g
     id="g3601" /><g
     id="g3603" /><g
     id="g3605" /><g
     id="g3607" /><g
     id="g3609" /><g
     id="g3611" /><g
     id="g3613" /></svg>