<?xml version="1.0" encoding="utf-8"?>
<!-- Generator: Adobe Illustrator 18.1.1, SVG Export Plug-In . SVG Version: 6.00 Build 0)  -->
<svg version="1.1" id="Layer_1" xmlns="http://www.w3.org/2000/svg" xmlns:xlink="http://www.w3.org/1999/xlink" x="0px" y="0px"
	 viewBox="14.3 14.3 25 25" enable-background="new 14.3 14.3 25 25" xml:space="preserve">
<path fill="#FFFFFF" d="M28.1,26.8L39,15.9c0.4-0.4,0.4-1,0-1.4c-0.4-0.4-1-0.4-1.4,0L26.8,25.4L15.9,14.5c-0.4-0.4-1-0.4-1.4,0
	c-0.4,0.4-0.4,1,0,1.4l10.8,10.8L14.5,37.6c-0.4,0.4-0.4,1,0,1.4c0.2,0.2,0.4,0.3,0.7,0.3s0.5-0.1,0.7-0.3l10.8-10.8L37.6,39
	c0.2,0.2,0.4,0.3,0.7,0.3c0.2,0,0.5-0.1,0.7-0.3c0.4-0.4,0.4-1,0-1.4L28.1,26.8z"/>
</svg>
