<?xml version="1.0" encoding="utf-8"?>
<!-- Generator: Adobe Illustrator 18.1.1, SVG Export Plug-In . SVG Version: 6.00 Build 0)  -->
<svg version="1.1" id="Шар_1" xmlns:sketch="http://www.bohemiancoding.com/sketch/ns"
	 xmlns="http://www.w3.org/2000/svg" xmlns:xlink="http://www.w3.org/1999/xlink" x="0px" y="0px" viewBox="-37 39 24 24"
	 enable-background="new -37 39 24 24" xml:space="preserve">
<title></title>
<desc></desc>
<g id="miu">
	<g id="Artboard-1" transform="translate(-899.000000, -479.000000)">
		<g id="slice" transform="translate(215.000000, 119.000000)">
		</g>
		<path id="editor-trash-delete-recycle-bin-glyph" fill="#00b7f3" d="M865,520c0,0-0.5,0-0.5,1s0.5,1,0.5,1h18c0,0,0.5,0,0.5-1
			s-0.5-1-0.5-1H865L865,520z M865.5,523h17l-2,18h-13L865.5,523z M872.5,519c-1,0-1,1-1,1h5c0,0,0-1-1-1H872.5L872.5,519z
			 M870.5,539h1l-1-16h-1L870.5,539z M877.5,523l-1,16h1l1-16H877.5L877.5,523z M873.5,523v16h1v-16H873.5L873.5,523z"/>
	</g>
</g>
</svg>
