<?xml version="1.0" encoding="utf-8"?>
<!-- Generator: Adobe Illustrator 18.1.1, SVG Export Plug-In . SVG Version: 6.00 Build 0)  -->
<svg version="1.1" id="Шар_1" xmlns:sketch="http://www.bohemiancoding.com/sketch/ns"
	 xmlns="http://www.w3.org/2000/svg" xmlns:xlink="http://www.w3.org/1999/xlink" x="0px" y="0px" viewBox="28.1 22.1 30 30"
	 enable-background="new 28.1 22.1 30 30" xml:space="preserve">
<title></title>
<desc></desc>
<rect x="28.1" y="22.1" fill="#98C352" width="30" height="30"/>
<g id="miu">
	<g id="Artboard-1" transform="translate(-899.000000, -479.000000)">
		<g id="slice" transform="translate(215.000000, 119.000000)">
		</g>
		<path id="editor-trash-delete-recycle-bin-glyph" fill="#FFFFFF" d="M935.6,508.9c0,0-0.4,0-0.4,0.7c0,0.7,0.4,0.7,0.4,0.7h13.1
			c0,0,0.4,0,0.4-0.7c0-0.7-0.4-0.7-0.4-0.7H935.6L935.6,508.9z M935.9,511h12.4l-1.5,13.1h-9.5L935.9,511z M941,508.1
			c-0.7,0-0.7,0.7-0.7,0.7h3.6c0,0,0-0.7-0.7-0.7H941L941,508.1z M939.6,522.7h0.7l-0.7-11.6h-0.7L939.6,522.7z M944.7,511
			l-0.7,11.6h0.7l0.7-11.6H944.7L944.7,511z M941.8,511v11.6h0.7V511H941.8L941.8,511z"/>
	</g>
</g>
</svg>
