<?xml version="1.0" encoding="utf-8"?>
<!-- Generator: Adobe Illustrator 18.1.1, SVG Export Plug-In . SVG Version: 6.00 Build 0)  -->
<svg version="1.1" id="Layer_1" xmlns="http://www.w3.org/2000/svg" xmlns:xlink="http://www.w3.org/1999/xlink" x="0px" y="0px"
	 viewBox="76.6 20.3 14.4 13" enable-background="new 76.6 20.3 14.4 13" xml:space="preserve">
<path fill="#ee4633" d="M91,24.5c0-2.3-1.8-4.2-4.2-4.2c-1.2,0-2.1,0.5-3,1.2c-0.8-0.8-1.8-1.2-3-1.2c-2.3,0-4.2,1.8-4.2,4.2
	c0,1.1,0.4,2.1,1.2,2.9l5.7,5.8c0.1,0.1,0.1,0.1,0.3,0.1s0.2-0.1,0.3-0.1l1.4-1.4L85,31.1l-1.2,1.2l-5.3-5.3c-0.5-0.6-1-1.4-1-2.3
	c0-1.8,1.5-3.3,3.3-3.3c1.1,0,2,0.5,2.7,1.3c0.1,0.2,0.5,0.2,0.6,0c0.6-0.8,1.6-1.3,2.7-1.3c1.8,0,3.3,1.5,3.3,3.4
	c0,0.9-0.4,1.8-1.1,2.5l-3.3,3.2l0.5,0.6l3.2-3.2C90.6,26.6,91,25.6,91,24.5z"/>
</svg>
