<?xml version="1.0" encoding="iso-8859-1"?>
<!-- Generator: Adobe Illustrator 18.1.1, SVG Export Plug-In . SVG Version: 6.00 Build 0)  -->
<svg xmlns="http://www.w3.org/2000/svg" xmlns:xlink="http://www.w3.org/1999/xlink" version="1.1" id="Capa_1" x="0px" y="0px" viewBox="0 0 444.833 444.833" style="enable-background:new 0 0 444.833 444.833;" xml:space="preserve" width="512px" height="512px">
<g>
	<g>
		<path d="M343.683,0h-319.6c-9.35,0-17,7.65-17,17v410.833c0,9.35,7.65,17,17,17H420.75c9.35,0,17-7.65,17-17v-311.95    c0-3.683-1.133-7.367-3.683-10.483L357,6.517C353.883,2.55,348.783,0,343.683,0z M137.417,34h178.5v167.167h-178.5V34z     M403.75,410.833H41.083V34h62.333v184.45c0,9.35,6.233,16.717,15.583,16.717h214.767c9.35,0,16.15-7.367,16.15-16.717V53.833    l53.833,68V410.833z" fill="#FFFFFF"/>
		<path d="M276.25,82.167c0-9.35-7.65-17-17-17h-19.833c-9.35,0-17,7.65-17,17v68c0,9.35,7.65,17,17,17h19.833c9.35,0,17-7.65,17-17    V82.167z" fill="#FFFFFF"/>
	</g>
</g>
<g>
</g>
<g>
</g>
<g>
</g>
<g>
</g>
<g>
</g>
<g>
</g>
<g>
</g>
<g>
</g>
<g>
</g>
<g>
</g>
<g>
</g>
<g>
</g>
<g>
</g>
<g>
</g>
<g>
</g>
</svg>
