<?xml version="1.0" encoding="utf-8"?>
<!-- Generator: Adobe Illustrator 19.2.1, SVG Export Plug-In . SVG Version: 6.00 Build 0)  -->
<svg version="1.1" id="Capa_1" xmlns="http://www.w3.org/2000/svg" xmlns:xlink="http://www.w3.org/1999/xlink" x="0px" y="0px"
	 viewBox="0 0 512 512" style="enable-background:new 0 0 512 512;" xml:space="preserve">
<style type="text/css">
	.st0{fill:#414042;}
</style>
<polygon class="st0" points="344.2,379.1 451.4,486.3 486.3,451.4 379.1,344.2 462.4,344.2 462.4,294.6 294.6,294.6 294.6,462.4 
	344.2,462.4 "/>
<polygon class="st0" points="133,344.2 25.7,451.4 60.6,486.3 167.9,379.1 167.9,462.4 217.4,462.4 217.4,294.6 49.6,294.6 
	49.6,344.2 "/>
<polygon class="st0" points="167.9,132.9 60.6,25.7 25.7,60.6 133,167.8 49.6,167.8 49.6,217.4 217.4,217.4 217.4,49.6 167.9,49.6 
	"/>
<polygon class="st0" points="379.1,167.8 486.3,60.6 451.4,25.7 344.2,132.9 344.2,49.6 294.6,49.6 294.6,217.4 462.4,217.4 
	462.4,167.8 "/>
</svg>
