<svg xmlns="http://www.w3.org/2000/svg" xmlns:xlink="http://www.w3.org/1999/xlink" version="1.1" width="400" height="414" style="display: block;"><rect id="backgroundrect" width="100%" height="100%" x="0" y="0" fill="none" stroke="none"/><g class="currentLayer"><title>Layer 1</title><g id="svgg" class=""><path id="path0" d="M178.723 28.472 C 107.749 37.084,48.043 87.768,27.882 156.521 C 19.653 184.582,18.651 219.213,25.225 248.336 C 38.693 307.996,84.966 358.907,143.044 377.961 C 179.382 389.884,221.374 390.029,256.669 378.356 C 346.382 348.685,397.836 255.617,375.364 163.666 C 353.905 75.862,269.036 17.513,178.723 28.472 M194.435 92.308 L 194.435 145.336 190.998 145.329 C 174.677 145.297,133.234 138.035,129.805 134.606 C 128.778 133.579,138.498 111.073,145.144 99.089 C 156.474 78.659,173.769 55.975,187.561 43.454 C 195.168 36.549,194.435 31.341,194.435 92.308 M216.884 46.645 C 239.737 69.479,258.420 98.398,269.752 128.475 C 272.317 135.285,272.895 134.489,263.377 137.257 C 249.166 141.390,232.128 144.143,214.894 145.091 L 206.874 145.532 206.874 92.406 C 206.874 29.920,205.667 35.437,216.884 46.645 M166.643 47.492 C 150.876 65.213,138.516 83.701,128.640 104.337 C 124.127 113.766,118.494 127.414,118.494 128.920 C 118.494 134.097,88.165 113.477,78.077 101.442 L 73.992 96.568 81.350 89.149 C 103.741 66.569,129.111 52.061,160.065 44.134 C 172.634 40.916,172.538 40.866,166.643 47.492 M239.951 43.816 C 271.040 51.422,297.306 66.304,319.960 89.149 L 327.317 96.568 323.232 101.442 C 313.352 113.229,282.815 133.990,282.815 128.920 C 282.815 127.414,277.182 113.766,272.670 104.337 C 262.793 83.701,250.433 65.213,234.666 47.492 C 228.898 41.008,228.787 41.085,239.951 43.816 M71.860 112.638 C 81.629 123.015,92.964 131.293,106.710 138.090 L 114.239 141.813 113.079 146.029 C 109.590 158.710,106.440 178.863,105.640 193.617 L 105.205 201.637 68.885 201.637 L 32.565 201.637 33.035 194.926 C 34.661 171.737,41.895 147.244,53.192 126.678 C 56.251 121.108,65.513 106.711,66.037 106.711 C 66.171 106.710,68.791 109.378,71.860 112.638 M340.736 114.516 C 356.527 138.322,366.307 166.882,368.274 194.926 L 368.745 201.637 332.327 201.637 L 295.908 201.637 295.895 197.872 C 295.855 186.569,292.657 163.899,289.140 149.980 L 287.070 141.790 294.599 138.079 C 308.303 131.323,319.763 122.958,329.385 112.687 C 335.751 105.893,334.929 105.761,340.736 114.516 M145.040 151.548 C 158.573 154.583,179.137 157.119,190.216 157.119 L 194.435 157.119 194.435 179.378 L 194.435 201.637 155.810 201.637 L 117.185 201.637 117.198 198.854 C 117.254 187.400,121.146 162.031,124.770 149.510 L 125.740 146.155 131.703 148.025 C 134.983 149.053,140.984 150.639,145.040 151.548 M276.619 149.755 C 279.767 160.551,282.878 179.931,283.868 194.926 L 284.312 201.637 245.593 201.637 L 206.874 201.637 206.874 179.378 L 206.874 157.119 211.094 157.119 C 228.870 157.119,267.674 150.444,275.404 146.057 C 275.468 146.020,276.015 147.684,276.619 149.755 M105.666 221.768 C 106.456 236.217,108.455 249.668,112.045 264.688 C 113.148 269.301,113.945 273.165,113.817 273.275 C 113.689 273.384,110.018 275.283,105.659 277.494 C 91.766 284.540,81.955 291.764,72.015 302.267 L 66.181 308.432 63.207 304.393 C 46.827 282.142,35.084 249.346,33.035 220.131 L 32.565 213.421 68.887 213.421 L 105.210 213.421 105.666 221.768 M194.435 235.578 L 194.435 257.734 185.106 258.160 C 167.538 258.960,147.761 262.184,133.046 266.645 L 125.729 268.863 124.661 265.201 C 121.542 254.507,118.428 235.067,117.441 220.131 L 116.998 213.421 155.717 213.421 L 194.435 213.421 194.435 235.578 M283.868 220.131 C 282.882 235.067,279.768 254.507,276.648 265.201 L 275.580 268.863 268.263 266.645 C 253.548 262.184,233.772 258.960,216.203 258.160 L 206.874 257.734 206.874 235.578 L 206.874 213.421 245.593 213.421 L 284.312 213.421 283.868 220.131 M368.576 215.880 C 368.576 239.988,357.287 274.832,341.693 298.854 C 334.667 309.678,335.974 309.326,329.238 302.208 C 319.356 291.767,309.518 284.527,295.650 277.494 C 291.291 275.283,287.620 273.384,287.492 273.275 C 287.364 273.165,288.169 269.301,289.282 264.688 C 292.823 250.003,295.908 227.757,295.908 216.916 L 295.908 213.421 332.242 213.421 L 368.576 213.421 368.576 215.880 M194.435 322.750 C 194.435 385.067,195.637 379.562,184.464 368.412 C 162.023 346.020,143.794 318.107,132.336 288.593 C 128.908 279.761,128.704 280.517,135.025 278.601 C 151.554 273.589,173.125 270.100,189.362 269.812 L 194.435 269.722 194.435 322.750 M228.805 271.060 C 245.124 272.841,271.686 278.961,271.686 280.940 C 271.686 282.545,265.873 296.454,261.191 306.056 C 249.784 329.444,234.755 350.584,216.858 368.412 C 205.669 379.559,206.874 385.082,206.874 322.651 L 206.874 269.525 214.894 269.971 C 219.304 270.216,225.565 270.706,228.805 271.060 M120.366 291.500 C 129.821 317.486,146.545 344.976,166.643 367.566 C 172.412 374.049,172.523 373.972,161.358 371.241 C 130.064 363.585,103.846 348.638,80.695 325.257 L 73.993 318.488 78.078 313.615 C 85.660 304.569,98.353 294.834,110.938 288.412 C 118.369 284.620,117.795 284.433,120.366 291.500 M291.069 288.744 C 303.660 295.351,315.616 304.543,322.905 313.221 C 327.592 318.802,327.745 317.895,320.949 324.870 C 299.202 347.194,271.361 363.216,240.927 370.923 C 228.706 374.018,228.829 374.070,234.211 368.085 C 254.185 345.871,271.464 317.555,280.943 291.500 C 283.526 284.401,283.042 284.532,291.069 288.744 " stroke="none" fill="#ffffff" fill-rule="evenodd"/><path id="path1" d="M0.000 206.874 L 0.000 413.748 200.000 413.748 L 400.000 413.748 400.000 206.874 L 400.000 0.000 200.000 0.000 L 0.000 0.000 0.000 206.874 M222.172 28.480 C 296.222 37.143,357.701 91.395,375.364 163.666 C 383.188 195.680,381.862 232.823,371.810 263.216 C 340.384 358.233,238.569 409.302,143.044 377.961 C 79.739 357.192,33.395 301.856,22.437 233.955 C 20.990 224.990,20.785 192.109,22.121 183.306 C 37.175 84.122,123.919 16.987,222.172 28.480 M187.561 43.454 C 173.769 55.975,156.474 78.659,145.144 99.089 C 138.498 111.073,128.778 133.579,129.805 134.606 C 133.234 138.035,174.677 145.297,190.998 145.329 L 194.435 145.336 194.435 92.308 C 194.435 31.341,195.168 36.549,187.561 43.454 M206.874 92.406 L 206.874 145.532 214.894 145.091 C 232.128 144.143,249.166 141.390,263.377 137.257 C 272.895 134.489,272.317 135.285,269.752 128.475 C 258.420 98.398,239.737 69.479,216.884 46.645 C 205.667 35.437,206.874 29.920,206.874 92.406 M160.065 44.134 C 129.111 52.061,103.741 66.569,81.350 89.149 L 73.992 96.568 78.077 101.442 C 88.165 113.477,118.494 134.097,118.494 128.920 C 118.494 127.414,124.127 113.766,128.640 104.337 C 138.516 83.701,150.876 65.213,166.643 47.492 C 172.538 40.866,172.634 40.916,160.065 44.134 M234.666 47.492 C 250.433 65.213,262.793 83.701,272.670 104.337 C 277.182 113.766,282.815 127.414,282.815 128.920 C 282.815 133.990,313.352 113.229,323.232 101.442 L 327.317 96.568 319.960 89.149 C 297.306 66.304,271.040 51.422,239.951 43.816 C 228.787 41.085,228.898 41.008,234.666 47.492 M61.111 113.748 C 44.703 138.405,35.039 166.348,33.035 194.926 L 32.565 201.637 68.885 201.637 L 105.205 201.637 105.640 193.617 C 106.440 178.863,109.590 158.710,113.079 146.029 L 114.239 141.813 106.710 138.090 C 92.964 131.293,81.629 123.015,71.860 112.638 C 68.791 109.378,66.171 106.710,66.037 106.711 C 65.903 106.711,63.686 109.878,61.111 113.748 M329.385 112.687 C 319.763 122.958,308.303 131.323,294.599 138.079 L 287.070 141.790 289.140 149.980 C 292.657 163.899,295.855 186.569,295.895 197.872 L 295.908 201.637 332.327 201.637 L 368.745 201.637 368.274 194.926 C 366.307 166.882,356.527 138.322,340.736 114.516 C 334.929 105.761,335.751 105.893,329.385 112.687 M124.770 149.510 C 121.146 162.031,117.254 187.400,117.198 198.854 L 117.185 201.637 155.810 201.637 L 194.435 201.637 194.435 179.378 L 194.435 157.119 190.216 157.119 C 174.199 157.119,147.451 152.962,131.703 148.025 L 125.740 146.155 124.770 149.510 M269.394 148.024 C 254.301 152.894,227.218 157.119,211.094 157.119 L 206.874 157.119 206.874 179.378 L 206.874 201.637 245.593 201.637 L 284.312 201.637 283.868 194.926 C 282.794 178.661,276.990 145.156,275.404 146.057 C 275.339 146.093,272.635 146.979,269.394 148.024 M33.035 220.131 C 35.084 249.346,46.827 282.142,63.207 304.393 L 66.181 308.432 72.015 302.267 C 81.955 291.764,91.766 284.540,105.659 277.494 C 110.018 275.283,113.689 273.384,113.817 273.275 C 113.945 273.165,113.148 269.301,112.045 264.688 C 108.455 249.668,106.456 236.217,105.666 221.768 L 105.210 213.421 68.887 213.421 L 32.565 213.421 33.035 220.131 M117.441 220.131 C 118.428 235.067,121.542 254.507,124.661 265.201 L 125.729 268.863 133.046 266.645 C 147.761 262.184,167.538 258.960,185.106 258.160 L 194.435 257.734 194.435 235.578 L 194.435 213.421 155.717 213.421 L 116.998 213.421 117.441 220.131 M206.874 235.578 L 206.874 257.734 216.203 258.160 C 233.772 258.960,253.548 262.184,268.263 266.645 L 275.580 268.863 276.648 265.201 C 279.768 254.507,282.882 235.067,283.868 220.131 L 284.312 213.421 245.593 213.421 L 206.874 213.421 206.874 235.578 M295.908 216.916 C 295.908 227.757,292.823 250.003,289.282 264.688 C 288.169 269.301,287.364 273.165,287.492 273.275 C 287.620 273.384,291.291 275.283,295.650 277.494 C 309.518 284.527,319.356 291.767,329.238 302.208 C 335.974 309.326,334.667 309.678,341.693 298.854 C 357.287 274.832,368.576 239.988,368.576 215.880 L 368.576 213.421 332.242 213.421 L 295.908 213.421 295.908 216.916 M178.069 270.447 C 160.169 272.016,129.624 278.620,129.624 280.921 C 129.624 282.221,135.065 295.614,138.848 303.625 C 150.145 327.548,165.814 349.803,184.464 368.412 C 195.637 379.562,194.435 385.067,194.435 322.750 L 194.435 269.722 189.362 269.812 C 186.571 269.861,181.489 270.147,178.069 270.447 M206.874 322.651 C 206.874 385.082,205.669 379.559,216.858 368.412 C 238.800 346.555,257.960 317.220,268.993 288.593 C 272.392 279.771,272.605 280.554,266.285 278.642 C 250.018 273.721,234.122 271.039,214.894 269.971 L 206.874 269.525 206.874 322.651 M110.938 288.412 C 98.353 294.834,85.660 304.569,78.078 313.615 L 73.993 318.488 80.695 325.257 C 103.846 348.638,130.064 363.585,161.358 371.241 C 172.523 373.972,172.412 374.049,166.643 367.566 C 146.545 344.976,129.821 317.486,120.366 291.500 C 117.795 284.433,118.369 284.620,110.938 288.412 M280.943 291.500 C 271.464 317.555,254.185 345.871,234.211 368.085 C 228.829 374.070,228.706 374.018,240.927 370.923 C 271.361 363.216,299.202 347.194,320.949 324.870 C 327.745 317.895,327.592 318.802,322.905 313.221 C 315.616 304.543,303.660 295.351,291.069 288.744 C 283.042 284.532,283.526 284.401,280.943 291.500 " stroke="none" fill="#0b2639" fill-rule="evenodd"/></g></g></svg>