<?xml version="1.0" encoding="iso-8859-1"?>
<!-- Generator: Adobe Illustrator 18.0.0, SVG Export Plug-In . SVG Version: 6.00 Build 0)  -->
<!DOCTYPE svg PUBLIC "-//W3C//DTD SVG 1.1//EN" "http://www.w3.org/Graphics/SVG/1.1/DTD/svg11.dtd">
<svg xmlns="http://www.w3.org/2000/svg" xmlns:xlink="http://www.w3.org/1999/xlink" version="1.1" id="Capa_1" x="0px" y="0px" viewBox="0 0 359.145 359.145" style="enable-background:new 0 0 359.145 359.145;" xml:space="preserve" width="512px" height="512px">
<g>
	<path d="M329.897,145.391L282.363,10.03C280.253,4.021,274.579,0,268.21,0s-12.043,4.021-14.152,10.03l-47.534,135.36   c-7.117,20.267-4.075,41.941,8.346,59.467c12.42,17.524,31.861,27.575,53.341,27.575s40.923-10.051,53.343-27.576   C333.973,187.332,337.014,165.657,329.897,145.391z M297.077,187.51c-6.722,9.483-17.242,14.923-28.866,14.923   c-11.623,0-22.144-5.438-28.865-14.922c-6.721-9.484-8.367-21.214-4.517-32.181l33.382-95.059l33.382,95.059   C305.443,166.298,303.797,178.026,297.077,187.51z" fill="#FFFFFF"/>
	<path d="M168.592,170.863c-2.109-6.009-7.784-10.03-14.152-10.03s-12.043,4.021-14.152,10.03l-39.521,112.545   c-6.102,17.375-3.388,36.718,7.26,51.742c10.648,15.024,27.999,23.994,46.414,23.994s35.766-8.97,46.414-23.994   c10.647-15.024,13.361-34.367,7.26-51.742L168.592,170.863z M176.377,317.804c-5.108,7.207-13.104,11.341-21.938,11.341   s-16.829-4.134-21.938-11.341c-5.107-7.207-6.358-16.121-3.432-24.456l25.369-72.242l25.369,72.242   C182.736,301.683,181.485,310.597,176.377,317.804z" fill="#FFFFFF"/>
	<path d="M108.712,157.256c8.581-12.107,10.769-27.695,5.852-41.697L85.462,32.688c-2.109-6.009-7.784-10.03-14.152-10.03   s-12.043,4.021-14.152,10.03l-29.102,82.871c-4.917,14.002-2.729,29.59,5.852,41.697c8.58,12.107,22.563,19.336,37.402,19.336   S100.132,169.363,108.712,157.256z M84.237,139.909c-3.01,4.247-7.722,6.683-12.927,6.683s-9.917-2.436-12.927-6.683   s-3.747-9.5-2.022-14.411L71.31,82.93l14.949,42.568C87.984,130.409,87.246,135.662,84.237,139.909z" fill="#FFFFFF"/>
</g>
<g>
</g>
<g>
</g>
<g>
</g>
<g>
</g>
<g>
</g>
<g>
</g>
<g>
</g>
<g>
</g>
<g>
</g>
<g>
</g>
<g>
</g>
<g>
</g>
<g>
</g>
<g>
</g>
<g>
</g>
</svg>
