<?xml version="1.0" encoding="utf-8"?>
<!-- Generator: Adobe Illustrator 18.1.1, SVG Export Plug-In . SVG Version: 6.00 Build 0)  -->
<svg version="1.1" id="Шар_1" xmlns="http://www.w3.org/2000/svg" xmlns:xlink="http://www.w3.org/1999/xlink" x="0px" y="0px"
	 viewBox="185.2 232.1 29.6 25" enable-background="new 185.2 232.1 29.6 25" xml:space="preserve">
<g>
	<g>
		<path fill="#EE4633" d="M209.7,233.3h-19.5c-2.2,0-3.9,1.2-3.9,2.8v7.4c0,0,11.6-3.2,27.2,0v-7.4
			C213.6,234.6,211.9,233.3,209.7,233.3z"/>
	</g>
</g>
<g>
	<g>
		<path fill="#414042" d="M185.2,244.9V236c0-2.2,2.2-3.9,5-3.9h19.5c2.8,0,5,1.7,5,3.9v8.8l-1.4-0.2c-4.5-0.9-9.1-1.4-13.7-1.4
			c-7.8,0-12.8,1.4-12.9,1.4L185.2,244.9z M199.6,240.9c4.3,0,8.6,0.4,12.9,1.1v-6c0-0.7-1.1-1.6-2.8-1.6h-19.5
			c-1.6,0-2.8,0.8-2.8,1.6v5.9C189.6,241.6,193.8,240.9,199.6,240.9z"/>
	</g>
</g>
<g>
	<g>
		<path fill="#42C0EE" d="M198.5,242.9c0,0.5-0.6,0.9-1.3,0.9h-6.8c-0.7,0-1.3-0.4-1.3-0.9v-4.6c0-0.5,0.6-0.9,1.3-0.9h6.8
			c0.7,0,1.3,0.4,1.3,0.9V242.9z"/>
	</g>
	<g>
		<path fill="#4E3E41" d="M197.2,244.3h-6.8c-1,0-1.8-0.6-1.8-1.4v-4.6c0-0.8,0.8-1.4,1.8-1.4h6.8c1,0,1.8,0.6,1.8,1.4v4.6
			C199,243.7,198.2,244.3,197.2,244.3z M190.4,237.7c-0.5,0-0.8,0.3-0.8,0.4v4.6c0,0.2,0.3,0.4,0.8,0.4h6.8c0.5,0,0.8-0.3,0.8-0.4
			v-4.6c0-0.2-0.3-0.4-0.8-0.4H190.4z"/>
	</g>
</g>
<g>
	<g>
		<path fill="#42C0EE" d="M211.2,242.9c0,0.5-0.6,0.9-1.3,0.9h-6.8c-0.7,0-1.3-0.4-1.3-0.9v-4.6c0-0.5,0.6-0.9,1.3-0.9h6.8
			c0.7,0,1.3,0.4,1.3,0.9V242.9z"/>
	</g>
	<g>
		<path fill="#4E3E41" d="M209.9,244.3h-6.8c-1,0-1.8-0.6-1.8-1.4v-4.6c0-0.8,0.8-1.4,1.8-1.4h6.8c1,0,1.8,0.6,1.8,1.4v4.6
			C211.8,243.7,210.9,244.3,209.9,244.3z M203.2,237.7c-0.5,0-0.8,0.3-0.8,0.4v4.6c0,0.2,0.3,0.4,0.8,0.4h6.8c0.5,0,0.8-0.3,0.8-0.4
			v-4.6c0-0.2-0.3-0.4-0.8-0.4H203.2z"/>
	</g>
</g>
<g>
	<g>
		<g>
			<path fill="#EE4633" d="M209.7,242.8h-19.5c-2.2,0-3.9,1.2-3.9,2.8v7.4h27.2v-7.4C213.6,244,211.9,242.8,209.7,242.8z"/>
		</g>
	</g>
	<g>
		<g>
			<path fill="#414042" d="M214.7,254h-29.5v-8.5c0-2.2,2.2-3.9,5-3.9h19.5c2.8,0,5,1.7,5,3.9V254z M187.5,251.8h24.9v-6.3
				c0-0.7-1.1-1.6-2.8-1.6h-19.5c-1.6,0-2.8,0.8-2.8,1.6v6.3H187.5z"/>
		</g>
	</g>
</g>
<rect x="185.2" y="253.5" fill="#414042" width="3.6" height="3.6"/>
<rect x="211.2" y="253.5" fill="#414042" width="3.6" height="3.6"/>
</svg>
