<?xml version="1.0" encoding="utf-8"?>
<!-- Generator: Adobe Illustrator 18.1.1, SVG Export Plug-In . SVG Version: 6.00 Build 0)  -->
<svg version="1.1" id="Шар_1" xmlns="http://www.w3.org/2000/svg" xmlns:xlink="http://www.w3.org/1999/xlink" x="0px" y="0px"
	 viewBox="180.3 239.8 39.4 20" enable-background="new 180.3 239.8 39.4 20" xml:space="preserve">
<g>
	<path fill="#E84640" d="M207.9,242h-5.5v14.1h5.4c0-2.1,1.7-3.9,3.8-3.9v-6.4C209.5,245.9,207.9,244.2,207.9,242z"/>
</g>
<g>
	<path fill="#E84735" d="M184.9,242c0,2.1-1.7,3.9-3.8,3.9v6.4c2.1,0,3.8,1.7,3.8,3.9h17.5V242H184.9z"/>
</g>
<g>
	<path fill="#414042" d="M208.6,257h-24.5v-0.8c0-1.7-1.4-3.1-3-3.1h-0.8v-8h0.8c1.7,0,3-1.4,3-3.1v-0.8h24.5v0.8
		c0,1.7,1.4,3.1,3,3.1h0.8v8h-0.8c-1.7,0-3,1.4-3,3.1L208.6,257L208.6,257z M185.6,255.3h21.5c0.3-1.9,1.9-3.5,3.8-3.8v-4.9
		c-1.9-0.3-3.4-1.9-3.8-3.8h-21.5c-0.3,1.9-1.9,3.5-3.8,3.8v4.9C183.8,251.9,185.3,253.4,185.6,255.3z"/>
</g>
<g>
	<g>
		<rect x="201.6" y="252.3" fill="#4E3E41" width="1.6" height="3.8"/>
	</g>
	<g>
		<g>
			<rect x="201.6" y="242" fill="#4E3E41" width="1.6" height="3.6"/>
		</g>
		<g>
			<rect x="201.6" y="247.2" fill="#4E3E41" width="1.6" height="3.5"/>
		</g>
	</g>
</g>
<g>
	<path fill="#FFFFFF" d="M213.1,240.7l-5.4,1l2.7,13.8l5.4-1c-0.4-2.1,0.9-4.1,3-4.5l-1.2-6.2C215.5,244.2,213.5,242.8,213.1,240.7z
		"/>
</g>
<g>
	<path fill="#43C0EF" d="M190.6,245c0.4,2.1-0.9,4.1-3,4.5l1.2,6.2c2.1-0.4,4.1,1,4.5,3.1l17.2-3.3l-2.7-13.8L190.6,245z"/>
</g>
<g>
	<path fill="#414042" d="M216.7,255.2l-24.1,4.6l-0.2-0.8c-0.3-1.7-1.9-2.8-3.6-2.4l-0.8,0.2l-1.5-7.8l0.8-0.2
		c1.7-0.3,2.7-1.9,2.4-3.6l-0.2-0.8l24.1-4.6l0.2,0.8c0.3,1.7,1.9,2.8,3.6,2.4l0.8-0.2l1.5,7.8l-0.8,0.2c-1.7,0.3-2.7,1.9-2.4,3.6
		L216.7,255.2z M193.8,258l21.1-4.1c0-2,1.1-3.7,3-4.5l-0.9-4.8c-1.9,0-3.7-1.2-4.4-3l-21.1,4.1c0,2-1.2,3.7-3,4.5l0.9,4.8
		C191.3,254.9,193.1,256.1,193.8,258z"/>
</g>
<g>
	<g>
		
			<rect x="208.1" y="252.9" transform="matrix(0.189 0.982 -0.982 0.189 419.4988 -0.4892)" fill="#414042" width="3.8" height="1.6"/>
	</g>
	<g>
		<g>
			
				<rect x="206.3" y="242.7" transform="matrix(-0.189 -0.982 0.982 -0.189 8.3038 493.8265)" fill="#414042" width="3.6" height="1.6"/>
		</g>
		<g>
			
				<rect x="207.3" y="247.8" transform="matrix(0.189 0.982 -0.982 0.189 413.6092 -3.7053)" fill="#414042" width="3.5" height="1.6"/>
		</g>
	</g>
</g>
</svg>
