<?xml version="1.0" encoding="utf-8"?>
<!-- Generator: Adobe Illustrator 18.1.1, SVG Export Plug-In . SVG Version: 6.00 Build 0)  -->
<svg version="1.1" id="Шар_1" xmlns="http://www.w3.org/2000/svg" xmlns:xlink="http://www.w3.org/1999/xlink" x="0px" y="0px"
	 viewBox="186.3 232.5 27.4 35" enable-background="new 186.3 232.5 27.4 35" xml:space="preserve">
<g>
	<path fill="#414042" d="M206.9,248.5l-3.5,2.9l-3.4-3l-3.6,2.9l-3.7-2.9l-4,3.5v13.1l4.1-2.4l3.7,2l3.5-2.4l3.3,2.4l3.7-2l4.3,2.4
		v-13.2L206.9,248.5z"/>
</g>
<g>
	<polygon fill="#FFFFFF" points="192,250.8 192,261.6 190,262.8 190,252.6 	"/>
</g>
<path fill="#414042" d="M201.8,246.6h-4.9c-1.4,0-2.9,0.1-3.7,1.1l3.1,2.5l3.6-2.9l3.4,2.7l2.4-1.9
	C205,246.8,203.5,246.6,201.8,246.6z"/>
<g>
	<polygon fill="#2980BA" points="195.8,252.6 195.8,262.8 193.4,261.5 193.4,250.7 	"/>
</g>
<g>
	<polygon fill="#FFFFFF" points="206.2,250.8 206.2,261.6 204,262.8 204,252.6 	"/>
</g>
<g>
	<polygon fill="#2980BA" points="210,252.6 210,262.8 207.6,261.4 207.6,250.7 	"/>
</g>
<g>
	<polygon fill="#FFFFFF" points="199.3,250.7 199.3,261.1 197.1,262.7 197.1,252.6 	"/>
</g>
<g>
	<polygon fill="#2980BA" points="202.7,252.6 202.7,262.6 200.7,261.2 200.7,250.8 	"/>
</g>
<g>
	<path fill="#EE4633" d="M199.3,233c-3,0-5.4,1.9-5.4,4.6l-3,1.5h17l-3.1-1.5C204.8,234.8,202.4,233,199.3,233z"/>
	<path fill="#414042" d="M209.8,239.4H189l4.5-2.2c0.2-2.7,2.6-4.7,5.9-4.7s5.7,2,5.9,4.7L209.8,239.4z M192.8,238.6h13.2l-1.6-0.8
		v-0.3c0-2.4-2.2-4.1-5-4.1c-2.9,0-5,1.8-5,4.1v0.3L192.8,238.6z"/>
</g>
<path fill="#414042" d="M204.7,240.3c0,3-2.4,5.3-5.4,5.3c-2.9,0-5.4-2.4-5.4-5.3"/>
<polygon fill="#414042" points="192.8,263.8 192.8,267.5 206.1,267.5 206.1,264.3 203.4,266 200,263.4 196.6,265.9 "/>
<ellipse fill="#414042" cx="189.6" cy="256.4" rx="1.6" ry="1.7"/>
<ellipse fill="#414042" cx="210.5" cy="256.4" rx="1.8" ry="1.7"/>
</svg>
