<?xml version="1.0" encoding="utf-8"?>
<!-- Generator: Adobe Illustrator 18.1.1, SVG Export Plug-In . SVG Version: 6.00 Build 0)  -->
<svg version="1.1" id="Шар_1" xmlns="http://www.w3.org/2000/svg" xmlns:xlink="http://www.w3.org/1999/xlink" x="0px" y="0px"
	 viewBox="179.6 236.7 38.9 28" enable-background="new 179.6 236.7 38.9 28" xml:space="preserve">
<g>
	<path fill="#FFFFFF" d="M207.7,261.1l-26.9,0.6c0,0-3.6-16.9,15-23.6L207.7,261.1z"/>
</g>
<g>
	<path fill="#414042" d="M180,262.8l-0.2-0.9c0-0.2-0.9-4.5,0.5-9.8c1.2-4.8,5.2-11.4,15.3-15l0.9-0.3l13,25.5L180,262.8z
		 M195.4,239.5c-6.9,2.8-11.2,7.2-13,13.3c-0.9,3.4-0.8,6.4-0.6,7.8l24.1-0.5L195.4,239.5z"/>
</g>
<g>
	<circle fill="#43C0EF" cx="186.6" cy="256.4" r="1.9"/>
	<path fill="#414042" d="M186.6,258.9c-0.5,0-0.9-0.2-1.2-0.5c-1.2-0.8-1.6-2.3-0.8-3.4c0.5-0.8,1.2-1.2,2-1.2
		c0.5,0,0.9,0.2,1.2,0.5c1.2,0.8,1.6,2.3,0.8,3.4C188.2,258.4,187.4,258.9,186.6,258.9z M186.6,255c-0.5,0-0.9,0.3-1.2,0.6
		c-0.5,0.6-0.2,1.4,0.5,1.9c0.2,0.2,0.5,0.2,0.8,0.2c0.5,0,0.9-0.3,1.2-0.6c0.5-0.6,0.2-1.4-0.5-1.9
		C187.1,255.1,186.8,255,186.6,255z"/>
</g>
<g>
	<circle fill="#43C0EF" cx="187.7" cy="249" r="2.5"/>
	<path fill="#414042" d="M187.7,252.2c-0.6,0-1.1-0.2-1.6-0.5c-1.4-0.9-1.9-2.8-0.9-4.2c0.5-0.9,1.6-1.4,2.5-1.4
		c0.6,0,1.1,0.2,1.6,0.5c1.4,0.9,1.9,2.8,0.9,4.2C189.7,251.5,188.8,252.2,187.7,252.2z M187.7,247.2c-0.6,0-1.2,0.3-1.6,0.9
		c-0.6,0.9-0.3,2,0.6,2.7c0.3,0.2,0.6,0.3,1.1,0.3c0.6,0,1.2-0.3,1.6-0.9c0.6-0.9,0.3-2-0.6-2.7
		C188.5,247.3,188.2,247.2,187.7,247.2z"/>
</g>
<g>
	<circle fill="#43C0EF" cx="196.3" cy="254.8" r="3.4"/>
	<path fill="#414042" d="M196.3,258.9c-0.8,0-1.6-0.2-2.2-0.6c-1.9-1.2-2.3-3.6-1.2-5.5c0.8-1.2,2-1.9,3.4-1.9
		c0.8,0,1.6,0.2,2.2,0.6c0.9,0.6,1.6,1.4,1.7,2.5c0.3,1.1,0,2-0.5,3C198.9,258.1,197.7,258.9,196.3,258.9z M196.3,252
		c-0.9,0-1.9,0.5-2.3,1.2c-0.8,1.2-0.5,3.1,0.9,3.9c0.5,0.3,0.9,0.5,1.6,0.5c0.9,0,1.9-0.5,2.3-1.2c0.5-0.6,0.5-1.4,0.5-2.2
		c0-0.8-0.6-1.4-1.2-1.9C197.4,252.2,196.8,252,196.3,252z"/>
</g>
<g>
	<circle fill="#43C0EF" cx="193.6" cy="244.4" r="1.9"/>
	<path fill="#414042" d="M193.6,246.7c-0.5,0-0.9-0.2-1.2-0.5c-0.5-0.3-0.9-0.9-1.1-1.6c-0.2-0.6,0-1.2,0.3-1.9
		c0.5-0.8,1.2-1.2,2-1.2c0.5,0,0.9,0.2,1.2,0.5c1.2,0.8,1.6,2.3,0.8,3.4C195.2,246.4,194.4,246.7,193.6,246.7z M193.6,243
		c-0.5,0-0.9,0.3-1.2,0.6c-0.2,0.3-0.3,0.6-0.2,1.1c0.2,0.3,0.3,0.6,0.6,0.8c0.2,0.2,0.5,0.2,0.8,0.2c0.5,0,0.9-0.3,1.2-0.6
		c0.5-0.6,0.2-1.4-0.5-1.9C194.1,243,193.8,243,193.6,243z"/>
</g>
<g>
	
		<rect x="194.6" y="249.1" transform="matrix(0.9452 0.3265 -0.3265 0.9452 93.654 -53.5469)" fill="#FFFFFF" width="23.4" height="6.2"/>
</g>
<g>
	<path fill="#EE4633" d="M204.7,263.1c5.5,1.9,10.9,0.3,12.3-3.6l-19.7-6.9C196,256.4,199.3,261.2,204.7,263.1z"/>
</g>
<g>
	<path fill="#414042" d="M204.4,263.9c-5.9-2-9.4-7.2-8-11.6l0.3-0.8l21.4,7.5l-0.3,0.8C216.4,264,210.4,265.9,204.4,263.9z
		 M198,253.7c-0.5,3.3,2.5,6.9,7,8.6c4.5,1.6,9.2,0.5,10.8-2.3L198,253.7z"/>
</g>
<g>
	<path fill="#EE4633" d="M209.1,242c-5.5-1.9-10.9-0.3-12.3,3.6l19.7,6.9C217.8,248.7,214.6,243.9,209.1,242z"/>
</g>
<g>
	<path fill="#414042" d="M217.1,253.7l-21.4-7.5l0.3-0.8c1.6-4.4,7.5-6.2,13.4-4.2s9.5,7.3,8,11.6L217.1,253.7z M198,245.1l17.8,6.2
		c0.5-3.3-2.5-6.9-7-8.6C204.3,241.1,199.7,242.3,198,245.1z"/>
</g>
<g>
	
		<rect x="195.1" y="251" transform="matrix(0.9447 0.3279 -0.3279 0.9447 94.212 -53.8835)" fill="#414042" width="23.6" height="2.8"/>
</g>
<g>
	<g>
		<path fill="#FFFFFF" d="M196.1,247.8c0.9,0.5,0.8,1.9,1.2,2.7c0.5,0.8,1.9,1.2,2.8,1.1c1.4-0.3,2.2-1.2,3.7-0.9
			c1.4,0.5,1.6,1.7,2.2,2.8c0.5,0.8,1.4,1.2,2.3,1.1c0.5-0.2,0.9-0.3,1.2-0.6c0.8-0.5,1.4-0.5,2.3-0.3c0.8,0.2,1.2,0.8,1.7,1.4
			c0.5,0.6,0.5,1.2,0.9,1.9c0.6,1.1,2.2,0.5,3,0.3c0.5,0,0.5-0.6,0-0.6c-0.6,0-1.2,0.3-1.9,0.3c-0.9,0-0.9-0.9-1.2-1.6
			c-0.6-1.1-1.6-2-2.7-2.3c-1.1-0.3-2,0.2-2.8,0.6c-0.6,0.5-1.2,0.5-2,0c-0.5-0.3-0.8-1.1-0.9-1.6c-0.5-0.9-1.1-1.6-2-1.9
			c-1.2-0.5-2,0.2-3.1,0.6c-1.2,0.6-3,0.3-3.4-1.2c-0.3-0.9-0.5-1.7-1.2-2C196,247,195.8,247.6,196.1,247.8L196.1,247.8z"/>
	</g>
</g>
</svg>
