<?xml version="1.0" encoding="utf-8"?>
<!-- Generator: Adobe Illustrator 18.1.1, SVG Export Plug-In . SVG Version: 6.00 Build 0)  -->
<svg version="1.1" id="Layer_1" xmlns="http://www.w3.org/2000/svg" xmlns:xlink="http://www.w3.org/1999/xlink" x="0px" y="0px"
	 viewBox="100.9 62 15.4 13" enable-background="new 100.9 62 15.4 13" xml:space="preserve">
<g>
	<path fill="#00b7f3" d="M108.4,69c1.2-0.6,2.1-1.8,2.1-3.3c0-2-1.6-3.7-3.7-3.7s-3.7,1.6-3.7,3.7c0,1.5,0.9,2.7,2.1,3.3
		c-2.5,0.7-4.3,3-4.3,5.7c0,0.2,0.2,0.4,0.4,0.4s0.4-0.2,0.4-0.4c0-2.9,2.3-5.2,5.2-5.2s5.2,2.3,5.2,5.2c0,0.2,0.2,0.4,0.4,0.4
		s0.4-0.2,0.4-0.4C112.7,71.9,110.9,69.6,108.4,69z M103.8,65.7c0-1.6,1.3-3,3-3s3,1.3,3,3s-1.3,3-3,3
		C105.2,68.6,103.8,67.3,103.8,65.7z"/>
	<path fill="#00b7f3" d="M115.9,68.4H114v-1.9c0-0.2-0.2-0.4-0.4-0.4c-0.2,0-0.4,0.2-0.4,0.4v1.9h-1.9c-0.2,0-0.4,0.2-0.4,0.4
		s0.2,0.4,0.4,0.4h1.9V71c0,0.2,0.2,0.4,0.4,0.4c0.2,0,0.4-0.2,0.4-0.4v-1.9h1.9c0.2,0,0.4-0.2,0.4-0.4S116.1,68.4,115.9,68.4z"/>
</g>
</svg>
