<?xml version="1.0" encoding="utf-8"?>
<!-- Generator: Adobe Illustrator 18.1.1, SVG Export Plug-In . SVG Version: 6.00 Build 0)  -->
<svg version="1.1" id="Шар_1" xmlns="http://www.w3.org/2000/svg" xmlns:xlink="http://www.w3.org/1999/xlink" x="0px" y="0px"
	 viewBox="6.2 -0.4 50.3 47.1" enable-background="new 6.2 -0.4 50.3 47.1" xml:space="preserve">
<g>
	<path fill="#FFFFFF" d="M8.2,29c0-10.2,3.7-2.3,7.4-8.8c6.2-9.6,12-13.8,21.1,1.7c4.6,8.2,15.1-7,17.6,3.8c0.5,1.8,0,4.9-1.2,6.3
		c-2.9,3.8-6.7-2.2-8.4,5.1c-2.1,8.3-11.2,8.4-13.2-1.7C28.4,26,8.2,42.4,8.2,29z"/>
	<path fill="#414042" d="M25.3,10.9l0.1,3.7c-1.5,0-3,1-4.8,2.9L18,15C20.3,12.3,22.8,11,25.3,10.9z M28.4,11.5
		c2.1,0.9,4.1,2.6,6.2,5.2L31.7,19c-1.7-2.2-3.3-3.5-4.8-4.1L28.4,11.5z M16.2,17.1l2.9,2.2c-0.6,0.9-1.3,1.8-2.1,3
		c-0.9,1.5-2,2.6-3,3.2l-1.6-3.3c0.5-0.2,1.1-0.9,1.6-1.8C14.7,19.2,15.5,18.1,16.2,17.1z M36.2,18.8c0.7,1,1.3,2.1,2.1,3.2
		c0.5,0.9,1,1.3,1.6,1.6l-1.1,3.5c-1.5-0.5-2.8-1.6-3.7-3.2c-0.6-1.1-1.2-2.1-2-2.9L36.2,18.8z M51.2,21c2.4,0.4,4,2.2,4.8,5.4
		c0.1,0.6,0.2,1.2,0.2,2v0.2l-3.7-0.1v-0.2c0-0.5,0-0.9-0.1-1.2c-0.6-2.4-1.3-2.6-1.7-2.6L51.2,21z M48.2,21.3l1,3.5
		c-0.9,0.2-1.7,0.6-2.6,1c-1.5,0.6-2.9,1.2-4.5,1.5l-0.6-3.7c1.1-0.2,2.4-0.7,3.8-1.2C46.1,22,47.1,21.6,48.2,21.3z M10.7,22.4
		l0.1,3.7c-0.1,0-0.4,0-0.5,0c-0.1,0.2-0.5,1.1-0.5,4c0,1.2,0.2,2.2,0.7,2.9l-3,2.1c-0.9-1.3-1.3-2.9-1.3-5
		C6.3,25.3,6.9,22.7,10.7,22.4z M52.3,30.6l3.5,1c-0.4,1.1-0.7,2.1-1.3,2.8c-1.1,1.3-2.4,2.1-4.1,2.1c-0.5,0-1,0-1.5-0.1h-0.5
		l0.4-3.7c0.2,0,0.4,0,0.6,0.1c0.4,0,0.6,0.1,1,0.1c0.5,0,0.9-0.1,1.3-0.7C51.8,31.7,52.1,31.2,52.3,30.6z M27.4,33.3
		c0.1,0,0.2,0,0.5,0L27.8,37c-0.1,0-0.2,0-0.4,0c-1.6,0-3.4,0.2-5.5,0.6l-1.1,0.1L20.3,34l1.1-0.1C23.5,33.5,25.6,33.3,27.4,33.3
		L27.4,33.3z M45.1,33.5l2.3,2.8c-0.1,0.1-0.6,0.6-1.1,2.4c-0.4,1.3-0.9,2.7-1.6,3.8l-3-2c0.5-0.7,0.9-1.7,1.1-2.7
		C43.3,35.7,44,34.4,45.1,33.5z M31,33.9c1.5,0.6,2.3,1.8,2.6,3.3c0.2,1.5,0.7,2.7,1.3,3.7l-3,2c-0.9-1.3-1.5-3-1.8-5
		c-0.1-0.4-0.2-0.6-0.5-0.7L31,33.9z M11.7,33.9c1.2,0.6,3.2,0.7,6.2,0.4l0.4,3.7c-1.2,0.1-2.3,0.2-3.3,0.2c-2.1,0-3.7-0.4-5-1
		L11.7,33.9z M40.5,42l2.4,2.8c-2.7,2.3-6.3,2.4-9,0.5l2.2-2.9C37.4,43.3,39.1,43.2,40.5,42z"/>
</g>
<g id="miu">
	<g id="Artboard-1" transform="translate(-899.000000, -227.000000)">
		<g id="slice" transform="translate(215.000000, 119.000000)">
		</g>
		<g>
			<path fill="#E94735" d="M955.1,229.7l-3.9-2.9c0,0-0.7-0.6-1.3,0.2l-1.7,2.3l5.4,4l1.7-2.3C955.9,230.3,955.1,229.7,955.1,229.7z
				"/>
			
				<rect x="942.1" y="230.5" transform="matrix(0.798 0.6027 -0.6027 0.798 334.5988 -521.7108)" fill="#E94735" width="6.8" height="15.5"/>
			<polygon fill="#414042" points="937.5,249.1 943.1,247.3 937.6,243.2 			"/>
		</g>
	</g>
</g>
</svg>
