<?xml version="1.0"?>
<svg width="1000" height="1000" xmlns="http://www.w3.org/2000/svg" xmlns:svg="http://www.w3.org/2000/svg" xmlns:xlink="http://www.w3.org/1999/xlink">
 <g>
  <title>Layer 1</title>
  <g id="svg_1" transform="matrix(10.110557663572976,0,0,-10.110557663572976,-4148.8239475418995,2830.61146588667) ">
   <defs transform="translate(0,-5.684341886080802e-14) translate(0,-5.684341886080802e-14) translate(-5.684341886080802e-14,0) ">
    <path d="m410.399,157.68l101.691,0l0,122.233l-101.691,0l0,-122.233z" id="a"/>
   </defs>
   <clipPath transform="translate(0,-5.684341886080802e-14) translate(0,-5.684341886080802e-14) translate(-5.684341886080802e-14,0) " id="b">
    <use id="svg_2" xlink:href="#a"/>
   </clipPath>
   <g id="svg_3" clip-path="url(#b)">
    <path id="svg_4" fill="#8cc63f" d="m476.824,206.584c0,1.03 0.839,1.789 1.828,1.789c0.979,0 1.814,-0.76 1.814,-1.79c0,-1.043 -0.835,-1.804 -1.814,-1.804c-0.989,0 -1.828,0.76 -1.828,1.805m9.701,34.14c-0.013,-1.668 -1.666,-2.925 -3.612,-2.93c-1.953,0.005 -3.604,1.262 -3.618,2.93l0,2.115c0.011,1.682 1.665,2.93 3.618,2.934c1.946,-0.003 3.599,-1.252 3.612,-2.934l0,-2.115zm12.261,-9.715s-1.252,1.287 -2.46,2.394c1.208,2.25 1.761,5.052 1.761,8.38c-0.048,9.357 -4.135,14.485 -15.178,14.53c-11.042,-0.045 -15.13,-5.173 -15.179,-14.53c0.049,-9.35 4.138,-14.538 15.179,-14.584c3.303,-0.014 5.99,0.488 8.137,1.419a69.788,69.788 0 0 1 2.632,-2.72c1.117,-1.114 3.173,-0.884 4.581,0.533c1.415,1.41 1.644,3.464 0.527,4.578m-27.29,-24.72a3.017,3.017 0 0 0 -1.141,2.386l-0.007,14.292c0,8.876 -4.067,14.235 -14.53,13.916c-4.75,-0.145 -9.147,-3.342 -9.147,-3.342c-0.536,-0.327 -0.973,0 -0.973,0s-4.393,3.197 -9.143,3.342c-10.467,0.319 -14.529,-5.04 -14.529,-13.916l-0.006,-15.411c0,-1.507 0.432,-2.777 2.229,-2.777l10.61,0c0.404,0 0.731,0.329 0.731,0.733c0,0.453 -0.386,0.637 -0.567,0.778a3.05,3.05 0 0 0 -1.139,2.4l-0.003,14.054c0.024,1.499 1.627,2.61 3.33,2.619c1.697,-0.01 3.303,-1.12 3.33,-2.62l-0.022,-15.187c0,-1.507 0.435,-2.777 2.234,-2.777l10.068,0c0.405,0 0.732,0.329 0.732,0.733c0,0.453 -0.384,0.637 -0.567,0.778a3.048,3.048 0 0 0 -1.14,2.4l-0.009,14.075c0.025,1.499 1.629,2.589 3.327,2.598c1.701,-0.01 3.299,-1.101 3.329,-2.598l0,-15.21c0,-1.506 0.431,-2.776 2.231,-2.776l10.606,0c0.407,0 0.733,0.329 0.733,0.733c0,0.453 -0.385,0.637 -0.567,0.778m-47.615,73.623l71.894,0c7.444,0 13.481,-6.036 13.481,-13.482l0,-71.871c0,-7.448 -6.037,-13.481 -13.481,-13.481l-71.894,0c-7.447,0 -13.482,6.033 -13.482,13.48l0,71.872c0,7.446 6.035,13.482 13.482,13.482"/>
    <path id="svg_5" fill="#8cc63f" d="m478.27,205.54l-0.314,0l0,2.074l0.788,0c0.493,0 0.733,-0.176 0.733,-0.588c0,-0.37 -0.23,-0.535 -0.535,-0.57l0.59,-0.916l-0.356,0l-0.544,0.9l-0.363,0l0,-0.9l0.001,0zm0.38,-0.458c0.812,0 1.455,0.633 1.455,1.502c0,0.854 -0.643,1.493 -1.455,1.493c-0.82,0 -1.466,-0.639 -1.466,-1.493c0,-0.869 0.646,-1.502 1.466,-1.502"/>
    <path id="svg_6" fill="#8cc63f" d="m478.647,206.708c0.267,0 0.503,0.016 0.503,0.336c0,0.258 -0.231,0.302 -0.451,0.302l-0.43,0l0,-0.638l0.378,0z"/>
   </g>
  </g>
 </g>
</svg>