<?xml version="1.0" encoding="iso-8859-1"?>
<!-- Generator: Adobe Illustrator 19.0.0, SVG Export Plug-In . SVG Version: 6.00 Build 0)  -->
<svg xmlns="http://www.w3.org/2000/svg" xmlns:xlink="http://www.w3.org/1999/xlink" version="1.1" id="Capa_1" x="0px" y="0px" viewBox="0 0 68.634 68.634" style="enable-background:new 0 0 68.634 68.634;" xml:space="preserve" width="512px" height="512px">
<g>
	<path d="M34.823,0.016C34.722,0.006,34.62,0,34.516,0l-0.209,0.003L34.118,0   c-0.103,0-0.205,0.005-0.305,0.016C18.904,0.392,6.817,12.756,6.817,27.699c0,19.205,21.366,36.936,25.648,40.295   c0.543,0.427,1.198,0.64,1.852,0.64s1.308-0.213,1.852-0.64c4.283-3.359,25.648-21.09,25.648-40.295   C61.817,12.756,49.733,0.392,34.823,0.016z M34.317,61.758c-5.753-4.867-21.5-19.52-21.5-34.059   c0-11.773,9.577-21.503,21.349-21.69c0.048,0,0.095-0.002,0.143-0.005h0.009c0.002,0,0.006,0,0.01,0   c0.047,0.003,0.094,0.005,0.142,0.005c11.771,0.187,21.349,9.917,21.349,21.69C55.817,42.238,40.07,56.891,34.317,61.758z" fill="#414042"/>
	<path d="M34.517,13.895c-7.004,0-12.682,5.678-12.682,12.683c0,7.003,5.678,12.681,12.682,12.681   s12.682-5.678,12.682-12.681C47.198,19.572,41.521,13.895,34.517,13.895z M34.517,33.258c-3.684,0-6.682-2.997-6.682-6.681   c0-3.685,2.998-6.683,6.682-6.683c3.685,0,6.682,2.998,6.682,6.683C41.198,30.261,38.201,33.258,34.517,33.258z" fill="#414042"/>
</g>
<g>
</g>
<g>
</g>
<g>
</g>
<g>
</g>
<g>
</g>
<g>
</g>
<g>
</g>
<g>
</g>
<g>
</g>
<g>
</g>
<g>
</g>
<g>
</g>
<g>
</g>
<g>
</g>
<g>
</g>
</svg>
