<?xml version="1.0" encoding="UTF-8" standalone="no"?>
<!-- Generator: Adobe Illustrator 19.1.0, SVG Export Plug-In . SVG Version: 6.00 Build 0)  -->

<svg
   xmlns:dc="http://purl.org/dc/elements/1.1/"
   xmlns:cc="http://creativecommons.org/ns#"
   xmlns:rdf="http://www.w3.org/1999/02/22-rdf-syntax-ns#"
   xmlns:svg="http://www.w3.org/2000/svg"
   xmlns="http://www.w3.org/2000/svg"
   xmlns:sodipodi="http://sodipodi.sourceforge.net/DTD/sodipodi-0.dtd"
   xmlns:inkscape="http://www.inkscape.org/namespaces/inkscape"
   version="1.1"
   id="Capa_1"
   x="0px"
   y="0px"
   viewBox="0 0 35.413 35.413"
   style="enable-background:new 0 0 35.413 35.413;"
   xml:space="preserve"
   width="512px"
   height="512px"
   inkscape:version="0.91 r13725"
   sodipodi:docname="new-cancel-red.svg"><metadata
     id="metadata5298"><rdf:RDF><cc:Work
         rdf:about=""><dc:format>image/svg+xml</dc:format><dc:type
           rdf:resource="http://purl.org/dc/dcmitype/StillImage" /><dc:title></dc:title></cc:Work></rdf:RDF></metadata><defs
     id="defs5296" /><sodipodi:namedview
     pagecolor="#ffffff"
     bordercolor="#666666"
     borderopacity="1"
     objecttolerance="10"
     gridtolerance="10"
     guidetolerance="10"
     inkscape:pageopacity="0"
     inkscape:pageshadow="2"
     inkscape:window-width="1855"
     inkscape:window-height="1056"
     id="namedview5294"
     showgrid="false"
     inkscape:zoom="0.921875"
     inkscape:cx="215.25366"
     inkscape:cy="157.55599"
     inkscape:window-x="65"
     inkscape:window-y="24"
     inkscape:window-maximized="1"
     inkscape:current-layer="Capa_1" /><g
     id="g5258"
     style="stroke:none;stroke-opacity:1;stroke-width:0;stroke-miterlimit:4;stroke-dasharray:none;fill:#ee4633;fill-opacity:1"><g
       id="g5260"
       style="stroke:none;stroke-opacity:1;stroke-width:0;stroke-miterlimit:4;stroke-dasharray:none;fill:#ee4633;fill-opacity:1"><path
         d="M20.535,17.294L34.002,3.827c0.781-0.781,0.781-2.047,0-2.828c-0.78-0.781-2.048-0.781-2.828,0L17.707,14.466L4.242,0.999    c-0.78-0.781-2.047-0.781-2.828,0s-0.781,2.047,0,2.828l13.465,13.467L0.586,31.587c-0.781,0.781-0.781,2.047,0,2.828    c0.39,0.391,0.902,0.586,1.414,0.586s1.024-0.195,1.414-0.586l14.293-14.293L32,34.415c0.391,0.391,0.902,0.586,1.414,0.586    s1.023-0.195,1.414-0.586c0.781-0.781,0.781-2.047,0-2.828L20.535,17.294z"
         fill="#FFFFFF"
         id="path5262"
         style="stroke:none;stroke-opacity:1;stroke-width:0;stroke-miterlimit:4;stroke-dasharray:none;fill:#ee4633;fill-opacity:1" /></g></g><g
     id="g5264" /><g
     id="g5266" /><g
     id="g5268" /><g
     id="g5270" /><g
     id="g5272" /><g
     id="g5274" /><g
     id="g5276" /><g
     id="g5278" /><g
     id="g5280" /><g
     id="g5282" /><g
     id="g5284" /><g
     id="g5286" /><g
     id="g5288" /><g
     id="g5290" /><g
     id="g5292" /></svg>