<svg width="59" height="59" xmlns="http://www.w3.org/2000/svg">

 <g>
  <title>background</title>
  <rect fill="none" id="canvas_background" height="402" width="582" y="-1" x="-1"/>
 </g>
 <g>
  <title>Layer 1</title>
  <g id="svg_1">
   <g id="svg_2">
    <g id="svg_3">
     <path id="svg_4" fill="#00cfff" d="m29.5,17c-4.688,0 -8.5,-3.813 -8.5,-8.5s3.813,-8.5 8.5,-8.5c4.688,0 8.5,3.813 8.5,8.5s-3.812,8.5 -8.5,8.5zm0,-13c-2.481,0 -4.5,2.019 -4.5,4.5s2.019,4.5 4.5,4.5c2.48,0 4.5,-2.019 4.5,-4.5s-2.02,-4.5 -4.5,-4.5z"/>
    </g>
    <g id="svg_5">
     <path id="svg_6" fill="#00cfff" d="m29.5,38c-4.688,0 -8.5,-3.812 -8.5,-8.5c0,-4.687 3.813,-8.5 8.5,-8.5c4.688,0 8.5,3.813 8.5,8.5c0,4.688 -3.812,8.5 -8.5,8.5zm0,-13c-2.481,0 -4.5,2.019 -4.5,4.5c0,2.48 2.019,4.5 4.5,4.5c2.48,0 4.5,-2.02 4.5,-4.5c0,-2.481 -2.02,-4.5 -4.5,-4.5z"/>
    </g>
    <g id="svg_7">
     <path id="svg_8" fill="#00cfff" d="m29.5,59c-4.688,0 -8.5,-3.812 -8.5,-8.5s3.813,-8.5 8.5,-8.5c4.688,0 8.5,3.812 8.5,8.5s-3.812,8.5 -8.5,8.5zm0,-13c-2.481,0 -4.5,2.02 -4.5,4.5s2.019,4.5 4.5,4.5c2.48,0 4.5,-2.02 4.5,-4.5s-2.02,-4.5 -4.5,-4.5z"/>
    </g>
   </g>
  </g>
  <g id="svg_9"/>
  <g id="svg_10"/>
  <g id="svg_11"/>
  <g id="svg_12"/>
  <g id="svg_13"/>
  <g id="svg_14"/>
  <g id="svg_15"/>
  <g id="svg_16"/>
  <g id="svg_17"/>
  <g id="svg_18"/>
  <g id="svg_19"/>
  <g id="svg_20"/>
  <g id="svg_21"/>
  <g id="svg_22"/>
  <g id="svg_23"/>
 </g>
</svg>