<?xml version="1.0" encoding="utf-8"?>
<!-- Generator: Adobe Illustrator 18.1.1, SVG Export Plug-In . SVG Version: 6.00 Build 0)  -->
<svg version="1.1" id="Шар_1" xmlns="http://www.w3.org/2000/svg" xmlns:xlink="http://www.w3.org/1999/xlink" x="0px" y="0px"
	 viewBox="6 6.2 38.1 38" enable-background="new 6 6.2 38.1 38" xml:space="preserve">
<g>
	<circle fill="#FFFFFF" cx="25" cy="25.2" r="17.6"/>
	<path fill="#414042" d="M23,44.2c-2.2-0.2-4.2-0.8-6.1-1.8l1.3-2.7c1.7,0.8,3.3,1.3,5.2,1.5L23,44.2z M27.2,44.2l-0.3-2.9
		c1.8-0.2,3.5-0.7,5.1-1.5l1.3,2.7C31.3,43.3,29.4,43.9,27.2,44.2z M13.3,40.2c-1.7-1.3-3.1-2.9-4.2-4.7l2.5-1.6
		c1,1.5,2.2,2.8,3.6,4L13.3,40.2z M36.9,40.1l-1.9-2.3c1.4-1.2,2.7-2.5,3.5-4l2.5,1.6C40,37.1,38.5,38.8,36.9,40.1z M7.1,31.7
		c-0.7-2-1.1-4.1-1.1-6.3h2.9c0,1.8,0.3,3.6,1,5.3L7.1,31.7z M42.9,31.5l-2.8-1c0.6-1.7,0.9-3.4,0.9-5.3c0-0.7,0-1.4-0.1-2.2
		l2.9-0.4c0.1,0.8,0.2,1.7,0.2,2.5C44,27.4,43.6,29.5,42.9,31.5z M9.2,21.8l-2.8-0.6c0.5-2.1,1.3-4,2.4-5.9l2.6,1.6
		C10.3,18.3,9.6,20,9.2,21.8z M40.1,19.6c-0.6-1.7-1.6-3.2-2.7-4.6l2.3-1.9c1.4,1.7,2.5,3.5,3.1,5.5L40.1,19.6z M13.5,14L11.4,12
		c1.5-1.6,3.2-2.8,5.1-3.7l1.3,2.7C16.2,11.7,14.7,12.7,13.5,14z M34.8,12.5c-1.5-1.1-3-2-4.7-2.6L31,7.1c2.1,0.7,3.9,1.7,5.6,2.9
		L34.8,12.5z M21.2,9.6l-0.7-2.8c2.1-0.5,4.2-0.7,6.4-0.5l-0.3,2.9C24.8,9,22.9,9.2,21.2,9.6z"/>
</g>
<g>
	<path fill="#414042" d="M25.1,30.1c-2.7,0-4.9-2.2-4.9-4.9s2.2-4.9,4.9-4.9s4.9,2.2,4.9,4.9S27.8,30.1,25.1,30.1z"/>
</g>
<g>
	<path fill="#47BEEE" d="M29.2,18.4L26,25c-0.1,0.4-0.6,0.6-1,0.6c-0.4,0-0.8-0.2-1-0.6L21,18.4c-0.2-0.5-0.2-1-0.2-1.6
		c0-2.4,1.9-4.3,4.3-4.3s4.3,1.9,4.3,4.3C29.4,17.5,29.4,17.9,29.2,18.4z M25.1,14.7c-1.2,0-2.2,1-2.2,2.2s1,2.2,2.2,2.2
		c1.2,0,2.2-1,2.2-2.2S26.3,14.7,25.1,14.7z"/>
</g>
</svg>
