<?xml version="1.0" encoding="utf-8"?>
<!-- Generator: Adobe Illustrator 18.1.1, SVG Export Plug-In . SVG Version: 6.00 Build 0)  -->
<svg version="1.1" id="Шар_1" xmlns="http://www.w3.org/2000/svg" xmlns:xlink="http://www.w3.org/1999/xlink" x="0px" y="0px"
	 viewBox="0 0 50 50" enable-background="new 0 0 50 50" xml:space="preserve">
<g>
	<path fill="#414142" d="M18.8,43.1c-2.8-0.1-5-0.9-6.5-2.3l2.1-2.2c0.9,0.9,2.5,1.4,4.6,1.5L18.8,43.1z M10.5,37.4
		c-0.1-0.3-0.1-0.7-0.1-1.1c0-2.2,1.1-4.4,2.9-5.7l1.7,2.5c-1,0.7-1.6,2-1.6,3.2c0,0.2,0,0.4,0,0.6L10.5,37.4z M17.3,32.2l-0.6-2.9
		c1.6-0.3,3.5-0.6,6.2-0.7l0.1,3C20.5,31.8,18.6,31.9,17.3,32.2z M25.9,31.6l-0.1-3c1,0,2,0,3,0c1,0,2,0,3,0l0.1,3c-1,0-2,0-3,0
		C27.9,31.5,26.9,31.5,25.9,31.6z M35,31.4l-0.1-3c2.4-0.1,4.3-0.2,5.8-0.5l0.4,3C39.4,31.1,37.5,31.3,35,31.4z M44.3,30.2l-0.8-2.9
		c2-0.6,3.2-1.4,3.5-2.4l2.9,0.7C49.3,27.8,47.4,29.4,44.3,30.2z M46.8,23c-0.5-1.2-1.7-2.1-3.6-2.8l1-2.8c2.8,1,4.6,2.5,5.4,4.5
		L46.8,23z M40.4,19.5c-1.6-0.3-3.5-0.6-5.8-0.8l0.2-3c2.4,0.2,4.4,0.4,6.1,0.8L40.4,19.5z M31.7,18.6c-2-0.1-4.1-0.1-6-0.2l0.1-3
		c1.9,0,4,0.1,6.1,0.2L31.7,18.6z M22.7,18.3c-2,0-4.1-0.1-6.1-0.2l0.1-3c1.9,0.1,4,0.1,6,0.2L22.7,18.3z M13.6,18
		c-2.5-0.2-4.5-0.5-6.2-0.8l0.7-2.9c1.5,0.3,3.4,0.6,5.7,0.8L13.6,18z M4.3,16.2c-3.6-1.6-4.3-4-4.3-5.7h3c0,0.9,0.3,2,2.5,3
		L4.3,16.2z"/>
</g>
<g>
	<polygon fill="#FFFFFF" points="36.6,13.9 18.6,13.9 20.7,7 34.9,7 	"/>
	<path fill="#414142" d="M38,15H17.2l2.7-9h16L38,15z M20.1,12.8h15.2L34.1,8H21.5L20.1,12.8z"/>
</g>
<g>
	<rect x="14" y="13.9" fill="#E94735" width="27.3" height="7.8"/>
	<path fill="#414142" d="M42.4,22.8H12.9v-10h29.5V22.8z M15.1,20.6h25.1V15H15.1V20.6z"/>
</g>
<g>
	<rect x="17.2" y="21.2" fill="#414142" width="2.6" height="5.2"/>
</g>
<g>
	<rect x="35.3" y="21.2" fill="#414142" width="2.6" height="5.2"/>
</g>
<g>
	<circle fill="#FFFFFF" cx="18.6" cy="17.8" r="1.8"/>
</g>
<g>
	<circle fill="#FFFFFF" cx="36.6" cy="17.8" r="1.8"/>
</g>
<g enable-background="new    ">
	<path fill="#48BFEE" d="M25.3,37.5l-2.5,5.2c-0.1,0.3-0.5,0.5-0.8,0.5s-0.6-0.2-0.8-0.5l-2.5-5.2c-0.2-0.4-0.2-0.8-0.2-1.2
		c0-1.9,1.6-3.5,3.5-3.5s3.5,1.6,3.5,3.5C25.5,36.7,25.5,37.1,25.3,37.5z M22.1,34.5c-1,0-1.7,0.8-1.7,1.7s0.8,1.7,1.7,1.7
		s1.7-0.8,1.7-1.7S23,34.5,22.1,34.5z"/>
</g>
</svg>
