<?xml version="1.0" encoding="utf-8"?>
<!-- Generator: Adobe Illustrator 18.1.1, SVG Export Plug-In . SVG Version: 6.00 Build 0)  -->
<svg version="1.1" id="Layer_1" xmlns="http://www.w3.org/2000/svg" xmlns:xlink="http://www.w3.org/1999/xlink" x="0px" y="0px"
	 viewBox="68.3 36.3 14 14" enable-background="new 68.3 36.3 14 14" xml:space="preserve">
<g id="calendar_1_">
	<path fill="#889197" d="M81,37.6h-1.9v-0.9c0-0.3-0.2-0.4-0.4-0.4c-0.3,0-0.4,0.2-0.4,0.4v0.9h-2.6v-0.9c0-0.3-0.2-0.4-0.4-0.4
		s-0.4,0.2-0.4,0.4v0.9h-2.6v-0.9c0-0.3-0.2-0.4-0.4-0.4s-0.4,0.2-0.4,0.4v0.9h-1.9c-0.7,0-1.2,0.5-1.2,1.2v10.3
		c0,0.7,0.5,1.2,1.2,1.2h11.6c0.7,0,1.2-0.5,1.2-1.2V38.7C82.2,38.1,81.7,37.6,81,37.6z M81.3,49c0,0.2-0.1,0.3-0.3,0.3H69.4
		c-0.2,0-0.3-0.1-0.3-0.3V38.7c0-0.2,0.1-0.3,0.3-0.3h1.9v0.9c0,0.3,0.2,0.4,0.4,0.4s0.4-0.2,0.4-0.4v-0.9h2.6v0.9
		c0,0.3,0.2,0.4,0.4,0.4s0.4-0.2,0.4-0.4v-0.9h2.6v0.9c0,0.3,0.2,0.4,0.4,0.4s0.4-0.2,0.4-0.4v-0.9H81c0.2,0,0.3,0.1,0.3,0.3
		L81.3,49L81.3,49z"/>
	<rect x="71.3" y="41.5" fill="#889197" width="1.7" height="1.3"/>
	<rect x="71.3" y="43.7" fill="#889197" width="1.7" height="1.3"/>
	<rect x="71.3" y="45.8" fill="#889197" width="1.7" height="1.3"/>
	<rect x="74.4" y="45.8" fill="#889197" width="1.7" height="1.3"/>
	<rect x="74.4" y="43.7" fill="#889197" width="1.7" height="1.3"/>
	<rect x="74.4" y="41.5" fill="#889197" width="1.7" height="1.3"/>
	<rect x="77.4" y="45.8" fill="#889197" width="1.7" height="1.3"/>
	<rect x="77.4" y="43.7" fill="#889197" width="1.7" height="1.3"/>
	<rect x="77.4" y="41.5" fill="#889197" width="1.7" height="1.3"/>
</g>
</svg>
