<?xml version="1.0" encoding="utf-8"?>
<!-- Generator: Adobe Illustrator 18.1.1, SVG Export Plug-In . SVG Version: 6.00 Build 0)  -->
<svg version="1.1" id="Layer_1" xmlns="http://www.w3.org/2000/svg" xmlns:xlink="http://www.w3.org/1999/xlink" x="0px" y="0px"
	 viewBox="-17 19 64 64" enable-background="new -17 19 64 64" xml:space="preserve">
<path fill="#00b7f3" d="M31,58.3c-2.4,0-4.5,1-6,2.6L7.2,52.2c0.1-0.4,0.1-0.8,0.1-1.2c0-0.4,0-0.8-0.1-1.2l17.7-8.6
	c1.5,1.6,3.7,2.6,6.1,2.6c4.6,0,8.3-3.7,8.3-8.3c0-4.6-3.7-8.3-8.3-8.3s-8.3,3.7-8.3,8.3c0,0.4,0,0.8,0.1,1.2L5.1,45.2
	c-1.5-1.6-3.7-2.6-6.1-2.6c-4.6,0-8.3,3.7-8.3,8.3c0,4.6,3.7,8.3,8.3,8.3c2.4,0,4.5-1,6-2.6l17.7,8.7c-0.1,0.4-0.1,0.8-0.1,1.2
	c0,4.6,3.7,8.3,8.3,8.3s8.3-3.7,8.3-8.3C39.3,62,35.6,58.3,31,58.3z"/>
</svg>
