<?xml version="1.0" encoding="iso-8859-1"?>
<!-- Generator: Adobe Illustrator 16.0.0, SVG Export Plug-In . SVG Version: 6.00 Build 0)  -->
<!DOCTYPE svg PUBLIC "-//W3C//DTD SVG 1.1//EN" "http://www.w3.org/Graphics/SVG/1.1/DTD/svg11.dtd">
<svg xmlns="http://www.w3.org/2000/svg" xmlns:xlink="http://www.w3.org/1999/xlink" version="1.1" id="Capa_1" x="0px" y="0px" width="512px" height="512px" viewBox="0 0 566.229 566.229" style="enable-background:new 0 0 566.229 566.229;" xml:space="preserve">
<g>
	<g>
		<path d="M131.580,409.416l25.183,25.184c3.442,3.441,8.111,5.375,12.983,5.376s9.538-1.933,12.983-5.376l251.866-251.865    c3.442-3.441,5.376-8.111,5.376-12.983s-1.934-9.538-5.376-12.984l-25.184-25.184c-3.584-3.583-8.283-5.376-12.983-5.375    s-9.396,1.793-12.983,5.376L131.580,383.448C124.411,390.620,124.411,402.242,131.580,409.416z" fill="#00c9f8"/>
		<path d="M81.624,283.107l-50.383,50.368c-41.653,41.671-41.653,109.463,0,151.134l50.383,50.367    c41.653,41.671,109.447,41.671,151.118,0l50.368-50.367c37.356-37.356,40.906-95.586,11.288-137.29l-52.922,52.94    c3.026,11.794,0.505,24.731-8.73,33.948l-50.383,50.401c-13.914,13.913-36.436,13.913-50.368,0l-50.368-50.401    c-13.932-13.914-13.932-36.417,0-50.364l50.368-50.365c9.217-9.217,22.105-11.723,33.896-8.767l52.957-52.941    C177.138,242.165,118.965,245.767,81.624,283.107z" fill="#00c9f8"/>
		<path d="M484.607,31.239c-41.671-41.653-109.463-41.653-151.134,0l-50.367,50.386c-37.341,37.341-40.94,95.515-11.341,137.22    l52.975-52.975c-2.992-11.774-0.486-24.66,8.73-33.88l50.367-50.368c13.914-13.914,36.454-13.929,50.368,0l50.401,50.368    c13.913,13.932,13.88,36.469,0,50.364l-50.401,50.383c-9.217,9.235-22.157,11.738-33.948,8.733l-52.94,52.941    c41.671,29.636,99.934,26.053,137.29-11.304l50.367-50.364c41.671-41.671,41.671-109.465,0-151.118L484.607,31.239z" fill="#00c9f8"/>
	</g>
</g>
</svg>
