<?xml version="1.0" encoding="utf-8"?>
<!-- Generator: Adobe Illustrator 18.1.1, SVG Export Plug-In . SVG Version: 6.00 Build 0)  -->
<svg version="1.1" id="Layer_1" xmlns="http://www.w3.org/2000/svg" xmlns:xlink="http://www.w3.org/1999/xlink" x="0px" y="0px"
	 viewBox="493.5 393.5 13 13" enable-background="new 493.5 393.5 13 13" xml:space="preserve">
<path fill="#889197" d="M503.9,401.3c-0.9,0-1.7,0.5-2.2,1.1l-3.2-1.7c0.1-0.2,0.1-0.5,0.1-0.8c0-0.4-0.1-0.8-0.2-1.1l3.1-1.7
	c0.4,0.9,1.3,1.4,2.3,1.4c1.4,0,2.6-1.2,2.6-2.6c0-1.4-1.2-2.6-2.6-2.6c-1.4,0-2.6,1.2-2.6,2.6c0,0.1,0,0.3,0,0.4l-3.3,1.8
	c-0.5-0.5-1.2-0.9-1.9-0.9c-1.4,0-2.6,1.2-2.6,2.6c0,1.4,1.2,2.6,2.6,2.6c0.9,0,1.7-0.5,2.1-1.1c0.9,0.5,2.4,1.3,3.2,1.7
	c-0.1,0.2-0.1,0.5-0.1,0.8c0,1.4,1.2,2.6,2.6,2.6c1.4,0,2.6-1.2,2.6-2.6C506.5,402.5,505.3,401.3,503.9,401.3z M503.9,394.3
	c1,0,1.8,0.8,1.8,1.8c0,1-0.8,1.8-1.8,1.8s-1.8-0.8-1.8-1.8C502,395.1,502.8,394.3,503.9,394.3z M496.1,401.8c-1,0-1.8-0.8-1.8-1.8
	c0-1,0.8-1.8,1.8-1.8c1,0,1.8,0.8,1.8,1.8C497.9,401,497.1,401.8,496.1,401.8z M503.9,405.7c-1,0-1.8-0.8-1.8-1.8
	c0-1,0.8-1.8,1.8-1.8c1,0,1.8,0.8,1.8,1.8C505.7,404.9,504.9,405.7,503.9,405.7z"/>
</svg>
