<?xml version="1.0" encoding="iso-8859-1"?>
<!-- Generator: Adobe Illustrator 19.0.0, SVG Export Plug-In . SVG Version: 6.00 Build 0)  -->
<svg xmlns="http://www.w3.org/2000/svg" xmlns:xlink="http://www.w3.org/1999/xlink" version="1.1" id="Layer_1" x="0px" y="0px" viewBox="0 0 512 512" style="enable-background:new 0 0 512 512;" xml:space="preserve" width="512px" height="512px">
<g>
	<g>
		<path d="M357.238,329.726c0-8.99,0-247.983,0-259.981C357.238,31.287,325.949,0,287.492,0c-38.45,0-69.732,31.287-69.732,69.744    c0,13.057,0,251.358,0,259.981C146.628,393.683,192.014,512,287.493,512C382.932,512,428.371,393.692,357.238,329.726z     M319.775,228.964h-64.551V69.744c0-17.8,14.476-32.281,32.268-32.281c17.8,0,32.282,14.481,32.282,32.281V228.964z" fill="#5d5d5f"/>
	</g>
</g>
<g>
	<g>
		<path d="M170.232,237.268h-31.484c-10.345,0-18.732,8.387-18.732,18.732c0,10.345,8.387,18.732,18.732,18.732h31.484    c10.345,0,18.732-8.387,18.732-18.732C188.963,245.655,180.576,237.268,170.232,237.268z" fill="#5d5d5f"/>
	</g>
</g>
<g>
	<g>
		<path d="M170.232,175.566h-31.484c-10.345,0-18.732,8.387-18.732,18.732c0,10.345,8.387,18.732,18.732,18.732h31.484    c10.345,0,18.732-8.387,18.732-18.732C188.963,183.953,180.576,175.566,170.232,175.566z" fill="#5d5d5f"/>
	</g>
</g>
<g>
	<g>
		<path d="M170.232,113.864h-31.484c-10.345,0-18.732,8.387-18.732,18.732s8.387,18.732,18.732,18.732h31.484    c10.345,0,18.732-8.387,18.732-18.732S180.576,113.864,170.232,113.864z" fill="#5d5d5f"/>
	</g>
</g>
<g>
</g>
<g>
</g>
<g>
</g>
<g>
</g>
<g>
</g>
<g>
</g>
<g>
</g>
<g>
</g>
<g>
</g>
<g>
</g>
<g>
</g>
<g>
</g>
<g>
</g>
<g>
</g>
<g>
</g>
</svg>
