<?xml version="1.0" encoding="utf-8"?>
<!-- Generator: Adobe Illustrator 18.1.1, SVG Export Plug-In . SVG Version: 6.00 Build 0)  -->
<svg version="1.1" id="Шар_1" xmlns="http://www.w3.org/2000/svg" xmlns:xlink="http://www.w3.org/1999/xlink" x="0px" y="0px"
	 viewBox="445 389.5 22.9 21" enable-background="new 445 389.5 22.9 21" xml:space="preserve">
<g>
	<circle fill="none" stroke="#929FA7" stroke-miterlimit="10" cx="451.2" cy="399.5" r="3.3"/>
	<path fill="none" stroke="#929FA7" stroke-miterlimit="10" d="M453.5,404h-4.7c0,0-3.4,0-3.4,3.1c0,2.7,0,2.9,0,2.9h11.3
		c0,0,0-0.3,0-2.9C456.9,404.1,453.5,404,453.5,404z"/>
</g>
<path fill="none" stroke="#929FA7" stroke-miterlimit="10" d="M455.2,395c0,1.6,1,3,2.5,3.9v2.4l2.5-1.6c0.4,0.1,0.8,0.1,1.1,0.1
	c3.4,0,6.1-2.2,6.1-4.9s-2.7-4.9-6.1-4.9C457.9,390.2,455.2,392.4,455.2,395z"/>
</svg>
