<?xml version="1.0" encoding="utf-8"?>
<!-- Generator: Adobe Illustrator 18.1.1, SVG Export Plug-In . SVG Version: 6.00 Build 0)  -->
<svg version="1.1" id="Layer_1" xmlns="http://www.w3.org/2000/svg" xmlns:xlink="http://www.w3.org/1999/xlink" x="0px" y="0px"
	 viewBox="243.6 1 18.9 22.2" enable-background="new 243.6 1 18.9 22.2" xml:space="preserve">
<path id="XMLID_27_" fill="#889197" d="M256.3,4.8L256.3,4.8c-0.1,0.4-0.2,0.8-0.3,1.2c1,0.4,2,1,2.8,1.8c-0.7,0.4-1.4,0.8-2.1,1.2
	c-0.3-0.8-0.8-1.5-1.2-2.2c-0.1,0.2-0.3,0.3-0.4,0.5c0.4,0.6,0.8,1.2,1.1,1.9c-0.9,0.3-1.8,0.5-2.7,0.5h-0.7c-1,0-1.9-0.2-2.7-0.5
	c0.2-0.7,0.6-1.3,1-1.9c-0.1-0.2-0.3-0.3-0.4-0.5c-0.5,0.7-0.9,1.4-1.2,2.2c-0.8-0.4-1.5-0.8-2.1-1.3c0.8-0.7,1.8-1.3,2.8-1.7
	c-0.2-0.4-0.3-0.8-0.4-1.2c-3.6,1.4-6.1,4.8-6.1,8.9c0,5.2,4.2,9.5,9.5,9.5s9.5-4.2,9.5-9.5C262.6,9.7,260,6.1,256.3,4.8z M247,8.3
	c0.7,0.5,1.4,1,2.3,1.3c-0.5,1.2-0.7,2.5-0.7,3.8h-3.7C244.9,11.4,245.8,9.7,247,8.3z M244.8,14h3.6c0,1.5,0.4,3,0.9,4.3
	c-0.8,0.3-1.5,0.7-2.1,1.2C245.9,18.1,244.9,16.2,244.8,14z M247.8,19.9c0.6-0.4,1.2-0.8,1.9-1c0.5,1.1,1.2,2.1,2,2.9
	C250.2,21.6,248.9,20.9,247.8,19.9z M252.8,22L252.8,22c-1-0.8-1.9-1.9-2.5-3.2c0.8-0.2,1.6-0.4,2.5-0.4V22z M252.8,17.7
	c-1,0-1.9,0.2-2.7,0.5c-0.5-1.2-0.8-2.6-0.9-4.1h3.6V17.7z M252.8,13.4h-3.6c0-1.3,0.3-2.5,0.7-3.6c0.9,0.3,1.8,0.5,2.9,0.6V13.4z
	 M259.3,8.3c1.2,1.4,2,3.2,2.1,5.1h-3.6c0-1.3-0.3-2.6-0.7-3.8C257.7,9.3,258.5,8.8,259.3,8.3z M253.4,10.4c1,0,2-0.2,3-0.5
	c0.4,1.1,0.6,2.3,0.7,3.6h-3.7V10.4z M253.4,14h3.6c0,1.5-0.3,2.9-0.9,4.1c-0.9-0.3-1.8-0.4-2.7-0.5V14z M253.4,22L253.4,22v-3.6
	c0.9,0,1.7,0.2,2.5,0.4C255.3,19.9,254.4,21,253.4,22z M254.4,21.9c0.8-0.8,1.5-1.8,2-2.9c0.7,0.3,1.3,0.6,1.9,1
	C257.3,20.9,255.9,21.6,254.4,21.9z M258.8,19.5c-0.7-0.5-1.4-0.9-2.1-1.2c0.5-1.3,0.9-2.8,0.9-4.3h3.6
	C261.3,16.2,260.4,18.1,258.8,19.5z"/>
<g id="Livello_110">
	<g id="XMLID_6_">
		<path id="XMLID_7_" fill="#889197" d="M253.1,10.2L253.1,10.2c-0.1,0-0.2-0.1-0.2-0.1l-2.4-3.5c-0.5-0.6-0.8-1.4-0.8-2.1
			c0-1.9,1.5-3.4,3.4-3.4c1.9,0,3.4,1.5,3.4,3.4c0,0.6-0.1,1.1-0.4,1.6c0,0,0,0,0,0.1c-0.1,0.2-0.2,0.3-0.3,0.4l-2.5,3.5
			C253.2,10.1,253.2,10.2,253.1,10.2z M253.1,9.5l2.3-3.2c0.1-0.1,0.2-0.2,0.2-0.3l0,0l0,0c0.3-0.4,0.4-0.9,0.4-1.4
			c0-1.6-1.3-2.9-2.9-2.9s-2.9,1.2-2.9,2.8c0,0.7,0.2,1.3,0.7,1.8l0.8,1.2 M251.7,7.4l1.4,2 M253,6.2c-1,0-1.8-0.8-1.8-1.8
			s0.8-1.8,1.8-1.8l0,0c1,0,1.8,0.8,1.8,1.8S254,6.2,253,6.2z M253,3c-0.7,0-1.3,0.6-1.3,1.4s0.6,1.3,1.3,1.3c0.7,0,1.3-0.6,1.3-1.3
			S253.8,3,253,3z"/>
	</g>
</g>
</svg>
